<?xml version="1.0" encoding="utf-8"?>
<!-- Generator: Adobe Illustrator 19.0.0, SVG Export Plug-In . SVG Version: 6.00 Build 0)  -->
<svg version="1.1" id="Layer_1" xmlns="http://www.w3.org/2000/svg" xmlns:xlink="http://www.w3.org/1999/xlink" x="0px" y="0px"
	 viewBox="0 0 53.3 55" style="enable-background:new 0 0 53.3 55;" xml:space="preserve">
<style type="text/css">
	.st0{fill:#FFFFFF;}
</style>
<path id="XMLID_14123_" class="st0" d="M34.4,25.6c3.3-2.4,5.4-6.3,5.4-10.7c0-7.3-5.9-13.2-13.2-13.2S13.4,7.7,13.4,15
	c0,4.4,2.1,8.3,5.4,10.7c-8.2,3.1-14,11.1-14,20.3c0,4,3.3,7.3,7.3,7.3h29c4,0,7.3-3.3,7.3-7.3C48.4,36.7,42.6,28.8,34.4,25.6z
	 M17.4,15c0-5.1,4.1-9.2,9.2-9.2s9.2,4.1,9.2,9.2s-4.1,9.2-9.2,9.2S17.4,20.1,17.4,15z M41.1,49.3h-29c-1.8,0-3.3-1.5-3.3-3.3
	c0-9.8,8-17.8,17.8-17.8s17.8,8,17.8,17.8C44.4,47.8,42.9,49.3,41.1,49.3z"/>
</svg>
