<?xml version="1.0" encoding="utf-8"?>
<!-- Generator: Adobe Illustrator 19.0.0, SVG Export Plug-In . SVG Version: 6.00 Build 0)  -->
<svg version="1.1" id="Layer_1" xmlns="http://www.w3.org/2000/svg" xmlns:xlink="http://www.w3.org/1999/xlink" x="0px" y="0px"
	 viewBox="0 0 53.3 55" style="enable-background:new 0 0 53.3 55;" xml:space="preserve">
<style type="text/css">
	.st0{fill:#FFFFFF;}
</style>
<g id="XMLID_14117_">
	<path id="XMLID_14121_" class="st0" d="M15.4,8.2l3.2,4.8c0.6,1,0.4,2.2-0.5,2.9L14.2,19c-0.9,0.7-1.1,1.8-0.6,2.8
		c1.2,2.1,2.2,4.5,7.7,9.9s7.9,6.5,9.9,7.7c0.9,0.5,2.1,0.3,2.8-0.6l3.1-3.9c0.7-0.9,2-1.1,2.9-0.5l4.9,3.3l5.6,3.7
		c1,0.6,1.3,1.9,0.7,2.9l-2.6,4.4c-0.7,1.2-1.8,2.1-3.2,2.4c-4.4,1.2-14,1.4-29.5-14C0.4,21.6,0.7,12,1.9,7.6
		c0.4-1.3,1.2-2.5,2.4-3.2l4.4-2.6c1-0.6,2.3-0.3,2.9,0.7L15.4,8.2z"/>
	<path id="XMLID_14120_" class="st0" d="M45.4,24.8c-0.5,0-0.9-0.4-0.9-0.9c0-8.1-6.6-14.7-14.7-14.7c-0.5,0-0.9-0.4-0.9-0.9
		c0-0.5,0.4-0.9,0.9-0.9c9.1,0,16.4,7.4,16.4,16.4C46.3,24.5,45.9,24.8,45.4,24.8z"/>
	<path id="XMLID_14119_" class="st0" d="M40.2,24.8c-0.5,0-0.9-0.4-0.9-0.9c0-5.2-4.3-9.5-9.5-9.5c-0.5,0-0.9-0.4-0.9-0.9
		c0-0.5,0.4-0.9,0.9-0.9c6.2,0,11.2,5,11.2,11.2C41.1,24.5,40.7,24.8,40.2,24.8z"/>
	<path id="XMLID_14118_" class="st0" d="M35.1,24.8c-0.5,0-0.9-0.4-0.9-0.9c0-2.4-1.9-4.3-4.3-4.3c-0.5,0-0.9-0.4-0.9-0.9
		c0-0.5,0.4-0.9,0.9-0.9c3.3,0,6,2.7,6,6C35.9,24.5,35.5,24.8,35.1,24.8z"/>
</g>
</svg>
