<?xml version="1.0" encoding="UTF-8" standalone="no"?>
<!-- Generator: Adobe Illustrator 19.0.0, SVG Export Plug-In . SVG Version: 6.00 Build 0)  -->

<svg
   version="1.1"
   id="Layer_1"
   x="0px"
   y="0px"
   viewBox="0 0 141.7 141.7"
   style="enable-background:new 0 0 141.7 141.7;"
   xml:space="preserve"
   sodipodi:docname="logout.svg"
   inkscape:version="1.1 (c68e22c387, 2021-05-23)"
   xmlns:inkscape="http://www.inkscape.org/namespaces/inkscape"
   xmlns:sodipodi="http://sodipodi.sourceforge.net/DTD/sodipodi-0.dtd"
   xmlns="http://www.w3.org/2000/svg"
   xmlns:svg="http://www.w3.org/2000/svg"><defs
   id="defs10" /><sodipodi:namedview
   id="namedview8"
   pagecolor="#ffffff"
   bordercolor="#cccccc"
   borderopacity="1"
   inkscape:pageshadow="0"
   inkscape:pageopacity="1"
   inkscape:pagecheckerboard="0"
   showgrid="false"
   inkscape:zoom="2.8652082"
   inkscape:cx="23.034975"
   inkscape:cy="52.526723"
   inkscape:window-width="1920"
   inkscape:window-height="1001"
   inkscape:window-x="-9"
   inkscape:window-y="-9"
   inkscape:window-maximized="1"
   inkscape:current-layer="Layer_1" />
<style
   type="text/css"
   id="style2">
	.st0{fill:#30B14A;}
</style>
<g
   id="XMLID_11512_"
   style="fill:#ffffff;fill-opacity:1">
	<path
   id="XMLID_11531_"
   class="st0"
   d="M 0.4,67.2 C -0.2,65.8 -0.2,64.1 0.4,62.7 0.7,62 1.1,61.3 1.7,60.8 L 19.4,43.1 c 2.3,-2.3 6,-2.3 8.3,0 2.3,2.3 2.3,6 0,8.4 l -7.6,7.6 h 33 c 3.3,0 5.9,2.6 5.9,5.9 0,3.3 -2.6,5.9 -5.9,5.9 h -33 l 7.6,7.6 c 2.3,2.3 2.3,6 0,8.4 -1.2,1.2 -2.7,1.7 -4.2,1.7 -1.5,0 -3,-0.6 -4.2,-1.7 L 1.7,69.1 C 1.2,68.6 0.7,67.9 0.4,67.2"
   style="fill:#ffffff;fill-opacity:1" />
	<path
   id="XMLID_11529_"
   class="st0"
   d="m 41.3,82.7 c 3.3,0 5.9,2.6 5.9,5.9 v 29.5 H 70.8 V 23.6 c 0,-2.6 1.7,-4.9 4.2,-5.7 L 95.5,11.8 H 47.2 v 29.5 c 0,3.3 -2.6,5.9 -5.9,5.9 -3.3,0 -5.9,-2.6 -5.9,-5.9 V 5.9 C 35.4,2.6 38,0 41.3,0 h 94.5 c 0.2,0 0.4,0.1 0.6,0.1 0.3,0 0.5,0.1 0.8,0.1 0.6,0.2 1.2,0.4 1.7,0.7 0.1,0.1 0.3,0.1 0.4,0.2 0.1,0 0.1,0.1 0.1,0.1 0.6,0.5 1.2,1.1 1.6,1.9 0.1,0.2 0.1,0.3 0.2,0.5 0.2,0.4 0.4,0.9 0.5,1.4 0,0.2 0,0.3 0,0.5 0,0.1 0.1,0.2 0.1,0.3 V 124 c 0,2.8 -2,5.2 -4.7,5.8 L 78,141.6 c -0.4,0.1 -0.8,0.1 -1.2,0.1 -1.3,0 -2.7,-0.5 -3.7,-1.3 -1.4,-1.1 -2.2,-2.8 -2.2,-4.6 v -5.9 H 41.3 c -3.3,0 -5.9,-2.6 -5.9,-5.9 V 88.6 c 0,-3.3 2.7,-5.9 5.9,-5.9"
   style="fill:#ffffff;fill-opacity:1" />
</g>
</svg>
