<?xml version="1.0" encoding="UTF-8" standalone="no"?>
<!-- Created with Inkscape (http://www.inkscape.org/) -->

<svg
   version="1.1"
   id="svg824"
   width="120.51064"
   height="151.76598"
   viewBox="0 0 120.51064 151.76598"
   sodipodi:docname="penarikan.svg"
   inkscape:version="1.1 (c68e22c387, 2021-05-23)"
   xmlns:inkscape="http://www.inkscape.org/namespaces/inkscape"
   xmlns:sodipodi="http://sodipodi.sourceforge.net/DTD/sodipodi-0.dtd"
   xmlns="http://www.w3.org/2000/svg"
   xmlns:svg="http://www.w3.org/2000/svg">
  <defs
     id="defs828" />
  <sodipodi:namedview
     id="namedview826"
     pagecolor="#ffffff"
     bordercolor="#cccccc"
     borderopacity="1"
     inkscape:pageshadow="0"
     inkscape:pageopacity="1"
     inkscape:pagecheckerboard="0"
     showgrid="false"
     inkscape:zoom="1.4637918"
     inkscape:cx="-65.241517"
     inkscape:cy="90.518335"
     inkscape:window-width="1920"
     inkscape:window-height="1001"
     inkscape:window-x="-9"
     inkscape:window-y="-9"
     inkscape:window-maximized="1"
     inkscape:current-layer="g830" />
  <g
     inkscape:groupmode="layer"
     inkscape:label="Image"
     id="g830"
     transform="translate(1.6355303,-0.20500115)">
    <path
       style="fill:#ffffff;fill-opacity:1;stroke-width:0.32"
       d="m 51.414057,151.42959 c 0,0 -2.9938,-3.0886 -3.95896,-11.30664 -1.27502,-10.85636 -2.014,-15.97492 -2.70266,-18.71999 -1.51138,-6.02462 -1.98309,-8.93474 -2.17187,-13.39909 -0.27835,-6.58239 0.76313,-10.62668 3.18061,-12.35094 0.90009,-0.64199 1.41821,-0.74546 3.65323,-0.72955 5.03689,0.0359 8.30351,2.52496 11.31452,8.62147 1.76493,3.57353 3.16723,8.24224 3.98879,13.28 0.4756,2.91636 0.76136,3.74026 2.16424,6.24 1.69546,3.02105 4.07383,6.52424 4.88838,7.20025 0.42592,0.35348 0.47968,-5.53803 0.47968,-52.56095 V 24.745099 l -2.64,-0.139236 C 63.187037,24.26711 58.600807,19.766969 58.234787,13.444146 l -0.147,-2.539304 h -17.19193 -17.19193 l -0.20862,2.46802 c -0.38321,4.533334 -2.93345,8.334127 -6.84913,10.207703 -1.44068,0.689338 -2.43923,0.90915 -4.63616,1.020563 l -2.8000003,0.141998 v 42.483644 42.48364 l 3.1200003,0.13642 c 3.75047,0.164 6.09527,1.1228 8.41235,3.43989 2.31363,2.31362 3.29717,4.66024 3.45375,8.24021 l 0.13024,2.97792 h 5.67224 c 4.99879,0 5.73145,0.0665 6.17099,0.55999 0.46797,0.52542 1.52043,7.44438 1.52043,9.9954 v 0.98202 l -15.76,-0.0887 -15.7600003,-0.0887 -1.83545,-0.86021 c -2.04809,-0.95987 -4.93945999,-3.64212 -5.16486999,-4.79131 -0.84220001,-4.29379 -0.87482001,-7.05006 -0.75306001,-63.62848 0.0777,-36.10683 0.245,-59.0296418 0.43824,-60.0494368 0.58044001,-3.063105 3.11512,-5.474086 6.30732,-5.99950301 2.69127,-0.442967 68.7775403,-0.440409 71.4791103,0.0028 2.542237,0.417038 4.534377,2.01929001 6.151867,4.94785201 l 1.13685,2.058323 0.16,33.6437748 0.16,33.64376 2.08,1.52602 c 2.05347,1.50656 30.288266,29.59007 31.296476,31.1288 1.50217,2.29259 1.6906,12.31655 0.33795,17.97764 -2.37932,9.95788 -5.77887,26.50608 -5.77887,26.50608 z M 31.652537,93.6055 c -6.88465,-2.34499 -12.11173,-7.01721 -15.22522,-13.60906 -1.87565,-3.97109 -2.25298,-5.89572 -2.25298,-11.4916 0,-5.59588 0.37733,-7.52051 2.25298,-11.4916 4.69817,-9.9469 14.39213,-15.54743 25.9027,-14.96487 1.936,0.098 4.62927,0.46716 5.98504,0.8204 8.86763,2.31037 16.02094,9.30285 18.55125,18.13418 0.61481,2.14581 0.7295,3.31478 0.73601,7.50189 0.007,4.24051 -0.0991,5.32873 -0.7283,7.50189 -0.98264,3.39371 -2.91439,7.02475 -5.1502,9.68063 -1.71354,2.0355 -1.91524,2.17536 -3.09343,2.14495 -0.6932,-0.0179 -2.31725,-0.42335 -3.609,-0.90102 -5.74796,-2.1255 -11.05781,-1.12572 -15.40711,2.90096 -1.03822,0.96122 -2.29191,2.38751 -2.78597,3.16956 -1.08534,1.71797 -1.69542,1.78913 -5.17577,0.60369 z m 5.64359,-17.78234 c 1.79329,-0.86812 3.24735,-2.8381 4.75543,-6.44275 1.38111,-3.30116 2.18656,-4.27429 3.78621,-4.57438 1.7411,-0.32663 3.08256,0.17817 3.8175,1.43657 0.84662,1.44961 0.83322,5.22615 -0.0275,7.74976 l -0.61648,1.80751 1.17649,0.35249 c 0.64708,0.19386 1.32788,0.35248 1.5129,0.35248 0.40891,0 1.25576,-2.14604 1.77706,-4.50332 l 0.38406,-1.73668 1.91411,-0.16 1.91411,-0.16 v -1.28 -1.28 l -2.08,-0.16 c -1.83278,-0.14098 -2.11803,-0.25304 -2.4,-0.94283 -1.82469,-4.46382 -5.06086,-6.68967 -8.37647,-5.76136 -2.43386,0.68144 -4.16535,2.56197 -6.0628,6.58466 -0.98294,2.08388 -2.03776,3.84246 -2.54328,4.2401 -1.19445,0.93956 -3.04139,0.90339 -4.18696,-0.082 -0.77884,-0.66993 -0.90044,-1.03107 -1.01201,-3.00557 -0.0818,-1.44816 0.0511,-2.85103 0.37476,-3.95517 0.27587,-0.94106 0.39925,-1.80717 0.27417,-1.92469 -0.12507,-0.11752 -0.75604,-0.35631 -1.40216,-0.53064 -1.11294,-0.3003 -1.19445,-0.2694 -1.54932,0.58732 -0.20601,0.49736 -0.54421,1.67061 -0.75155,2.60723 -0.32218,1.45538 -0.49237,1.71549 -1.17068,1.78924 -2.8575,0.31071 -2.91723,0.34494 -2.81195,1.61162 l 0.0982,1.18208 1.83115,0.0957 1.83115,0.0957 0.98474,2.06332 c 1.88332,3.94615 5.30095,5.52082 8.55907,3.94358 z m 1.9168,-37.19422 c -3.36642,-1.25614 -5.04291,-3.74773 -5.04291,-7.49472 0,-3.37657 1.34037,-5.814539 3.95096,-7.18633 1.88226,-0.989078 6.20025,-0.999817 8.04904,-0.02002 2.80372,1.485876 4,3.62034 4,7.13697 0,3.52266 -1.21165,5.67936 -4,7.1199 -1.62956,0.84187 -5.26865,1.07422 -6.95709,0.4442 z"
       id="path1274"
       sodipodi:nodetypes="csssssssssscsscccssscccssscssscccssssscscccsssccssssscsssssssssssssscssscccccsssssssssssssscccssssssssss"
       inkscape:export-filename="D:\Frontend Development\etc\apps-magnet\src\assets\icon\penarikan.png"
       inkscape:export-xdpi="300"
       inkscape:export-ydpi="300" />
    <path
       style="fill:#000000;stroke-width:0.32"
       id="path1038"
       d="" />
    <path
       style="fill:#000000;stroke-width:0.32"
       id="path1018"
       d="" />
  </g>
</svg>
