<?xml version="1.0" encoding="utf-8"?>
<!-- Generator: Adobe Illustrator 19.0.0, SVG Export Plug-In . SVG Version: 6.00 Build 0)  -->
<svg version="1.1" id="Layer_1" xmlns="http://www.w3.org/2000/svg" xmlns:xlink="http://www.w3.org/1999/xlink" x="0px" y="0px"
	 viewBox="0 0 61.7 55" style="enable-background:new 0 0 61.7 55;" xml:space="preserve">
<style type="text/css">
	.st0{fill:#FFFFFF;}
</style>
<g id="XMLID_781_">
	<path id="XMLID_784_" class="st0" d="M46.6,24c-7.1,0-12.8,5.8-12.8,12.8s5.8,12.8,12.8,12.8c2.3,0,4.5-0.6,6.4-1.7
		c0.6-0.3,0.7-1,0.4-1.6c-0.3-0.6-1-0.8-1.6-0.4c-1.6,0.9-3.4,1.4-5.2,1.4c-5.8,0-10.5-4.7-10.5-10.5c0-5.8,4.7-10.5,10.5-10.5
		c5.8,0,10.5,4.7,10.5,10.5V38c0,1.3-1,2.3-2.3,2.3c-1.3,0-2.3-1-2.3-2.3v-4.7c0-0.6-0.5-1.2-1.2-1.2c-0.3,0-0.6,0.1-0.8,0.3
		c-1-0.9-2.4-1.5-3.9-1.5c-3.2,0-5.8,2.6-5.8,5.8c0,3.2,2.6,5.8,5.8,5.8c1.7,0,3.3-0.8,4.3-2c0.8,1.2,2.2,2,3.8,2
		c2.6,0,4.7-2.1,4.7-4.7v-1.2C59.5,29.8,53.7,24,46.6,24z M46.6,40.4c-1.9,0-3.5-1.6-3.5-3.5c0-1.9,1.6-3.5,3.5-3.5
		c1.9,0,3.5,1.6,3.5,3.5C50.1,38.8,48.6,40.4,46.6,40.4z"/>
	<path id="XMLID_783_" class="st0" d="M24.6,26c0.1,0.1,0.1,0.1,0.2,0.1c0.3,0.1,0.5,0.2,0.8,0.2c0.3,0,0.6-0.1,1-0.3l19.2-15.6
		c0.3-0.2,0.4-0.6,0.4-0.9c0-0.4-0.2-0.7-0.5-0.9C45,8,44.1,7.7,43.1,7.7h-35c-1,0-1.9,0.3-2.7,0.8C5.2,8.7,5,9.1,5,9.4
		c0,0.4,0.1,0.7,0.4,0.9L24.6,26z"/>
	<path id="XMLID_782_" class="st0" d="M46.6,21.7c0.6,0,1.2-0.5,1.2-1.2v-6.2c0-0.5-0.3-0.9-0.7-1.1c-0.4-0.2-0.9-0.1-1.2,0.1L28,28
		l-0.2,0.1c-1.3,0.8-3,0.9-4.5-0.1L5.4,13.4c-0.3-0.3-0.8-0.3-1.2-0.1c-0.4,0.2-0.7,0.6-0.7,1.1v21.4c0,2.6,2.1,4.7,4.7,4.7h22.3
		c0.3,0,0.7-0.1,0.9-0.4c0.2-0.3,0.3-0.6,0.3-0.9c-0.1-0.8-0.2-1.5-0.2-2.2C31.5,28.5,38.3,21.7,46.6,21.7z"/>
</g>
</svg>
