<?xml version="1.0" encoding="utf-8"?>
<!-- Generator: Adobe Illustrator 19.0.0, SVG Export Plug-In . SVG Version: 6.00 Build 0)  -->
<svg version="1.1" id="Layer_1" xmlns="http://www.w3.org/2000/svg" xmlns:xlink="http://www.w3.org/1999/xlink" x="0px" y="0px"
	 viewBox="0 0 53.3 55" style="enable-background:new 0 0 53.3 55;" xml:space="preserve">
<style type="text/css">
	.st0{fill:#30B14A;}
	.st1{fill:#C3262C;}
</style>
<path id="XMLID_6607_" class="st0" d="M107.6-9.2h-1.4c-0.8,0-1.5-0.7-1.5-1.5v-1.4c0-0.8,0.7-1.5,1.5-1.5h1.4
	c0.8,0,1.5,0.7,1.5,1.5v1.4C109.1-9.8,108.4-9.2,107.6-9.2z"/>
<g id="XMLID_11696_">
	<path id="XMLID_11699_" class="st1" d="M40.3,23.7c-6.1,0-11.1,5-11.1,11.1s5,11.1,11.1,11.1c1.9,0,3.9-0.5,5.5-1.5
		c0.5-0.3,0.6-0.9,0.4-1.4c-0.3-0.5-0.9-0.6-1.4-0.4c-1.4,0.8-2.9,1.2-4.5,1.2c-5,0-9.1-4.1-9.1-9.1c0-5,4.1-9.1,9.1-9.1
		c5,0,9.1,4.1,9.1,9.1v1c0,1.1-0.9,2-2,2c-1.1,0-2-0.9-2-2v-4c0-0.6-0.5-1-1-1c-0.3,0-0.5,0.1-0.7,0.3c-0.9-0.8-2-1.3-3.3-1.3
		c-2.8,0-5,2.3-5,5c0,2.8,2.3,5,5,5c1.5,0,2.8-0.7,3.8-1.7c0.7,1,1.9,1.7,3.3,1.7c2.2,0,4-1.8,4-4v-1C51.3,28.7,46.4,23.7,40.3,23.7
		z M40.3,37.8c-1.7,0-3-1.4-3-3c0-1.7,1.4-3,3-3c1.7,0,3,1.4,3,3C43.3,36.4,41.9,37.8,40.3,37.8z"/>
	<path id="XMLID_11698_" class="st1" d="M21.3,25.4c0.1,0,0.1,0.1,0.2,0.1c0.2,0.1,0.5,0.2,0.7,0.2c0.3,0,0.5-0.1,0.9-0.3l16.6-13.5
		c0.2-0.2,0.4-0.5,0.4-0.8c0-0.3-0.2-0.6-0.4-0.8c-0.7-0.5-1.5-0.7-2.3-0.7H7c-0.8,0-1.6,0.2-2.3,0.7c-0.3,0.2-0.4,0.5-0.4,0.8
		c0,0.3,0.1,0.6,0.4,0.8L21.3,25.4z"/>
	<path id="XMLID_11697_" class="st1" d="M40.3,21.7c0.6,0,1-0.5,1-1v-5.4c0-0.4-0.2-0.7-0.6-0.9c-0.4-0.2-0.8-0.1-1.1,0.1L24.2,27.1
		L24,27.2c-1.2,0.7-2.6,0.7-3.9-0.1L4.7,14.5c-0.3-0.2-0.7-0.3-1.1-0.1C3.2,14.5,3,14.9,3,15.3v18.5c0,2.2,1.8,4,4,4h19.3
		c0.3,0,0.6-0.1,0.8-0.3c0.2-0.2,0.3-0.5,0.2-0.8c-0.1-0.7-0.2-1.3-0.2-1.9C27.2,27.5,33,21.7,40.3,21.7z"/>
</g>
</svg>
