<?xml version="1.0" encoding="utf-8"?>
<!-- Generator: Adobe Illustrator 19.0.0, SVG Export Plug-In . SVG Version: 6.00 Build 0)  -->
<svg version="1.1" id="Layer_1" xmlns="http://www.w3.org/2000/svg" xmlns:xlink="http://www.w3.org/1999/xlink" x="0px" y="0px"
	 viewBox="0 0 61.7 55" style="enable-background:new 0 0 61.7 55;" xml:space="preserve">
<style type="text/css">
	.st0{fill:#FFFFFF;}
</style>
<path id="XMLID_787_" class="st0" d="M48.8,28.7h-2.5c0-8.3-6.7-15-15-15v-2.5C41,11.2,48.8,19.1,48.8,28.7 M31.3,15.6v2.5
	c5.8,0,10.6,4.8,10.6,10.6h2.5C44.5,21.5,38.6,15.6,31.3,15.6 M30.8,3.7C17.2,3.7,6.1,14.8,6.1,28.5s11.1,24.8,24.8,24.8
	c0.8,0,1.5-0.7,1.5-1.5c0-0.8-0.7-1.5-1.5-1.5c-12,0-21.7-9.8-21.7-21.8c0-12,9.7-21.8,21.7-21.8c12,0,21.7,9.8,21.7,21.8
	c0,5-2.7,10-6.5,12.1c-1.4,0.8-2.9,1.1-4.5,1.2c1-0.6,1.8-1.4,2.4-2.3c0.1-0.2,0.3-0.3,0.4-0.5c0.5-1.2,0.5-2.6,0.8-3.8
	c0.4-1.6-7.1-4.8-7.7-2.8c-0.2,0.7-0.6,3.1-1.1,3.7c-0.4,0.6-1.4,0.3-2.1-0.3c-1.7-1.4-3.6-3.6-5.2-5.3c0,0-0.1-0.1-0.1-0.1
	c0,0-0.1-0.1-0.1-0.1c-1.7-1.7-3.8-3.6-5.2-5.3c-0.5-0.6-0.8-1.7-0.3-2.1c0.6-0.5,3-0.8,3.7-1.1c2-0.6-1.1-8.1-2.8-7.7
	c-1.3,0.3-2.6,0.3-3.8,0.8c-0.2,0.1-0.4,0.2-0.5,0.4c-4.2,2.7-4.8,9.2-0.6,14.1c1.6,1.9,3.2,3.7,4.9,5.4l0,0c0,0,0.1,0.1,0.1,0.1
	c0.1,0,0.1,0.1,0.1,0.1l0,0c1.8,1.7,3.8,4.2,7.2,6.5c7.1,4.8,12.6,3.4,15.8,1.7c5.6-3.1,8.1-9.6,8.1-14.8
	C55.6,14.8,44.5,3.7,30.8,3.7"/>
</svg>
