<?xml version="1.0" encoding="utf-8"?>
<!-- Generator: Adobe Illustrator 19.0.0, SVG Export Plug-In . SVG Version: 6.00 Build 0)  -->
<svg version="1.1" id="Layer_1" xmlns="http://www.w3.org/2000/svg" xmlns:xlink="http://www.w3.org/1999/xlink" x="0px" y="0px"
	 viewBox="0 0 53.3 55" style="enable-background:new 0 0 53.3 55;" xml:space="preserve">
<style type="text/css">
	.st0{fill:#30B14A;}
	.st1{fill:#C3262C;}
</style>
<path id="XMLID_6607_" class="st0" d="M107.6-9.2h-1.4c-0.8,0-1.5-0.7-1.5-1.5v-1.4c0-0.8,0.7-1.5,1.5-1.5h1.4
	c0.8,0,1.5,0.7,1.5,1.5v1.4C109.1-9.8,108.4-9.2,107.6-9.2z"/>
<g id="XMLID_11706_">
	<path id="XMLID_11708_" class="st1" d="M52.2,26.2c-0.3-13.4-11.4-24.1-25-24.1C13.9,2.1,2.9,12.6,2.3,25.7c0,0.4,0,0.7,0,1.1
		c0,4.7,1.3,9.1,3.6,12.8L1.4,52.9l13.8-4.4c3.6,2,7.7,3.1,12.1,3.1c13.8,0,25-11.1,25-24.8C52.3,26.6,52.2,26.4,52.2,26.2z
		 M27.3,47.7c-4.3,0-8.2-1.3-11.5-3.4l-8.1,2.6l2.6-7.7c-2.5-3.4-4-7.7-4-12.2c0-0.7,0-1.4,0.1-2C7.4,14.3,16.4,6,27.3,6
		c11,0,20.1,8.5,20.9,19.2c0,0.5,0.1,1.1,0.1,1.6C48.3,38.3,38.9,47.7,27.3,47.7z"/>
	<path id="XMLID_11707_" class="st1" d="M38,31.8c-0.6-0.3-3.6-1.8-4.2-2c-0.6-0.2-1-0.3-1.4,0.3c-0.4,0.6-1.6,2-1.9,2.4
		c-0.4,0.4-0.7,0.5-1.3,0.2c-0.6-0.3-2.6-0.9-4.9-3c-1.8-1.6-3-3.6-3.4-4.2c-0.4-0.6,0-0.9,0.3-1.2c0.3-0.3,0.6-0.7,0.9-1.1
		c0.1-0.1,0.2-0.2,0.2-0.3c0.1-0.2,0.2-0.4,0.4-0.7c0.2-0.4,0.1-0.8,0-1.1c-0.2-0.3-1.4-3.3-1.9-4.5c-0.5-1.2-1-1-1.4-1
		c-0.4,0-0.8-0.1-1.2-0.1c-0.4,0-1.1,0.2-1.6,0.8c-0.6,0.6-2.1,2.1-2.1,5.1c0,0.7,0.1,1.4,0.3,2.1c0.6,2.1,2,3.9,2.2,4.2
		c0.3,0.4,4.2,6.7,10.5,9.2c6.2,2.4,6.2,1.6,7.3,1.5c1.1-0.1,3.6-1.5,4.1-2.9c0.5-1.4,0.5-2.6,0.4-2.9C39,32.3,38.6,32.1,38,31.8z"
		/>
</g>
</svg>
