<?xml version="1.0" encoding="utf-8"?>
<!-- Generator: Adobe Illustrator 19.0.0, SVG Export Plug-In . SVG Version: 6.00 Build 0)  -->
<svg version="1.1" id="Layer_1" xmlns="http://www.w3.org/2000/svg" xmlns:xlink="http://www.w3.org/1999/xlink" x="0px" y="0px"
	 viewBox="0 0 130.1 141.7" style="enable-background:new 0 0 130.1 141.7;" xml:space="preserve">
<style type="text/css">
	.st0{fill:#FDD217;}
	.st1{fill:#3CA9FC;}
</style>
<g id="XMLID_5131_">
	<path id="XMLID_5063_" class="st0" d="M65.1,80.3c-21.7,0-39.4-18-39.4-40.1C25.7,18,43.4,0,65.1,0c21.7,0,39.4,18,39.4,40.1
		C104.5,62.3,86.8,80.3,65.1,80.3L65.1,80.3z M65.1,80.3"/>
	<path id="XMLID_5047_" class="st1" d="M115.1,141.7H15c-4.4,0-8.6-2-11.5-5.4c-2.9-3.5-4.1-8-3.3-12.4c5.7-32,32.9-55.2,64.8-55.2
		c31.9,0,59.2,23.2,64.8,55.2c0.8,4.4-0.4,9-3.3,12.4C123.7,139.8,119.6,141.7,115.1,141.7L115.1,141.7z M115.1,141.7"/>
	<path id="XMLID_5042_" class="st1" d="M25.7,105.2"/>
</g>
</svg>
