<?xml version="1.0" encoding="UTF-8" standalone="no"?>
<!-- Generator: Adobe Illustrator 19.0.0, SVG Export Plug-In . SVG Version: 6.00 Build 0)  -->

<svg
   version="1.1"
   id="Layer_1"
   x="0px"
   y="0px"
   viewBox="0 0 53.3 55"
   style="enable-background:new 0 0 53.3 55;"
   xml:space="preserve"
   sodipodi:docname="akun_red.svg"
   inkscape:version="1.1 (c68e22c387, 2021-05-23)"
   xmlns:inkscape="http://www.inkscape.org/namespaces/inkscape"
   xmlns:sodipodi="http://sodipodi.sourceforge.net/DTD/sodipodi-0.dtd"
   xmlns="http://www.w3.org/2000/svg"
   xmlns:svg="http://www.w3.org/2000/svg"><defs
   id="defs8" /><sodipodi:namedview
   id="namedview6"
   pagecolor="#ffffff"
   bordercolor="#cccccc"
   borderopacity="1"
   inkscape:pageshadow="0"
   inkscape:pageopacity="1"
   inkscape:pagecheckerboard="0"
   showgrid="false"
   inkscape:zoom="1.8454545"
   inkscape:cx="-47.684729"
   inkscape:cy="-28.990148"
   inkscape:window-width="1920"
   inkscape:window-height="1001"
   inkscape:window-x="-9"
   inkscape:window-y="-9"
   inkscape:window-maximized="1"
   inkscape:current-layer="Layer_1" />
<style
   type="text/css"
   id="style2">
	.st0{fill:#FFFFFF;}
</style>
<path
   id="XMLID_14123_"
   class="st0"
   d="M34.4,25.6c3.3-2.4,5.4-6.3,5.4-10.7c0-7.3-5.9-13.2-13.2-13.2S13.4,7.7,13.4,15  c0,4.4,2.1,8.3,5.4,10.7c-8.2,3.1-14,11.1-14,20.3c0,4,3.3,7.3,7.3,7.3h29c4,0,7.3-3.3,7.3-7.3C48.4,36.7,42.6,28.8,34.4,25.6z   M17.4,15c0-5.1,4.1-9.2,9.2-9.2s9.2,4.1,9.2,9.2s-4.1,9.2-9.2,9.2S17.4,20.1,17.4,15z M41.1,49.3h-29c-1.8,0-3.3-1.5-3.3-3.3  c0-9.8,8-17.8,17.8-17.8s17.8,8,17.8,17.8C44.4,47.8,42.9,49.3,41.1,49.3z"
   style="fill:#d67075;fill-opacity:1" />
</svg>
