<?xml version="1.0" encoding="utf-8"?>
<!-- Generator: Adobe Illustrator 19.0.0, SVG Export Plug-In . SVG Version: 6.00 Build 0)  -->
<svg version="1.1" id="Layer_1" xmlns="http://www.w3.org/2000/svg" xmlns:xlink="http://www.w3.org/1999/xlink" x="0px" y="0px"
	 viewBox="0 0 119.9 141.7" style="enable-background:new 0 0 119.9 141.7;" xml:space="preserve">
<style type="text/css">
	.st0{fill:#FFFFFF;}
</style>
<path id="XMLID_14123_" class="st0" d="M81.3,65.7c9.1-6.6,15-17.3,15-29.4C96.3,16.3,80,0,60,0S23.6,16.3,23.6,36.3
	c0,12.1,5.9,22.8,15,29.4C16.1,74.3,0,96.2,0,121.7c0,11,9,20,20,20h80c11,0,20-9,20-20C119.9,96.2,103.9,74.3,81.3,65.7z
	 M34.5,36.3c0-14,11.4-25.4,25.4-25.4s25.4,11.4,25.4,25.4S74,61.8,60,61.8S34.5,50.4,34.5,36.3z M99.9,130.8H20
	c-5,0-9.1-4.1-9.1-9.1c0-27.1,22-49.1,49.1-49.1s49.1,22,49.1,49.1C109,126.8,104.9,130.8,99.9,130.8z"/>
</svg>
