<?xml version="1.0" encoding="utf-8"?>
<!-- Generator: Adobe Illustrator 19.0.0, SVG Export Plug-In . SVG Version: 6.00 Build 0)  -->
<svg version="1.1" id="Layer_1" xmlns="http://www.w3.org/2000/svg" xmlns:xlink="http://www.w3.org/1999/xlink" x="0px" y="0px"
	 viewBox="0 0 141.7 141.7" style="enable-background:new 0 0 141.7 141.7;" xml:space="preserve">
<style type="text/css">
	.st0{fill:#30B14A;}
</style>
<g id="XMLID_12271_">
	<path id="XMLID_14029_" class="st0" d="M135.3,128.8H6.4c-3.5,0-6.4,2.9-6.4,6.5c0,3.6,2.9,6.4,6.4,6.4h128.9
		c3.6,0,6.5-2.9,6.5-6.4C141.7,131.7,138.9,128.8,135.3,128.8L135.3,128.8z M135.3,128.8"/>
	<path id="XMLID_12567_" class="st0" d="M14.5,112.1c-3.6,0-6.4,2.9-6.4,6.4c0,3.6,2.9,6.5,6.4,6.5h112.7c3.6,0,6.5-2.9,6.5-6.5
		c0-3.6-2.9-6.4-6.5-6.4h-1.6v-58h1.6c1.8,0,3.2-1.4,3.2-3.2c0-1.8-1.4-3.2-3.2-3.2H14.5c-1.8,0-3.2,1.4-3.2,3.2
		c0,1.8,1.4,3.2,3.2,3.2h1.6v58H14.5z M112.7,54.1v58H93.4v-58H112.7z M80.5,54.1v58H61.2v-58H80.5z M29,54.1h19.3v58H29V54.1z
		 M29,54.1"/>
	<path id="XMLID_12286_" class="st0" d="M6.4,41.9h128.9c3.6,0,6.5-2.9,6.5-6.5c0-2.8-1.8-5.2-4.4-6.1L73.5,0.6
		c-1.7-0.8-3.6-0.8-5.3,0l-64.4,29c-2.8,1.3-4.3,4.3-3.7,7.2C0.8,39.8,3.4,41.9,6.4,41.9L6.4,41.9z M6.4,41.9"/>
	<path id="XMLID_12282_" class="st0" d="M48.3,20.9"/>
</g>
</svg>
