<?xml version="1.0" encoding="utf-8"?>
<!-- Generator: Adobe Illustrator 19.0.0, SVG Export Plug-In . SVG Version: 6.00 Build 0)  -->
<svg version="1.1" id="Layer_1" xmlns="http://www.w3.org/2000/svg" xmlns:xlink="http://www.w3.org/1999/xlink" x="0px" y="0px"
	 viewBox="0 0 141.7 141.7" style="enable-background:new 0 0 141.7 141.7;" xml:space="preserve">
<style type="text/css">
	.st0{fill:#4C983F;}
	.st1{opacity:0.1;fill:#414042;}
	.st2{fill:#FFFFFF;}
</style>
<g id="XMLID_106_">
	<g id="XMLID_5932_">
		<circle id="XMLID_5881_" class="st0" cx="70.9" cy="70.9" r="70.9"/>
		<path id="XMLID_5874_" class="st1" d="M141.7,70.8c0,39.2-31.7,70.9-70.9,70.9V0C110,0,141.7,31.7,141.7,70.8z"/>
	</g>
	<g id="XMLID_221_">
		<path id="XMLID_1222_" class="st2" d="M43.7,60.8c-1.9,0-3.5,1.5-3.5,3.5V81c0,1.9,1.6,3.5,3.5,3.5c1.9,0,3.5-1.6,3.5-3.5V64.2
			C47.2,62.3,45.6,60.8,43.7,60.8z"/>
		<path id="XMLID_1220_" class="st2" d="M98,60.8c-1.9,0-3.5,1.5-3.5,3.5V81c0,1.9,1.6,3.5,3.5,3.5c1.9,0,3.5-1.6,3.5-3.5V64.2
			C101.5,62.3,99.9,60.8,98,60.8z"/>
		<path id="XMLID_976_" class="st2" d="M50.3,60.8c0,0,0,0.1,0,0.1v30.9c0,2.9,2.3,5.2,5.2,5.2H61v8.8c0,1.9,1.6,3.5,3.5,3.5
			c1.9,0,3.5-1.6,3.5-3.5V97h5.9v8.8c0,1.9,1.6,3.5,3.5,3.5c1.9,0,3.5-1.6,3.5-3.5V97h5.6c2.9,0,5.2-2.3,5.2-5.2V60.9
			c0,0,0-0.1,0-0.1H50.3z"/>
		<path id="XMLID_225_" class="st2" d="M81,39.8l3.7-6.9l-0.8-0.4l-3.7,6.9c-2.8-1.4-6-2.2-9.3-2.2c-3.2,0-6.2,0.7-8.9,2l-3.6-6.7
			l-0.8,0.4l3.6,6.7c-6.4,3.5-10.8,10.2-10.8,18h41C91.3,49.9,87.1,43.3,81,39.8z M60.3,49.6c-1.1,0-2-0.9-2-1.9c0-1.1,0.9-2,2-2
			c1.1,0,2,0.9,2,2C62.3,48.7,61.4,49.6,60.3,49.6z M81.1,49.6c-1.1,0-1.9-0.9-1.9-1.9c0-1.1,0.9-2,1.9-2c1.1,0,1.9,0.9,1.9,2
			C83.1,48.7,82.2,49.6,81.1,49.6z"/>
	</g>
</g>
</svg>
