<?xml version="1.0" encoding="utf-8"?>
<!-- Generator: Adobe Illustrator 19.0.0, SVG Export Plug-In . SVG Version: 6.00 Build 0)  -->
<svg version="1.1" id="Layer_1" xmlns="http://www.w3.org/2000/svg" xmlns:xlink="http://www.w3.org/1999/xlink" x="0px" y="0px"
	 viewBox="0 0 141.7 141.7" style="enable-background:new 0 0 141.7 141.7;" xml:space="preserve">
<style type="text/css">
	.st0{fill:#30B14A;}
</style>
<g id="XMLID_14583_">
	<path id="XMLID_14595_" class="st0" d="M21,66.4c3.3,0,6.4-1.3,8.6-3.5L41.9,69c-0.1,0.5-0.2,1-0.2,1.5c0,6.9,5.6,12.4,12.4,12.4
		c6.9,0,12.4-5.6,12.4-12.4c0-1.9-0.5-3.7-1.2-5.3l16.7-16.7c1.6,0.8,3.4,1.2,5.3,1.2c6.9,0,12.4-5.6,12.4-12.4
		c0-1.3-0.3-2.5-0.6-3.7l14.5-10.9c2,1.3,4.3,2.1,6.9,2.1c6.9,0,12.4-5.6,12.4-12.4S127.4,0,120.6,0c-6.9,0-12.4,5.6-12.4,12.4
		c0,1.3,0.3,2.5,0.6,3.7L94.3,27c-2-1.3-4.3-2.1-6.9-2.1c-6.9,0-12.4,5.6-12.4,12.4c0,1.9,0.5,3.7,1.2,5.3L59.5,59.3
		c-1.6-0.8-3.4-1.2-5.3-1.2c-3.3,0-6.4,1.3-8.6,3.5l-12.3-6.1c0.1-0.5,0.2-1,0.2-1.5c0-6.9-5.6-12.4-12.4-12.4
		c-6.9,0-12.4,5.6-12.4,12.4S14.2,66.4,21,66.4L21,66.4z M21,66.4"/>
	<path id="XMLID_14592_" class="st0" d="M137.4,133.3H133V45.6c0-2.3-1.9-4.1-4.1-4.1h-16.6c-2.3,0-4.1,1.9-4.1,4.1v87.7h-8.3V70.5
		c0-2.3-1.9-4.1-4.1-4.1H79.1c-2.3,0-4.1,1.9-4.1,4.1v62.8h-8.3v-29.6c0-2.3-1.9-4.1-4.1-4.1H45.9c-2.3,0-4.1,1.9-4.1,4.1v29.6h-8.3
		V87.1c0-2.3-1.9-4.1-4.1-4.1H12.7c-2.3,0-4.1,1.9-4.1,4.1v46.2H4.1c-2.3,0-4.1,1.9-4.1,4.1c0,2.3,1.9,4.1,4.1,4.1h133.3
		c2.3,0,4.1-1.9,4.1-4.1C141.6,135.2,139.7,133.3,137.4,133.3L137.4,133.3z M137.4,133.3"/>
</g>
</svg>
