<?xml version="1.0" encoding="utf-8"?>
<!-- Generator: Adobe Illustrator 19.0.0, SVG Export Plug-In . SVG Version: 6.00 Build 0)  -->
<svg version="1.1" id="Layer_1" xmlns="http://www.w3.org/2000/svg" xmlns:xlink="http://www.w3.org/1999/xlink" x="0px" y="0px"
	 viewBox="0 0 53.3 55" style="enable-background:new 0 0 53.3 55;" xml:space="preserve">
<style type="text/css">
	.st0{fill:#FFFFFF;}
</style>
<g id="XMLID_14066_">
	<path id="XMLID_14070_" class="st0" d="M8.2,25c1.2,0,2.3-0.5,3.1-1.3l4.4,2.2c0,0.2-0.1,0.4-0.1,0.5c0,2.5,2,4.5,4.5,4.5
		c2.5,0,4.5-2,4.5-4.5c0-0.7-0.2-1.3-0.5-1.9l6-6c0.6,0.3,1.2,0.5,1.9,0.5c2.5,0,4.5-2,4.5-4.5c0-0.5-0.1-0.9-0.2-1.3l5.2-3.9
		c0.7,0.5,1.6,0.8,2.5,0.8c2.5,0,4.5-2,4.5-4.5S46.6,1,44.2,1c-2.5,0-4.5,2-4.5,4.5c0,0.5,0.1,0.9,0.2,1.3l-5.2,3.9
		C34,10.3,33.1,10,32.2,10c-2.5,0-4.5,2-4.5,4.5c0,0.7,0.2,1.3,0.5,1.9l-6,6c-0.6-0.3-1.2-0.5-1.9-0.5c-1.2,0-2.3,0.5-3.1,1.3
		L12.7,21c0-0.2,0.1-0.4,0.1-0.5c0-2.5-2-4.5-4.5-4.5c-2.5,0-4.5,2-4.5,4.5S5.8,25,8.2,25L8.2,25z M8.2,25"/>
	<path id="XMLID_14067_" class="st0" d="M50.3,49.1h-1.6V17.5c0-0.8-0.7-1.5-1.5-1.5h-6c-0.8,0-1.5,0.7-1.5,1.5v31.6h-3V26.5
		c0-0.8-0.7-1.5-1.5-1.5h-6c-0.8,0-1.5,0.7-1.5,1.5v22.7h-3V38.4c0-0.8-0.7-1.5-1.5-1.5h-6c-0.8,0-1.5,0.7-1.5,1.5v10.7h-3V32.4
		c0-0.8-0.7-1.5-1.5-1.5h-6c-0.8,0-1.5,0.7-1.5,1.5v16.7H2.1c-0.8,0-1.5,0.7-1.5,1.5c0,0.8,0.7,1.5,1.5,1.5h48.1
		c0.8,0,1.5-0.7,1.5-1.5C51.8,49.8,51.1,49.1,50.3,49.1L50.3,49.1z M50.3,49.1"/>
</g>
</svg>
