<?xml version="1.0" encoding="utf-8"?>
<!-- Generator: Adobe Illustrator 19.0.0, SVG Export Plug-In . SVG Version: 6.00 Build 0)  -->
<svg version="1.1" id="Layer_1" xmlns="http://www.w3.org/2000/svg" xmlns:xlink="http://www.w3.org/1999/xlink" x="0px" y="0px"
	 viewBox="0 0 141.7 141.7" style="enable-background:new 0 0 141.7 141.7;" xml:space="preserve">
<style type="text/css">
	.st0{fill:#414042;}
</style>
<g id="XMLID_14066_">
	<path id="XMLID_14070_" class="st0" d="M21,66.2c3.3,0,6.4-1.3,8.6-3.5l12.2,6.1c-0.1,0.5-0.2,1-0.2,1.5c0,6.8,5.6,12.4,12.4,12.4
		c6.8,0,12.4-5.6,12.4-12.4c0-1.9-0.5-3.7-1.2-5.3l16.6-16.6c1.6,0.8,3.4,1.2,5.3,1.2c6.8,0,12.4-5.6,12.4-12.4
		c0-1.3-0.3-2.5-0.6-3.7l14.4-10.8c2,1.3,4.3,2.1,6.9,2.1c6.8,0,12.4-5.6,12.4-12.4S127.1,0,120.2,0c-6.8,0-12.4,5.6-12.4,12.4
		c0,1.3,0.3,2.5,0.6,3.7L94,26.9c-2-1.3-4.3-2.1-6.9-2.1c-6.8,0-12.4,5.6-12.4,12.4c0,1.9,0.5,3.7,1.2,5.3L59.4,59.1
		c-1.6-0.8-3.4-1.2-5.3-1.2c-3.3,0-6.4,1.3-8.6,3.5l-12.2-6.1c0.1-0.5,0.2-1,0.2-1.5c0-6.8-5.6-12.4-12.4-12.4
		c-6.8,0-12.4,5.6-12.4,12.4S14.1,66.2,21,66.2L21,66.2z M21,66.2"/>
	<path id="XMLID_14067_" class="st0" d="M137,132.9h-4.4V45.5c0-2.3-1.9-4.1-4.1-4.1h-16.5c-2.3,0-4.1,1.9-4.1,4.1v87.4h-8.3V70.3
		c0-2.3-1.9-4.1-4.1-4.1H78.9c-2.3,0-4.1,1.9-4.1,4.1v62.6h-8.3v-29.5c0-2.3-1.9-4.1-4.1-4.1H45.8c-2.3,0-4.1,1.9-4.1,4.1v29.5h-8.3
		v-46c0-2.3-1.9-4.1-4.1-4.1H12.7c-2.3,0-4.1,1.8-4.1,4.1v46H4.1c-2.3,0-4.1,1.9-4.1,4.1c0,2.3,1.9,4.1,4.1,4.1H137
		c2.3,0,4.1-1.9,4.1-4.1C141.2,134.8,139.3,132.9,137,132.9L137,132.9z M137,132.9"/>
</g>
</svg>
