<?xml version="1.0" encoding="utf-8"?>
<!-- Generator: Adobe Illustrator 19.0.0, SVG Export Plug-In . SVG Version: 6.00 Build 0)  -->
<svg version="1.1" id="Layer_1" xmlns="http://www.w3.org/2000/svg" xmlns:xlink="http://www.w3.org/1999/xlink" x="0px" y="0px"
	 viewBox="0 0 141.7 141.7" style="enable-background:new 0 0 141.7 141.7;" xml:space="preserve">
<style type="text/css">
	.st0{fill:#414042;}
</style>
<g id="XMLID_5435_">
	<path id="XMLID_5437_" class="st0" d="M125.4,141.8L-0.1,16.4c0,0,0-0.1,0-0.2L16.2-0.1c0,0,0.1,0,0.2,0l125.4,125.4
		c0,0,0,0.1,0,0.2l-16.3,16.3C125.5,141.8,125.4,141.8,125.4,141.8z"/>
	<path id="XMLID_5436_" class="st0" d="M-0.1,125.4L125.4-0.1c0,0,0.1,0,0.2,0l16.3,16.3c0,0,0,0.1,0,0.2L16.4,141.8
		c0,0-0.1,0-0.2,0l-16.3-16.3C-0.1,125.5-0.1,125.4-0.1,125.4z"/>
</g>
</svg>
