<?xml version="1.0" encoding="utf-8"?>
<!-- Generator: Adobe Illustrator 19.0.0, SVG Export Plug-In . SVG Version: 6.00 Build 0)  -->
<svg version="1.1" id="Layer_1" xmlns="http://www.w3.org/2000/svg" xmlns:xlink="http://www.w3.org/1999/xlink" x="0px" y="0px"
	 viewBox="0 0 141.7 141.7" style="enable-background:new 0 0 141.7 141.7;" xml:space="preserve">
<style type="text/css">
	.st0{fill:#30B14A;}
	.st1{fill:#FFFFFF;}
</style>
<path id="XMLID_6310_" class="st0" d="M96.6,141.7H45.1C20.2,141.7,0,121.5,0,96.6V45.1C0,20.2,20.2,0,45.1,0h51.5
	c24.9,0,45.1,20.2,45.1,45.1v51.5C141.7,121.5,121.5,141.7,96.6,141.7z"/>
<g id="XMLID_9183_">
	<path id="XMLID_9185_" class="st1" d="M97.5,105.5L36.2,44.2c0,0,0-0.1,0-0.2l7.9-7.9c0,0,0.1,0,0.2,0l61.3,61.3c0,0,0,0.1,0,0.2
		l-7.9,7.9C97.6,105.6,97.5,105.6,97.5,105.5z"/>
	<path id="XMLID_9184_" class="st1" d="M36.2,97.5l61.3-61.3c0,0,0.1,0,0.2,0l7.9,7.9c0,0,0,0.1,0,0.2l-61.3,61.3c0,0-0.1,0-0.2,0
		l-7.9-7.9C36.1,97.6,36.1,97.5,36.2,97.5z"/>
</g>
</svg>
