<?xml version="1.0" encoding="utf-8"?>
<!-- Generator: Adobe Illustrator 19.0.0, SVG Export Plug-In . SVG Version: 6.00 Build 0)  -->
<svg version="1.1" id="Layer_1" xmlns="http://www.w3.org/2000/svg" xmlns:xlink="http://www.w3.org/1999/xlink" x="0px" y="0px"
	 viewBox="0 0 138.6 141.7" style="enable-background:new 0 0 138.6 141.7;" xml:space="preserve">
<style type="text/css">
	.st0{fill:#C2262C;}
</style>
<g id="XMLID_5346_">
	<path id="XMLID_5357_" class="st0" d="M50.1,78.2c0-1.8-1.4-3.2-3.2-3.2H35.6c-1.8,0-3.2,1.4-3.2,3.2v11.2c0,1.8,1.4,3.2,3.2,3.2
		h11.2c1.8,0,3.2-1.4,3.2-3.2V78.2z"/>
	<path id="XMLID_5356_" class="st0" d="M78.1,78.2c0-1.8-1.4-3.2-3.2-3.2H63.7c-1.8,0-3.2,1.4-3.2,3.2v11.2c0,1.8,1.4,3.2,3.2,3.2
		h11.2c1.8,0,3.2-1.4,3.2-3.2V78.2z"/>
	<path id="XMLID_5355_" class="st0" d="M106.2,78.2c0-1.8-1.4-3.2-3.2-3.2H91.7c-1.8,0-3.2,1.4-3.2,3.2v11.2c0,1.8,1.4,3.2,3.2,3.2
		H103c1.8,0,3.2-1.4,3.2-3.2V78.2z"/>
	<path id="XMLID_5354_" class="st0" d="M50.1,106.3c0-1.8-1.4-3.2-3.2-3.2H35.6c-1.8,0-3.2,1.4-3.2,3.2v11.2c0,1.8,1.4,3.2,3.2,3.2
		h11.2c1.8,0,3.2-1.4,3.2-3.2V106.3z"/>
	<path id="XMLID_5353_" class="st0" d="M78.1,106.3c0-1.8-1.4-3.2-3.2-3.2H63.7c-1.8,0-3.2,1.4-3.2,3.2v11.2c0,1.8,1.4,3.2,3.2,3.2
		h11.2c1.8,0,3.2-1.4,3.2-3.2V106.3z"/>
	<path id="XMLID_5352_" class="st0" d="M106.2,106.3c0-1.8-1.4-3.2-3.2-3.2H91.7c-1.8,0-3.2,1.4-3.2,3.2v11.2c0,1.8,1.4,3.2,3.2,3.2
		H103c1.8,0,3.2-1.4,3.2-3.2V106.3z"/>
	<path id="XMLID_5349_" class="st0" d="M126.3,15.8v17.1c0,7.8-6.3,14-14,14h-8.9c-7.8,0-14.1-6.2-14.1-14V15.7H49.3v17.2
		c0,7.8-6.4,14-14.1,14h-8.9c-7.7,0-14-6.2-14-14V15.8C5.6,16,0,21.6,0,28.5v100.5c0,7,5.7,12.8,12.7,12.8h113.2
		c7,0,12.7-5.8,12.7-12.8V28.5C138.6,21.6,133,16,126.3,15.8 M122.1,122.7c0,3-2.5,5.5-5.5,5.5h-95c-3,0-5.5-2.5-5.5-5.5V70.8
		c0-3,2.5-5.5,5.5-5.5h95c3,0,5.5,2.5,5.5,5.5V122.7z"/>
	<path id="XMLID_5348_" class="st0" d="M26.3,37.7h8.8c2.7,0,4.8-2.2,4.8-4.8V4.8c0-2.7-2.2-4.8-4.8-4.8h-8.8
		c-2.7,0-4.8,2.2-4.8,4.8v28.1C21.5,35.6,23.7,37.7,26.3,37.7"/>
	<path id="XMLID_5347_" class="st0" d="M103.3,37.7h8.8c2.7,0,4.8-2.2,4.8-4.8V4.8c0-2.7-2.2-4.8-4.8-4.8h-8.8
		c-2.7,0-4.8,2.2-4.8,4.8v28.1C98.4,35.6,100.6,37.7,103.3,37.7"/>
</g>
</svg>
