<?xml version="1.0" encoding="utf-8"?>
<!-- Generator: Adobe Illustrator 19.0.0, SVG Export Plug-In . SVG Version: 6.00 Build 0)  -->
<svg version="1.1" id="Layer_1" xmlns="http://www.w3.org/2000/svg" xmlns:xlink="http://www.w3.org/1999/xlink" x="0px" y="0px"
	 viewBox="0 0 61.7 55" style="enable-background:new 0 0 61.7 55;" xml:space="preserve">
<style type="text/css">
	.st0{fill:#C2262C;}
</style>
<g id="XMLID_5069_">
	<path id="XMLID_5095_" class="st0" d="M23.4,25.9c-6,0-11-4.9-11-11c0-6,4.9-11,11-11c6,0,11,4.9,11,11
		C34.4,21,29.5,25.9,23.4,25.9L23.4,25.9z M23.4,7.3c-4.2,0-7.7,3.4-7.7,7.7c0,4.2,3.4,7.7,7.7,7.7c4.2,0,7.7-3.4,7.7-7.7
		C31.1,10.7,27.7,7.3,23.4,7.3L23.4,7.3z M23.4,7.3"/>
	<path id="XMLID_5087_" class="st0" d="M41.5,50H5.3c-0.9,0-1.6-0.7-1.6-1.6v-7.7c0-5.7,4.7-10.4,10.4-10.4h18.6
		c5.7,0,10.4,4.7,10.4,10.4v7.7C43.2,49.3,42.4,50,41.5,50L41.5,50z M7,46.7h32.9v-6c0-3.9-3.2-7.1-7.1-7.1H14.1
		c-3.9,0-7.1,3.2-7.1,7.1V46.7z M7,46.7"/>
	<path id="XMLID_5080_" class="st0" d="M54.7,26.4H36c-0.9,0-1.6-0.7-1.6-1.6c0-0.9,0.7-1.6,1.6-1.6h18.6c0.9,0,1.6,0.7,1.6,1.6
		C56.3,25.7,55.6,26.4,54.7,26.4L54.7,26.4z M54.7,26.4"/>
	<path id="XMLID_5074_" class="st0" d="M45.9,35.2c-0.4,0-0.8-0.2-1.2-0.5c-0.6-0.6-0.6-1.7,0-2.3l7.6-7.6l-7.6-7.6
		c-0.6-0.6-0.6-1.7,0-2.3c0.6-0.6,1.7-0.6,2.3,0l8.8,8.8c0.6,0.6,0.6,1.7,0,2.3l-8.8,8.8C46.8,35,46.3,35.2,45.9,35.2L45.9,35.2z
		 M45.9,35.2"/>
	<path id="XMLID_4849_" class="st0" d="M14.4,17.4"/>
</g>
</svg>
