<?xml version="1.0" encoding="utf-8"?>
<!-- Generator: Adobe Illustrator 19.0.0, SVG Export Plug-In . SVG Version: 6.00 Build 0)  -->
<svg version="1.1" id="Layer_1" xmlns="http://www.w3.org/2000/svg" xmlns:xlink="http://www.w3.org/1999/xlink" x="0px" y="0px"
	 viewBox="0 0 141.7 106.4" style="enable-background:new 0 0 141.7 106.4;" xml:space="preserve">
<style type="text/css">
	.st0{fill:#FFFFFF;}
</style>
<g id="XMLID_781_">
	<path id="XMLID_784_" class="st0" d="M109.2,41.4c-17.9,0-32.5,14.6-32.5,32.5s14.6,32.5,32.5,32.5c5.7,0,11.3-1.5,16.2-4.4
		c1.4-0.8,1.9-2.6,1.1-4c-0.8-1.4-2.6-1.9-4-1.1c-4,2.3-8.6,3.6-13.3,3.6c-14.7,0-26.6-11.9-26.6-26.6c0-14.7,11.9-26.6,26.6-26.6
		c14.7,0,26.6,11.9,26.6,26.6v3c0,3.3-2.7,5.9-5.9,5.9c-3.3,0-5.9-2.7-5.9-5.9V65c0-1.6-1.3-3-3-3c-0.8,0-1.5,0.3-2,0.8
		c-2.6-2.3-6-3.8-9.8-3.8c-8.1,0-14.8,6.6-14.8,14.8c0,8.2,6.6,14.8,14.8,14.8c4.4,0,8.3-2,11-5c2.1,3,5.7,5,9.6,5
		c6.5,0,11.8-5.3,11.8-11.8v-3C141.7,56,127.2,41.4,109.2,41.4z M109.2,82.8c-4.9,0-8.9-4-8.9-8.9c0-4.9,4-8.9,8.9-8.9
		c4.9,0,8.9,4,8.9,8.9C118.1,78.8,114.1,82.8,109.2,82.8z"/>
	<path id="XMLID_783_" class="st0" d="M53.5,46.5c0.2,0.1,0.3,0.2,0.5,0.3c0.6,0.3,1.3,0.5,2,0.5c0.7,0,1.5-0.2,2.6-0.9l48.6-39.6
		c0.7-0.6,1.1-1.5,1.1-2.4c0-0.9-0.5-1.8-1.3-2.3c-2-1.4-4.3-2.1-6.7-2.1H11.8C9.4,0,7.1,0.7,5.1,2.1C4.3,2.7,3.8,3.5,3.8,4.4
		c0,0.9,0.4,1.8,1.1,2.4L53.5,46.5z"/>
	<path id="XMLID_782_" class="st0" d="M109.2,35.5c1.6,0,3-1.3,3-3V16.7c0-1.1-0.7-2.2-1.7-2.7c-1-0.5-2.2-0.3-3.1,0.4L62.1,51.3
		l-0.5,0.3c-3.4,2.1-7.6,2.2-11.4-0.3L4.8,14.4c-0.9-0.7-2.1-0.9-3.1-0.4c-1,0.5-1.7,1.5-1.7,2.7V71c0,6.5,5.3,11.8,11.8,11.8h56.6
		c0.9,0,1.7-0.4,2.2-1c0.6-0.6,0.8-1.5,0.7-2.4c-0.3-2.1-0.4-3.8-0.4-5.5C70.9,52.7,88.1,35.5,109.2,35.5z"/>
</g>
</svg>
