<?xml version="1.0" encoding="utf-8"?>
<!-- Generator: Adobe Illustrator 19.0.0, SVG Export Plug-In . SVG Version: 6.00 Build 0)  -->
<svg version="1.1" id="Layer_1" xmlns="http://www.w3.org/2000/svg" xmlns:xlink="http://www.w3.org/1999/xlink" x="0px" y="0px"
	 viewBox="0 0 141.7 141.7" style="enable-background:new 0 0 141.7 141.7;" xml:space="preserve">
<style type="text/css">
	.st0{fill:#30B14A;}
</style>
<g id="XMLID_14351_">
	<path id="XMLID_14522_" class="st0" d="M39.8,18.9l9,13.5c1.8,2.7,1.2,6.3-1.3,8.3l-11.1,8.6c-2.4,1.9-3.1,5.2-1.6,7.9
		C38,63.1,41.1,70,56.4,85.3s22.2,18.4,28.1,21.7c2.7,1.5,6,0.8,7.9-1.6l8.6-11.1c2-2.6,5.6-3.1,8.3-1.3l14,9.3l15.7,10.5
		c2.7,1.8,3.6,5.5,1.9,8.3l-7.4,12.4c-2,3.4-5.2,5.8-8.9,6.9c-12.4,3.4-39.7,4.1-83.4-39.7C-2.7,56.9-2,29.6,1.4,17.2
		c1.1-3.7,3.5-6.9,6.9-8.9l12.4-7.4C23.5-0.8,27.2,0,29,2.8L39.8,18.9z"/>
	<path id="XMLID_14521_" class="st0" d="M124.6,66c-1.3,0-2.4-1.1-2.4-2.4c0-22.9-18.6-41.5-41.5-41.5c-1.3,0-2.4-1.1-2.4-2.4
		c0-1.3,1.1-2.4,2.4-2.4c25.6,0,46.4,20.8,46.4,46.4C127.1,64.9,126,66,124.6,66z"/>
	<path id="XMLID_14507_" class="st0" d="M110,66c-1.3,0-2.4-1.1-2.4-2.4c0-14.8-12-26.9-26.9-26.9c-1.3,0-2.4-1.1-2.4-2.4
		c0-1.3,1.1-2.4,2.4-2.4c17.5,0,31.7,14.2,31.8,31.8C112.4,64.9,111.3,66,110,66z"/>
	<path id="XMLID_14352_" class="st0" d="M95.3,66c-1.3,0-2.4-1.1-2.4-2.4c0-6.7-5.5-12.2-12.2-12.2c-1.3,0-2.4-1.1-2.4-2.4
		c0-1.3,1.1-2.4,2.4-2.4c9.4,0,17.1,7.7,17.1,17.1C97.7,64.9,96.6,66,95.3,66z"/>
</g>
</svg>
