<?xml version="1.0" encoding="utf-8"?>
<!-- Generator: Adobe Illustrator 19.0.0, SVG Export Plug-In . SVG Version: 6.00 Build 0)  -->
<svg version="1.1" id="Layer_1" xmlns="http://www.w3.org/2000/svg" xmlns:xlink="http://www.w3.org/1999/xlink" x="0px" y="0px"
	 viewBox="0 0 141.7 124.1" style="enable-background:new 0 0 141.7 124.1;" xml:space="preserve">
<style type="text/css">
	.st0{fill:#C2262C;}
</style>
<g id="XMLID_5069_">
	<path id="XMLID_5095_" class="st0" d="M53.2,59.1c-16.3,0-29.5-13.3-29.5-29.5C23.6,13.3,36.9,0,53.2,0c16.3,0,29.5,13.3,29.5,29.5
		C82.7,45.8,69.5,59.1,53.2,59.1L53.2,59.1z M53.2,8.9c-11.4,0-20.7,9.3-20.7,20.7c0,11.4,9.3,20.7,20.7,20.7
		c11.4,0,20.7-9.3,20.7-20.7C73.8,18.1,64.6,8.9,53.2,8.9L53.2,8.9z M53.2,8.9"/>
	<path id="XMLID_5087_" class="st0" d="M101.9,124.1H4.4c-2.4,0-4.4-2-4.4-4.4V99c0-15.5,12.6-28.1,28.1-28.1h50.2
		c15.5,0,28.1,12.6,28.1,28.1v20.7C106.3,122.1,104.4,124.1,101.9,124.1L101.9,124.1z M8.9,115.2h88.6V99c0-10.6-8.6-19.2-19.2-19.2
		H28.1C17.5,79.8,8.9,88.4,8.9,99V115.2z M8.9,115.2"/>
	<path id="XMLID_5080_" class="st0" d="M137.4,60.6H87.1c-2.4,0-4.4-2-4.4-4.4c0-2.4,2-4.4,4.4-4.4h50.2c2.4,0,4.4,2,4.4,4.4
		C141.8,58.6,139.8,60.6,137.4,60.6L137.4,60.6z M137.4,60.6"/>
	<path id="XMLID_5074_" class="st0" d="M113.7,84.2c-1.1,0-2.3-0.4-3.1-1.3c-1.7-1.7-1.7-4.5,0-6.3l20.5-20.5l-20.5-20.5
		c-1.7-1.7-1.7-4.5,0-6.3c1.7-1.7,4.5-1.7,6.3,0L140.5,53c1.7,1.7,1.7,4.5,0,6.3l-23.6,23.6C116,83.8,114.9,84.2,113.7,84.2
		L113.7,84.2z M113.7,84.2"/>
	<path id="XMLID_4849_" class="st0" d="M28.8,36.3"/>
</g>
</svg>
