<?xml version="1.0" encoding="utf-8"?>
<!-- Generator: Adobe Illustrator 19.0.0, SVG Export Plug-In . SVG Version: 6.00 Build 0)  -->
<svg version="1.1" id="Layer_1" xmlns="http://www.w3.org/2000/svg" xmlns:xlink="http://www.w3.org/1999/xlink" x="0px" y="0px"
	 viewBox="0 0 141.7 141.7" style="enable-background:new 0 0 141.7 141.7;" xml:space="preserve">
<style type="text/css">
	.st0{fill:#3C3D3B;}
	.st1{opacity:0.1;fill:#414042;}
	.st2{fill:#FFFFFF;}
</style>
<g id="XMLID_1226_">
	<g id="XMLID_5933_">
		<circle id="XMLID_5769_" class="st0" cx="70.9" cy="70.9" r="70.9"/>
		<path id="XMLID_5767_" class="st1" d="M141.7,70.8c0,39.2-31.7,70.9-70.9,70.9V0C110,0,141.7,31.7,141.7,70.8z"/>
	</g>
	<g id="XMLID_224_">
		<path id="XMLID_1228_" class="st2" d="M80.3,48.6c2.2-2.8,3.8-6.6,3.3-10.5c-3.2,0.1-7.2,2.2-9.5,5c-2.1,2.5-3.9,6.4-3.4,10.1
			C74.4,53.5,78.1,51.3,80.3,48.6z"/>
		<path id="XMLID_1227_" class="st2" d="M88.4,72.9c0-2.6,0.6-4.8,1.6-6.6c2-3.8,5.2-5.7,5.4-5.9c-3.8-5.6-9.7-6.4-11.8-6.5
			c-5-0.5-9.8,3-12.3,3c-2.5,0-6.5-2.9-10.6-2.9c-5.5,0.1-10.5,3.2-13.3,8.2c-0.9,1.5-1.5,3.2-1.9,4.9c-2.4,9.5,1.3,21.2,6,28.1
			c2.7,4,5.9,8.4,10.2,8.3c4.1-0.2,5.6-2.7,10.5-2.7c4.9,0,6.3,2.7,10.6,2.6c4.4-0.1,7.2-4.1,9.8-8.1c3.1-4.6,4.4-9.1,4.5-9.3
			C97,86.1,88.5,82.8,88.4,72.9z"/>
	</g>
</g>
</svg>
