<?xml version="1.0" encoding="utf-8"?>
<!-- Generator: Adobe Illustrator 19.0.0, SVG Export Plug-In . SVG Version: 6.00 Build 0)  -->
<svg version="1.1" id="Layer_1" xmlns="http://www.w3.org/2000/svg" xmlns:xlink="http://www.w3.org/1999/xlink" x="0px" y="0px"
	 viewBox="0 0 53.3 55" style="enable-background:new 0 0 53.3 55;" xml:space="preserve">
<style type="text/css">
	.st0{fill:#FFFFFF;}
</style>
<g id="XMLID_4554_">
	<path id="XMLID_4574_" class="st0" d="M43.8,23.2c0.4,0,0.7-0.3,0.7-0.7v0V20c0-0.4-0.3-0.7-0.7-0.7h0H2.7C2.3,19.3,2,19.7,2,20v0
		v19.7c0,0.4,0.3,0.7,0.7,0.7h0h28c0.4,0,0.7-0.3,0.7-0.7c0-0.4-0.3-0.7-0.7-0.7H3.4V20.7h39.7v1.8C43.1,22.9,43.4,23.2,43.8,23.2
		L43.8,23.2z"/>
	<path id="XMLID_4573_" class="st0" d="M5.6,8.8C5.5,8.9,5.4,9,5.3,9.2l-1.6,7.4c-0.1,0.4,0.2,0.8,0.5,0.8s0.8-0.2,0.8-0.5l0,0
		l1.5-6.7l32.2,7.2c0.1,0,0.1,0,0.2,0c0.4,0,0.7-0.3,0.7-0.7c0-0.3-0.2-0.6-0.5-0.7L6.2,8.7C6,8.6,5.8,8.7,5.6,8.8z"/>
	<path id="XMLID_4572_" class="st0" d="M14,8l1.3-2.7l19.1,8c0.4,0.2,0.8,0,0.9-0.4c0.2-0.4,0-0.8-0.4-0.9L15.3,3.8
		c-0.3-0.1-0.7,0-0.9,0.3l-1.6,3.3c-0.2,0.3-0.1,0.8,0.3,1C13.4,8.5,13.8,8.4,14,8C14,8.1,14,8,14,8L14,8z"/>
	<path id="XMLID_4571_" class="st0" d="M36.3,23.3c0-0.4-0.3-0.7-0.7-0.7H29c-0.4,0-0.7,0.3-0.7,0.7c0,0.4,0.3,0.7,0.7,0.7l0,0h6.5
		C35.9,24,36.3,23.7,36.3,23.3z"/>
	<path id="XMLID_4568_" class="st0" d="M22.5,37.1c4,0,7.2-3.2,7.2-7.2c0-4-3.2-7.2-7.2-7.2s-7.2,3.2-7.2,7.2l0,0
		C15.2,33.9,18.5,37.1,22.5,37.1z M22.5,24c3.3,0,5.9,2.7,5.9,5.9c0,3.3-2.7,5.9-5.9,5.9c-3.3,0-5.9-2.7-5.9-5.9
		C16.5,26.6,19.2,24,22.5,24z"/>
	<path id="XMLID_4559_" class="st0" d="M42.2,25c-4.4,0-9,1-9,3.3V48c0,2.3,4.7,3.3,9,3.3s9-1,9-3.3V28.3C51.2,26,46.5,25,42.2,25z
		 M49.6,44.7c-0.1,0.5-2.6,1.7-7.4,1.7s-7.3-1.2-7.4-1.6v-1.3c1.7,0.9,4.6,1.3,7.4,1.3c2.8,0,5.7-0.4,7.4-1.3V44.7z M49.6,41.4
		c-0.1,0.5-2.6,1.7-7.4,1.7s-7.3-1.2-7.4-1.6v-1.3c1.7,0.9,4.6,1.3,7.4,1.3c2.8,0,5.7-0.4,7.4-1.3V41.4z M49.6,38.1
		c-0.1,0.5-2.6,1.7-7.4,1.7s-7.3-1.2-7.4-1.6v-1.3c1.7,0.9,4.6,1.3,7.4,1.3c2.8,0,5.7-0.4,7.4-1.3V38.1z M49.6,34.8
		c-0.1,0.5-2.6,1.7-7.4,1.7s-7.3-1.2-7.4-1.6v-1.3c1.7,0.9,4.6,1.3,7.4,1.3c2.8,0,5.7-0.4,7.4-1.3V34.8z M49.6,31.5
		c-0.1,0.5-2.6,1.7-7.4,1.7s-7.3-1.2-7.4-1.6v-1.3c1.7,0.9,4.6,1.3,7.4,1.3c2.8,0,5.7-0.4,7.4-1.3V31.5z M42.2,26.6
		c4.8,0,7.2,1.2,7.4,1.6c-0.2,0.5-2.6,1.6-7.4,1.6c-4.8,0-7.3-1.2-7.4-1.6v0C34.9,27.8,37.4,26.6,42.2,26.6z M42.2,49.6
		c-4.8,0-7.3-1.2-7.4-1.6v-1.3c1.7,0.9,4.6,1.3,7.4,1.3c2.8,0,5.7-0.4,7.4-1.3V48C49.5,48.4,47,49.6,42.2,49.6z"/>
	<path id="XMLID_4558_" class="st0" d="M10,24h5.9c0.4,0,0.7-0.3,0.7-0.7c0-0.4-0.3-0.7-0.7-0.7H9.7c-0.2,0-0.4,0.1-0.5,0.2
		l-3.7,3.6c-0.1,0.2-0.2,0.4-0.2,0.6v5.8c0,0.2,0.1,0.3,0.2,0.5L8.8,37c0.1,0.1,0.3,0.2,0.5,0.2h6.5c0.4,0,0.7-0.3,0.7-0.7
		s-0.3-0.7-0.7-0.7H9.7l-2.9-3.2v-5.3L10,24z"/>
	<path id="XMLID_4556_" class="st0" d="M22.9,31.1h-2.1c-0.5,0-0.8,0.4-0.8,0.8c0,0.5,0.4,0.8,0.8,0.8h0.8c0,0.5,0.4,0.8,0.8,0.8
		s0.8-0.4,0.8-0.8v0c0.9-0.1,1.6-0.9,1.6-1.8c-0.1-1.1-1-1.9-2.1-1.9H22c-0.3,0-0.4-0.1-0.4-0.2s0.2-0.2,0.4-0.2h2.1
		c0.5,0,0.8-0.4,0.8-0.8S24.6,27,24.1,27h-0.8c0-0.5-0.4-0.8-0.8-0.8s-0.8,0.4-0.8,0.8v0C20.7,27.2,20,28,20,28.9
		c0.1,1.1,1,1.9,2.1,1.9h0.8c0.3,0,0.4,0.1,0.4,0.2S23.1,31.1,22.9,31.1z"/>
</g>
</svg>
