<?xml version="1.0" encoding="utf-8"?>
<!-- Generator: Adobe Illustrator 19.0.0, SVG Export Plug-In . SVG Version: 6.00 Build 0)  -->
<svg version="1.1" id="Layer_1" xmlns="http://www.w3.org/2000/svg" xmlns:xlink="http://www.w3.org/1999/xlink" x="0px" y="0px"
	 viewBox="0 0 141.7 137" style="enable-background:new 0 0 141.7 137;" xml:space="preserve">
<style type="text/css">
	.st0{fill:#FFFFFF;}
</style>
<g id="XMLID_4554_">
	<path id="XMLID_4574_" class="st0" d="M120.4,56.2c1.1,0,2-0.9,2-2v0V47c0-1.1-0.9-2-2-2h0H2c-1.1,0-2,0.9-2,2v0v56.8
		c0,1.1,0.9,2,2,2h0h80.5c1.1,0,2-0.9,2-2c0-1.1-0.9-2-2-2H4.1V49.1h114.3v5.1C118.4,55.3,119.3,56.2,120.4,56.2L120.4,56.2z"/>
	<path id="XMLID_4573_" class="st0" d="M10.4,14.5c-0.5,0.3-0.8,0.7-0.9,1.3L4.8,37.1c-0.2,1.1,0.4,2.2,1.5,2.4s2.2-0.4,2.4-1.5l0,0
		L13,18.7l92.7,20.9c0.1,0,0.3,0.1,0.4,0c1.1,0,2-0.9,2-2c0-0.9-0.7-1.8-1.6-2L11.9,14.3C11.4,14.1,10.9,14.2,10.4,14.5z"/>
	<path id="XMLID_4572_" class="st0" d="M34.6,12.4l3.9-7.8l55.1,22.9c1,0.4,2.2-0.1,2.7-1.1c0.4-1-0.1-2.2-1.1-2.7L38.3,0.2
		c-1-0.4-2.1,0-2.6,1L31,10.6c-0.5,1-0.2,2.2,0.8,2.8c1,0.5,2.2,0.2,2.8-0.8C34.6,12.5,34.6,12.5,34.6,12.4L34.6,12.4z"/>
	<path id="XMLID_4571_" class="st0" d="M98.6,56.5c0-1.1-0.9-2-2-2H77.8c-1.1,0-2,0.9-2,2s0.9,2,2,2l0,0h18.8
		C97.7,58.5,98.6,57.6,98.6,56.5z"/>
	<path id="XMLID_4568_" class="st0" d="M58.9,96.3c11.5,0,20.8-9.3,20.8-20.8c0-11.5-9.3-20.8-20.8-20.8S38,63.9,38,75.4l0,0
		C38,86.9,47.4,96.3,58.9,96.3z M58.9,58.4c9.4,0,17,7.6,17,17s-7.6,17-17,17c-9.4,0-17-7.6-17-17C41.8,66,49.4,58.4,58.9,58.4z"/>
	<path id="XMLID_4559_" class="st0" d="M115.7,61.2c-12.5,0-26,3-26,9.5v56.8c0,6.5,13.5,9.5,26,9.5s26-3,26-9.5V70.7
		C141.7,64.2,128.2,61.2,115.7,61.2z M137,118c-0.4,1.3-7.5,4.8-21.3,4.8s-21-3.5-21.3-4.7v-3.7c5,2.5,13.4,3.7,21.3,3.7
		s16.3-1.2,21.3-3.7V118z M137,108.6c-0.4,1.3-7.5,4.8-21.3,4.8s-21-3.5-21.3-4.7v-3.7c5,2.5,13.4,3.7,21.3,3.7s16.3-1.2,21.3-3.7
		V108.6z M137,99.1c-0.4,1.3-7.5,4.8-21.3,4.8s-21-3.5-21.3-4.7v-3.7c5,2.5,13.4,3.7,21.3,3.7s16.3-1.2,21.3-3.7V99.1z M137,89.6
		c-0.4,1.3-7.5,4.8-21.3,4.8s-21-3.5-21.3-4.7v-3.7c5,2.5,13.4,3.7,21.3,3.7s16.3-1.2,21.3-3.7V89.6z M137,80.1
		c-0.4,1.3-7.5,4.8-21.3,4.8s-21-3.5-21.3-4.7v-3.7c5,2.5,13.4,3.7,21.3,3.7S132,79,137,76.5V80.1z M115.7,66
		c13.7,0,20.8,3.4,21.3,4.7c-0.5,1.3-7.6,4.7-21.3,4.7c-13.8,0-20.9-3.4-21.3-4.7v0C94.8,69.4,101.9,66,115.7,66z M115.7,132.3
		c-13.9,0-21-3.5-21.3-4.7v-3.7c5,2.5,13.4,3.7,21.3,3.7s16.3-1.2,21.3-3.7v3.7C136.6,128.8,129.5,132.3,115.7,132.3z"/>
	<path id="XMLID_4558_" class="st0" d="M22.9,58.5h17c1.1,0,2-0.9,2-2s-0.9-2-2-2H22.1c-0.5,0-1,0.2-1.4,0.6L10.1,65.4
		c-0.4,0.5-0.6,1-0.6,1.7v16.8c0,0.5,0.2,1,0.5,1.4l9.6,10.5c0.4,0.4,0.9,0.7,1.5,0.7h18.8c1.1,0,2-0.9,2-2c0-1.1-0.9-2-2-2H22
		l-8.5-9.3V67.7L22.9,58.5z"/>
	<path id="XMLID_4556_" class="st0" d="M60,79h-5.9c-1.3,0-2.4,1.1-2.4,2.4s1.1,2.4,2.4,2.4h2.4c0,1.3,1.1,2.4,2.4,2.4
		c1.3,0,2.4-1.1,2.4-2.4v-0.1c2.6-0.4,4.6-2.6,4.7-5.2c-0.2-3.1-2.8-5.5-5.9-5.3h-2.4c-0.7,0-1.2-0.4-1.2-0.6s0.4-0.6,1.2-0.6h5.9
		c1.3,0,2.4-1.1,2.4-2.4c0-1.3-1.1-2.4-2.4-2.4h-2.4c0-1.3-1.1-2.4-2.4-2.4c-1.3,0-2.4,1.1-2.4,2.4v0.1c-2.6,0.4-4.6,2.6-4.7,5.2
		c0.2,3.1,2.8,5.5,5.9,5.3H60c0.7,0,1.2,0.4,1.2,0.6S60.8,79,60,79z"/>
</g>
</svg>
