<?xml version="1.0" encoding="utf-8"?>
<!-- Generator: Adobe Illustrator 19.0.0, SVG Export Plug-In . SVG Version: 6.00 Build 0)  -->
<svg version="1.1" id="Layer_1" xmlns="http://www.w3.org/2000/svg" xmlns:xlink="http://www.w3.org/1999/xlink" x="0px" y="0px"
	 viewBox="0 0 112.5 141.7" style="enable-background:new 0 0 112.5 141.7;" xml:space="preserve">
<style type="text/css">
	.st0{fill:#FFFFFF;}
</style>
<g id="XMLID_14380_">
	<path id="XMLID_14386_" class="st0" d="M76.7,56.2c0,11.3-9.2,20.5-20.5,20.5c-11.3,0-20.5-9.2-20.5-20.5
		c0-11.3,9.2-20.5,20.5-20.5C67.5,35.8,76.7,45,76.7,56.2L76.7,56.2z M76.7,56.2"/>
	<path id="XMLID_14382_" class="st0" d="M56.3,141.8c12.2-9.9,56.2-48.3,56.2-85.5C112.5,25.2,87.3,0,56.3,0C25.2,0,0,25.2,0,56.2
		C0,93.5,44.1,131.9,56.3,141.8L56.3,141.8z M56.3,25.6c12.4,0,23.6,7.5,28.3,18.9c4.8,11.5,2.1,24.7-6.6,33.4
		c-8.8,8.8-22,11.4-33.4,6.7C33,79.8,25.6,68.7,25.6,56.2C25.6,39.3,39.3,25.6,56.3,25.6L56.3,25.6z M56.3,25.6"/>
	<path id="XMLID_14381_" class="st0" d="M56.2,119.8"/>
</g>
</svg>
