<?xml version="1.0" encoding="utf-8"?>
<!-- Generator: Adobe Illustrator 19.0.0, SVG Export Plug-In . SVG Version: 6.00 Build 0)  -->
<svg version="1.1" id="Layer_1" xmlns="http://www.w3.org/2000/svg" xmlns:xlink="http://www.w3.org/1999/xlink" x="0px" y="0px"
	 viewBox="0 0 141.7 141.7" style="enable-background:new 0 0 141.7 141.7;" xml:space="preserve">
<style type="text/css">
	.st0{fill:#30B14A;}
</style>
<g id="XMLID_11512_">
	<path id="XMLID_11531_" class="st0" d="M0.4,67.2c-0.6-1.4-0.6-3.1,0-4.5c0.3-0.7,0.7-1.4,1.3-1.9l17.7-17.7c2.3-2.3,6-2.3,8.3,0
		c2.3,2.3,2.3,6,0,8.4l-7.6,7.6h33c3.3,0,5.9,2.6,5.9,5.9c0,3.3-2.6,5.9-5.9,5.9h-33l7.6,7.6c2.3,2.3,2.3,6,0,8.4
		c-1.2,1.2-2.7,1.7-4.2,1.7c-1.5,0-3-0.6-4.2-1.7L1.7,69.1C1.2,68.6,0.7,67.9,0.4,67.2"/>
	<path id="XMLID_11529_" class="st0" d="M41.3,82.7c3.3,0,5.9,2.6,5.9,5.9v29.5h23.6V23.6c0-2.6,1.7-4.9,4.2-5.7l20.5-6.1H47.2v29.5
		c0,3.3-2.6,5.9-5.9,5.9c-3.3,0-5.9-2.6-5.9-5.9V5.9c0-3.3,2.6-5.9,5.9-5.9l94.5,0c0.2,0,0.4,0.1,0.6,0.1c0.3,0,0.5,0.1,0.8,0.1
		c0.6,0.2,1.2,0.4,1.7,0.7c0.1,0.1,0.3,0.1,0.4,0.2c0.1,0,0.1,0.1,0.1,0.1c0.6,0.5,1.2,1.1,1.6,1.9c0.1,0.2,0.1,0.3,0.2,0.5
		c0.2,0.4,0.4,0.9,0.5,1.4c0,0.2,0,0.3,0,0.5c0,0.1,0.1,0.2,0.1,0.3V124c0,2.8-2,5.2-4.7,5.8l-59.1,11.8c-0.4,0.1-0.8,0.1-1.2,0.1
		c-1.3,0-2.7-0.5-3.7-1.3c-1.4-1.1-2.2-2.8-2.2-4.6v-5.9H41.3c-3.3,0-5.9-2.6-5.9-5.9V88.6C35.4,85.3,38.1,82.7,41.3,82.7"/>
</g>
</svg>
