<?xml version="1.0" encoding="utf-8"?>
<!-- Generator: Adobe Illustrator 19.0.0, SVG Export Plug-In . SVG Version: 6.00 Build 0)  -->
<svg version="1.1" id="Layer_1" xmlns="http://www.w3.org/2000/svg" xmlns:xlink="http://www.w3.org/1999/xlink" x="0px" y="0px"
	 viewBox="0 0 61.7 14.9" style="enable-background:new 0 0 61.7 14.9;" xml:space="preserve">
<style type="text/css">
	.st0{fill-rule:evenodd;clip-rule:evenodd;fill:#FFFFFF;}
</style>
<g id="XMLID_796_">
	<path id="XMLID_833_" class="st0" d="M59.5,10.8c-0.2,0-0.3,0-0.5,0c-0.4,0-0.7-0.1-1-0.2c-0.3-0.1-0.6-0.3-0.8-0.5
		c-0.2-0.2-0.4-0.5-0.5-0.8c-0.1-0.3-0.2-0.7-0.2-1.1v-2h-0.6V4.5h0.6v-2h1.9v2h1.1v1.7h-1.1v2c0,0.3,0.1,0.5,0.2,0.7
		C58.6,9,58.8,9.1,59,9.1c0.2,0,0.4-0.1,0.5-0.2V10.8L59.5,10.8z"/>
	<path id="XMLID_830_" class="st0" d="M50.8,8.1L50.8,8.1c0.1,0.4,0.2,0.6,0.5,0.8c0.2,0.2,0.5,0.3,0.9,0.3c0.3,0,0.5,0,0.7-0.1
		C53,9,53.2,8.9,53.3,8.8l1.1,1.3c-0.1,0.1-0.1,0.1-0.2,0.2c-0.5,0.4-1.2,0.6-2,0.6c-0.5,0-0.9-0.1-1.3-0.2c-0.4-0.2-0.8-0.4-1-0.7
		c-0.3-0.3-0.5-0.6-0.7-1c-0.2-0.4-0.2-0.8-0.2-1.3c0-0.5,0.1-0.9,0.2-1.3c0.2-0.4,0.4-0.7,0.7-1c0.3-0.3,0.6-0.5,1-0.7
		c0.4-0.2,0.9-0.2,1.3-0.2c0.5,0,0.9,0.1,1.3,0.2c0.4,0.2,0.8,0.4,1,0.7c0.3,0.3,0.5,0.6,0.7,1c0.2,0.4,0.2,0.8,0.2,1.3v0.5H50.8
		L50.8,8.1z M52.2,6c-0.3,0-0.6,0.1-0.8,0.2c-0.2,0.1-0.4,0.4-0.5,0.7v0h2.7v0c-0.1-0.3-0.3-0.5-0.5-0.7C52.8,6.1,52.5,6,52.2,6
		L52.2,6z"/>
	<polygon id="XMLID_829_" class="st0" points="43.7,9 43.7,10.7 41.8,10.7 41.8,9 43.7,9 	"/>
	<path id="XMLID_828_" class="st0" d="M46,8.6V7.5c0-0.5-0.1-0.8-0.3-1.1c-0.2-0.2-0.5-0.3-0.8-0.3c-0.3,0-0.6,0.1-0.8,0.3
		c-0.2,0.2-0.3,0.6-0.3,1.1v1.1h-1.9V7.5c0-0.5,0.1-1,0.2-1.4c0.1-0.4,0.4-0.7,0.6-1c0.3-0.3,0.6-0.5,1-0.6c0.4-0.1,0.8-0.2,1.2-0.2
		c0.5,0,0.9,0.1,1.2,0.2c0.4,0.1,0.7,0.3,1,0.6c0.3,0.3,0.5,0.6,0.6,1c0.1,0.4,0.2,0.8,0.2,1.4v1.1H46L46,8.6z"/>
	<polygon id="XMLID_827_" class="st0" points="46,10.7 46,9 47.9,9 47.9,10.7 46,10.7 	"/>
	<path id="XMLID_824_" class="st0" d="M38.7,9.9L38.7,9.9c-0.2,0.2-0.4,0.4-0.7,0.6c-0.3,0.1-0.6,0.2-1,0.2c-0.3,0-0.7-0.1-1-0.2
		c-0.3-0.1-0.7-0.3-1-0.5c-0.3-0.2-0.5-0.6-0.7-1C34.1,8.7,34,8.2,34,7.6c0-0.5,0.1-0.9,0.2-1.3c0.2-0.4,0.4-0.7,0.7-1
		c0.3-0.3,0.6-0.5,1-0.7c0.4-0.2,0.9-0.2,1.3-0.2c0.5,0,0.9,0.1,1.3,0.2c0.4,0.2,0.8,0.4,1,0.7c0.3,0.3,0.5,0.6,0.7,1
		c0.2,0.4,0.2,0.9,0.2,1.4v2.5c0,0.6-0.1,1.1-0.3,1.5c-0.2,0.4-0.4,0.7-0.7,1c-0.3,0.3-0.6,0.5-1,0.6c-0.4,0.1-0.8,0.2-1.3,0.2
		c-0.8,0-1.5-0.2-2-0.5c-0.6-0.4-0.9-0.9-1.1-1.7H36c0.1,0.2,0.2,0.3,0.5,0.4c0.2,0.1,0.5,0.1,0.8,0.1c0.5,0,0.8-0.1,1-0.3
		c0.2-0.2,0.4-0.6,0.4-1.2V9.9L38.7,9.9z M38.7,7.6c0-0.4-0.1-0.8-0.4-1.1c-0.3-0.3-0.6-0.4-1-0.4c-0.4,0-0.8,0.1-1,0.4
		c-0.3,0.3-0.4,0.6-0.4,1.1c0,0.4,0.1,0.8,0.4,1c0.3,0.2,0.6,0.4,1,0.4c0.4,0,0.8-0.1,1-0.4C38.6,8.4,38.7,8,38.7,7.6L38.7,7.6z"/>
	<path id="XMLID_821_" class="st0" d="M33,10.7h-1.7v-1h0c-0.1,0.3-0.4,0.6-0.7,0.8c-0.3,0.2-0.7,0.3-1.2,0.3c-0.3,0-0.7-0.1-1-0.2
		c-0.3-0.1-0.7-0.3-1-0.6c-0.3-0.3-0.5-0.6-0.7-1c-0.2-0.4-0.3-0.9-0.3-1.5c0-0.5,0.1-0.9,0.2-1.3c0.2-0.4,0.4-0.7,0.7-1
		c0.3-0.3,0.6-0.5,1-0.7c0.4-0.2,0.9-0.2,1.3-0.2c0.5,0,0.9,0.1,1.3,0.2c0.4,0.2,0.8,0.4,1,0.7c0.3,0.3,0.5,0.6,0.7,1
		C32.9,6.7,33,7.2,33,7.7V10.7L33,10.7z M29.7,9.1c0.4,0,0.8-0.1,1-0.4C31,8.4,31.1,8,31.1,7.6c0-0.4-0.1-0.8-0.4-1.1
		c-0.3-0.3-0.6-0.4-1-0.4s-0.8,0.1-1,0.4c-0.3,0.3-0.4,0.6-0.4,1.1c0,0.4,0.1,0.8,0.4,1.1C28.9,9,29.3,9.1,29.7,9.1L29.7,9.1z"/>
	<path id="XMLID_803_" class="st0" d="M19.8,10.7V7.2c0-0.4-0.1-0.7-0.3-0.9c-0.2-0.2-0.4-0.2-0.7-0.2c-0.3,0-0.5,0.1-0.7,0.2
		c-0.2,0.2-0.3,0.5-0.3,0.9v3.5H16V7.2c0-0.5,0.1-0.9,0.2-1.3c0.1-0.4,0.3-0.7,0.6-0.9c0.2-0.2,0.5-0.4,0.8-0.5
		c0.3-0.1,0.7-0.2,1-0.2c0.4,0,0.8,0.1,1.2,0.2c0.3,0.2,0.6,0.4,0.9,0.7h0c0.5-0.6,1.2-1,2.1-1c0.4,0,0.7,0.1,1,0.2
		c0.3,0.1,0.6,0.3,0.8,0.5c0.2,0.2,0.4,0.5,0.6,0.9c0.1,0.4,0.2,0.8,0.2,1.3v3.5h-1.9V7.2c0-0.4-0.1-0.7-0.3-0.9
		c-0.2-0.2-0.4-0.2-0.7-0.2c-0.3,0-0.5,0.1-0.7,0.2c-0.2,0.2-0.3,0.5-0.3,0.9v3.5H19.8L19.8,10.7z"/>
	<path id="XMLID_802_" class="st0" d="M2.4,7.1v1.2c0,2.8,2.3,5.2,5.1,5.2c2.8,0,5.1-2.3,5.1-5.2V5.6H10v2.7c0,1.4-1.1,2.5-2.5,2.5
		S5.1,9.7,5.1,8.3V7.1H2.4L2.4,7.1z"/>
	<polygon id="XMLID_801_" class="st0" points="2.4,6.6 2.4,4 5.1,4 5.1,6.6 2.4,6.6 	"/>
	<polygon id="XMLID_800_" class="st0" points="6.2,5.7 6.2,3.1 8.8,3.1 8.8,5.7 6.2,5.7 	"/>
	<polygon id="XMLID_799_" class="st0" points="10,5 10,2.4 12.7,2.4 12.7,5 10,5 	"/>
	<polygon id="XMLID_798_" class="st0" points="2.4,6.6 2.4,4 5.1,4 5.1,6.6 2.4,6.6 	"/>
	<polygon id="XMLID_797_" class="st0" points="6.2,5.7 6.2,3.1 8.8,3.1 8.8,5.7 6.2,5.7 	"/>
</g>
</svg>
