<?xml version="1.0" encoding="utf-8"?>
<!-- Generator: Adobe Illustrator 19.0.0, SVG Export Plug-In . SVG Version: 6.00 Build 0)  -->
<svg version="1.1" id="Layer_1" xmlns="http://www.w3.org/2000/svg" xmlns:xlink="http://www.w3.org/1999/xlink" x="0px" y="0px"
	 viewBox="0 0 141.7 27.5" style="enable-background:new 0 0 141.7 27.5;" xml:space="preserve">
<style type="text/css">
	.st0{fill-rule:evenodd;clip-rule:evenodd;fill:#231F20;}
	.st1{fill-rule:evenodd;clip-rule:evenodd;fill:#BE272D;}
	.st2{fill-rule:evenodd;clip-rule:evenodd;fill:#C1262C;}
	.st3{fill-rule:evenodd;clip-rule:evenodd;fill:#30B04A;}
</style>
<g id="XMLID_9442_">
	<path id="XMLID_13081_" class="st0" d="M141.7,20.9c-0.4,0-0.8,0.1-1.2,0.1c-0.9,0-1.8-0.1-2.6-0.4c-0.8-0.3-1.5-0.7-2-1.2
		c-0.6-0.5-1-1.2-1.3-2c-0.3-0.8-0.5-1.8-0.5-2.8V9.4h-1.5V5.3h1.5V0.4h4.6v4.9h2.6v4.2h-2.6v5.1c0,0.8,0.2,1.4,0.5,1.7
		c0.3,0.3,0.8,0.4,1.3,0.4c0.5,0,0.9-0.1,1.2-0.4V20.9L141.7,20.9z"/>
	<path id="XMLID_13100_" class="st0" d="M120.2,14.2L120.2,14.2c0.2,0.9,0.6,1.5,1.2,2c0.6,0.4,1.3,0.6,2.2,0.6
		c0.7,0,1.2-0.1,1.7-0.2c0.4-0.1,0.7-0.3,1-0.6l2.7,3.2c-0.2,0.1-0.3,0.3-0.5,0.4c-1.4,1-3,1.4-4.9,1.4c-1.2,0-2.3-0.2-3.3-0.6
		c-1-0.4-1.9-1-2.6-1.7c-0.7-0.7-1.3-1.6-1.7-2.6c-0.4-1-0.6-2.1-0.6-3.2c0-1.2,0.2-2.2,0.6-3.2c0.4-1,1-1.8,1.7-2.6
		c0.7-0.7,1.6-1.3,2.6-1.7c1-0.4,2.1-0.6,3.3-0.6c1.2,0,2.3,0.2,3.3,0.6c1,0.4,1.9,1,2.6,1.7c0.7,0.7,1.3,1.6,1.7,2.6
		c0.4,1,0.6,2.1,0.6,3.2v1.3H120.2L120.2,14.2z M123.6,9c-0.8,0-1.5,0.2-2.1,0.6c-0.6,0.4-1,0.9-1.2,1.6v0.1h6.7v-0.1
		c-0.3-0.7-0.7-1.3-1.3-1.6C125.1,9.2,124.4,9,123.6,9L123.6,9z"/>
	<polygon id="XMLID_13078_" class="st0" points="102.5,16.4 102.5,20.6 97.8,20.6 97.8,16.4 102.5,16.4 	"/>
	<path id="XMLID_13077_" class="st1" d="M108.3,15.4v-2.8c0-1.2-0.3-2.1-0.8-2.6c-0.5-0.5-1.2-0.8-2.1-0.8c-0.9,0-1.6,0.3-2.1,0.8
		c-0.5,0.5-0.8,1.4-0.8,2.6v2.8h-4.6v-2.8c0-1.3,0.2-2.4,0.5-3.4c0.4-1,0.9-1.8,1.5-2.4c0.7-0.6,1.5-1.1,2.4-1.5
		c0.9-0.3,2-0.5,3.1-0.5c1.1,0,2.2,0.2,3.1,0.5c0.9,0.3,1.7,0.8,2.4,1.5c0.7,0.7,1.2,1.5,1.5,2.4c0.4,1,0.5,2.1,0.5,3.4v2.8H108.3
		L108.3,15.4z"/>
	<polygon id="XMLID_13076_" class="st0" points="108.3,20.6 108.3,16.4 112.9,16.4 112.9,20.6 108.3,20.6 	"/>
	<path id="XMLID_13094_" class="st0" d="M90.1,18.7L90.1,18.7c-0.5,0.6-1.1,1.1-1.9,1.5c-0.7,0.4-1.6,0.5-2.6,0.5
		c-0.8,0-1.6-0.1-2.5-0.4c-0.9-0.3-1.7-0.7-2.4-1.3c-0.7-0.6-1.3-1.4-1.8-2.4c-0.5-1-0.7-2.2-0.7-3.6c0-1.2,0.2-2.2,0.6-3.2
		c0.4-1,1-1.8,1.7-2.6c0.7-0.7,1.6-1.3,2.6-1.7c1-0.4,2.1-0.6,3.3-0.6c1.2,0,2.3,0.2,3.3,0.6c1,0.4,1.9,0.9,2.6,1.6
		c0.7,0.7,1.3,1.6,1.7,2.6c0.4,1,0.6,2.1,0.6,3.4v6.3c0,1.5-0.2,2.7-0.7,3.7c-0.4,1-1,1.9-1.7,2.5c-0.7,0.6-1.6,1.1-2.6,1.4
		c-1,0.3-2,0.4-3.1,0.4c-2,0-3.6-0.4-5-1.3c-1.4-0.9-2.3-2.3-2.8-4.1h4.7c0.2,0.5,0.6,0.8,1.1,1.1c0.5,0.2,1.2,0.4,2,0.4
		c1.1,0,2-0.3,2.6-0.9c0.6-0.6,0.9-1.6,0.9-3.1V18.7L90.1,18.7z M90.1,12.9c0-1.1-0.3-2-1-2.7c-0.7-0.7-1.5-1-2.6-1
		c-1.1,0-1.9,0.3-2.6,1c-0.6,0.7-1,1.6-1,2.7c0,1.1,0.3,2,1,2.6c0.7,0.6,1.5,0.9,2.6,0.9c1.1,0,1.9-0.3,2.6-0.9
		C89.8,14.9,90.1,14,90.1,12.9L90.1,12.9z"/>
	<path id="XMLID_13091_" class="st0" d="M76,20.6h-4.3v-2.4h-0.1c-0.4,0.8-1,1.5-1.8,2C69,20.7,68,21,66.9,21
		c-0.8,0-1.6-0.2-2.5-0.5c-0.9-0.3-1.7-0.8-2.4-1.4c-0.7-0.7-1.3-1.5-1.8-2.5c-0.5-1-0.7-2.2-0.7-3.7c0-1.2,0.2-2.2,0.6-3.2
		c0.4-1,1-1.8,1.7-2.6c0.7-0.7,1.6-1.3,2.6-1.7c1-0.4,2.1-0.6,3.3-0.6c1.2,0,2.3,0.2,3.3,0.6c1,0.4,1.9,0.9,2.6,1.6
		c0.7,0.7,1.3,1.6,1.7,2.6c0.4,1,0.6,2.1,0.6,3.4V20.6L76,20.6z M67.8,16.6c1.1,0,1.9-0.3,2.6-1c0.7-0.7,1-1.6,1-2.7
		c0-1.1-0.3-2-1-2.7c-0.6-0.7-1.5-1-2.6-1s-1.9,0.3-2.6,1c-0.7,0.7-1,1.6-1,2.7c0,1.1,0.3,2,1,2.7C65.9,16.3,66.7,16.6,67.8,16.6
		L67.8,16.6z"/>
	<path id="XMLID_13071_" class="st0" d="M43.1,20.6V12c0-1-0.2-1.7-0.7-2.2c-0.4-0.4-1-0.6-1.7-0.6c-0.7,0-1.3,0.2-1.7,0.6
		c-0.4,0.4-0.7,1.1-0.7,2.2v8.6h-4.6V12c0-1.2,0.2-2.3,0.5-3.2c0.3-0.9,0.8-1.6,1.4-2.2c0.6-0.6,1.3-1,2.1-1.3
		c0.8-0.3,1.7-0.4,2.6-0.4c1.1,0,2.1,0.2,2.9,0.6c0.9,0.4,1.6,1,2.2,1.8h0.1c1.2-1.6,2.9-2.4,5.1-2.4c0.9,0,1.8,0.1,2.6,0.4
		C54,5.6,54.7,6,55.2,6.6c0.6,0.6,1.1,1.3,1.4,2.2c0.3,0.9,0.5,1.9,0.5,3.2v8.6h-4.6V12c0-1-0.2-1.7-0.7-2.2c-0.4-0.4-1-0.6-1.7-0.6
		c-0.7,0-1.2,0.2-1.7,0.6c-0.4,0.4-0.7,1.1-0.7,2.2v8.6H43.1L43.1,20.6z"/>
	<path id="XMLID_13070_" class="st2" d="M0,11.8v2.9c0,7,5.7,12.8,12.8,12.8c7,0,12.8-5.7,12.8-12.8V8h-6.6v6.7
		c0,3.4-2.8,6.2-6.2,6.2s-6.2-2.8-6.2-6.2v-2.9H0L0,11.8z"/>
	<polygon id="XMLID_13069_" class="st3" points="0,10.4 0,4 6.6,4 6.6,10.4 0,10.4 	"/>
	<polygon id="XMLID_13062_" class="st3" points="9.4,8.2 9.4,1.7 16,1.7 16,8.2 9.4,8.2 	"/>
	<polygon id="XMLID_13039_" class="st3" points="18.9,6.4 18.9,0 25.5,0 25.5,6.4 18.9,6.4 	"/>
	<polygon id="XMLID_13034_" class="st3" points="0,10.4 0,4 6.6,4 6.6,10.4 0,10.4 	"/>
	<polygon id="XMLID_171_" class="st3" points="9.4,8.2 9.4,1.7 16,1.7 16,8.2 9.4,8.2 	"/>
</g>
</svg>
