<?xml version="1.0" encoding="utf-8"?>
<!-- Generator: Adobe Illustrator 19.0.0, SVG Export Plug-In . SVG Version: 6.00 Build 0)  -->
<svg version="1.1" id="Layer_1" xmlns="http://www.w3.org/2000/svg" xmlns:xlink="http://www.w3.org/1999/xlink" x="0px" y="0px"
	 viewBox="0 0 137.5 124.1" style="enable-background:new 0 0 137.5 124.1;" xml:space="preserve">
<style type="text/css">
	.st0{fill:#C2262C;}
</style>
<g id="XMLID_5103_">
	<path id="XMLID_5124_" class="st0" d="M116,81.1H21.5C9.6,81.1,0,90.7,0,102.6s9.6,21.5,21.5,21.5H116c11.8,0,21.5-9.6,21.5-21.5
		S127.9,81.1,116,81.1L116,81.1z M116,116H21.5c-7.4,0-13.4-6-13.4-13.4s6-13.4,13.4-13.4H116c7.4,0,13.4,6,13.4,13.4
		S123.4,116,116,116L116,116z M116,116"/>
	<path id="XMLID_5121_" class="st0" d="M62,102.6c0,3.7-3,6.7-6.7,6.7c-3.7,0-6.7-3-6.7-6.7c0-3.7,3-6.7,6.7-6.7
		C59,95.9,62,98.9,62,102.6L62,102.6z M62,102.6"/>
	<path id="XMLID_5118_" class="st0" d="M88.9,102.6c0,3.7-3,6.7-6.7,6.7s-6.7-3-6.7-6.7c0-3.7,3-6.7,6.7-6.7S88.9,98.9,88.9,102.6
		L88.9,102.6z M88.9,102.6"/>
	<path id="XMLID_5115_" class="st0" d="M115.8,102.6c0,3.7-3,6.7-6.7,6.7c-3.7,0-6.7-3-6.7-6.7c0-3.7,3-6.7,6.7-6.7
		C112.7,95.9,115.8,98.9,115.8,102.6L115.8,102.6z M115.8,102.6"/>
	<path id="XMLID_5112_" class="st0" d="M35.2,102.6c0,3.7-3,6.7-6.7,6.7s-6.7-3-6.7-6.7c0-3.7,3-6.7,6.7-6.7S35.2,98.9,35.2,102.6
		L35.2,102.6z M35.2,102.6"/>
	<path id="XMLID_5107_" class="st0" d="M94.3,27.4h-5.4v-7.3C88.9,9,79.9,0,68.8,0S48.6,9,48.6,20.1v7.3h-5.4c-2.2,0-4,1.8-4,4v32
		c0,2.2,1.8,4,4,4h51c2.2,0,4-1.8,4-4v-32C98.3,29.2,96.5,27.4,94.3,27.4L94.3,27.4z M56.7,20.1c0-6.7,5.4-12.1,12.1-12.1
		c6.7,0,12.1,5.4,12.1,12.1v7.3H56.7V20.1z M90.2,59.4h-43V35.5c0.4,0,42.6,0,43,0V59.4z M90.2,59.4"/>
	<path id="XMLID_5104_" class="st0" d="M71.4,40.8h-5.4c-2.2,0-4,1.8-4,4c0,1.8,1.1,3.2,2.7,3.8v1.6c0,2.2,1.8,4,4,4s4-1.8,4-4v-1.6
		c1.6-0.6,2.7-2,2.7-3.8C75.5,42.6,73.7,40.8,71.4,40.8L71.4,40.8z M71.4,40.8"/>
</g>
</svg>
