<?xml version="1.0" encoding="utf-8"?>
<!-- Generator: Adobe Illustrator 19.0.0, SVG Export Plug-In . SVG Version: 6.00 Build 0)  -->
<svg version="1.1" id="Layer_1" xmlns="http://www.w3.org/2000/svg" xmlns:xlink="http://www.w3.org/1999/xlink" x="0px" y="0px"
	 viewBox="0 0 88.8 141.7" style="enable-background:new 0 0 88.8 141.7;" xml:space="preserve">
<style type="text/css">
	.st0{fill:#30B14A;}
</style>
<g id="XMLID_14742_">
	<path id="XMLID_14747_" class="st0" d="M85.3,78.9c-1.6-1.2-18.2-19.7-22.7-22.3V8.8c0-4.9-3.9-8.8-8.8-8.8H8.8C3.9,0.1,0,4,0,8.8
		v83.7c0,4.9,3.9,8.8,8.8,8.8h19.7l-0.8-6.9c-0.3-0.2-0.4-0.4-0.7-0.6h-8.7c0.3-1.2,0.4-2.4,0.1-3.7c-0.6-3.6-3.5-6.5-7.1-7.2
		c-1.3-0.3-2.6-0.2-3.8,0.1V17.8C8,17.9,8.5,18,9.1,18C14,18,18,14,18,9.1c0-0.5-0.1-1-0.1-1.6h27c-0.1,0.5-0.1,1-0.1,1.6
		c0,4.9,4,8.9,8.9,8.9c0.5,0,1.1-0.1,1.6-0.1v81.9c-3.1-2.3-6.5-9.3-6.5-9.3S47,71.6,37.5,71.6c-0.3,0-0.5,0-0.8,0
		c0,0-7.2,0.6-1.2,21.2l2.7,22.9c0,0,3,12.4,11.2,21v2.5c0,1.4,1.1,2.5,2.5,2.5h26.8c1.3,0,2.3-1,2.5-2.2c1-8.9,4.7-42,6.8-47.1
		c0.3-0.8,0.6-1.6,0.8-2.5C89.1,87.2,89.2,82,85.3,78.9"/>
	<path id="XMLID_14746_" class="st0" d="M37.6,23.3c0,2.9-2.4,5.3-5.3,5.3c-2.9,0-5.3-2.4-5.3-5.3c0-2.9,2.4-5.3,5.3-5.3
		C35.2,18,37.6,20.3,37.6,23.3"/>
	<path id="XMLID_14743_" class="st0" d="M12.1,51.3c0,9.2,6.4,16.8,15,18.8c0.3-0.5,0.5-0.9,0.8-1.4c2.8-4.1,6.7-4.9,8-5
		c0.5-0.1,1-0.1,1.6-0.1c1.9,0,4.4,0.3,7,1.7c3.7-3.5,6.1-8.5,6.1-14c0-10.6-8.6-19.2-19.2-19.2C20.7,32,12.1,40.7,12.1,51.3
		 M19.8,49.6c1.2,0,1.2,0,1.4-1.2c0.1-0.9,0.4-1.7,0.8-2.6c0.2-0.5,0.5-0.6,1-0.5c0.7,0.2,1.4,0.4,2.1,0.6c0.7,0.2,0.8,0.4,0.5,1.1
		c-0.6,1.3-0.9,2.6-0.8,4.1c0,0.4,0.1,0.8,0.2,1.1c0.5,1.2,1.9,1.4,2.7,0.4c0.4-0.5,0.7-1.1,1-1.8c0.5-1.1,0.9-2.2,1.4-3.2
		c1.8-3.3,6-4.2,8.8-1.9c1,0.8,1.7,1.9,2.1,3.2c0.1,0.6,0.4,0.8,1,0.8c0.6,0,1.1,0,1.7,0c0.5,0,0.8,0.3,0.8,0.8c0,0.6,0,1.2,0,1.8
		c0,0.5-0.3,0.8-0.8,0.8h-1.2c-0.9,0-1,0-1.1,0.9c-0.2,1.1-0.4,2.2-0.9,3.3c-0.4,0.8-0.6,0.9-1.4,0.7c-0.6-0.2-1.3-0.3-1.9-0.6
		c-0.7-0.2-0.8-0.4-0.5-1.1c0.6-1.1,0.9-2.3,1.1-3.6c0.1-0.8,0-1.6-0.3-2.4c-0.6-1.4-2.3-1.6-3.2-0.4c-0.3,0.4-0.6,0.9-0.8,1.4
		c-0.6,1.2-1,2.5-1.6,3.7c-1.1,1.9-2.7,3.1-5,2.9c-2.6-0.1-4.3-1.6-5.1-4c-0.3-1-0.3-1-1.4-1h-1c-0.8,0-0.9-0.1-0.9-0.9v-0.7
		C18.2,49.6,18.2,49.6,19.8,49.6"/>
</g>
</svg>
