<?xml version="1.0" encoding="utf-8"?>
<!-- Generator: Adobe Illustrator 19.0.0, SVG Export Plug-In . SVG Version: 6.00 Build 0)  -->
<svg version="1.1" id="Layer_1" xmlns="http://www.w3.org/2000/svg" xmlns:xlink="http://www.w3.org/1999/xlink" x="0px" y="0px"
	 viewBox="0 0 141.7 141.7" style="enable-background:new 0 0 141.7 141.7;" xml:space="preserve">
<style type="text/css">
	.st0{fill:#C3262C;}
</style>
<path id="XMLID_11702_" class="st0" d="M122.3,71.6h-7.2c0-23.6-19.2-42.8-42.8-42.8v-7.2C99.9,21.6,122.3,44,122.3,71.6 M72.3,34.1
	v7.2c16.7,0,30.3,13.6,30.3,30.3h7.2C109.8,50.9,93,34.1,72.3,34.1 M70.9,0C31.8,0,0,31.8,0,70.9s31.8,70.9,70.9,70.9
	c2.4,0,4.4-1.9,4.4-4.4c0-2.4-1.9-4.4-4.4-4.4c-34.3,0-62.1-27.9-62.1-62.1c0-34.3,27.9-62.1,62.1-62.1c34.3,0,62.1,27.9,62.1,62.1
	c0,14.3-7.6,28.5-18.5,34.5c-4,2.2-8.3,3.3-12.8,3.3c2.8-1.6,5.1-3.9,6.9-6.6c0.3-0.5,0.8-1,1-1.6c1.4-3.4,1.5-7.3,2.4-10.9
	c1.1-4.6-20.2-13.6-22.1-7.9c-0.7,2.1-1.7,8.9-3,10.7c-1.2,1.6-4.1,0.8-6-0.7c-4.9-4.1-10.3-10.2-15-15c-0.1-0.1-0.3-0.3-0.4-0.4
	c-0.1-0.1-0.3-0.3-0.4-0.4c-4.8-4.7-10.9-10.1-15-15c-1.6-1.8-2.3-4.8-0.7-6c1.8-1.4,8.5-2.3,10.7-3c5.8-1.8-3.3-23.1-7.9-22.1
	c-3.6,0.9-7.5,1-10.9,2.4c-0.6,0.3-1,0.7-1.6,1C27.5,40.9,26,59.6,37.8,73.5C42.3,78.8,47.1,84,51.9,89l0,0c0.1,0.1,0.3,0.3,0.4,0.4
	c0.1,0.1,0.3,0.3,0.4,0.4l0,0c5,4.8,11,12,20.7,18.4c20.4,13.6,36.1,9.8,45.3,4.8c15.9-8.8,23-27.5,23-42.2
	C141.7,31.8,109.9,0,70.9,0"/>
</svg>
