<?xml version="1.0" encoding="utf-8"?>
<!-- Generator: Adobe Illustrator 19.0.0, SVG Export Plug-In . SVG Version: 6.00 Build 0)  -->
<svg version="1.1" id="Layer_1" xmlns="http://www.w3.org/2000/svg" xmlns:xlink="http://www.w3.org/1999/xlink" x="0px" y="0px"
	 viewBox="0 0 53.3 55" style="enable-background:new 0 0 53.3 55;" xml:space="preserve">
<style type="text/css">
	.st0{fill:#30B14A;}
	.st1{fill:#C3262C;}
</style>
<path id="XMLID_6607_" class="st0" d="M107.6-9.2h-1.4c-0.8,0-1.5-0.7-1.5-1.5v-1.4c0-0.8,0.7-1.5,1.5-1.5h1.4
	c0.8,0,1.5,0.7,1.5,1.5v1.4C109.1-9.8,108.4-9.2,107.6-9.2z"/>
<path id="XMLID_11702_" class="st1" d="M45.3,28.3h-2.6c0-8.5-7-15.5-15.5-15.5v-2.6C37.1,10.2,45.3,18.3,45.3,28.3 M27.1,14.7v2.6
	c6.1,0,11,4.9,11,11h2.6C40.8,20.8,34.7,14.7,27.1,14.7 M26.6,2.3C12.5,2.3,0.9,13.9,0.9,28s11.5,25.7,25.7,25.7
	c0.9,0,1.6-0.7,1.6-1.6c0-0.9-0.7-1.6-1.6-1.6C14.2,50.6,4.1,40.5,4.1,28c0-12.4,10.1-22.5,22.5-22.5C39,5.5,49.1,15.6,49.1,28
	c0,5.2-2.8,10.3-6.7,12.5c-1.4,0.8-3,1.2-4.7,1.2c1-0.6,1.9-1.4,2.5-2.4c0.1-0.2,0.3-0.4,0.4-0.6c0.5-1.2,0.6-2.7,0.9-4
	c0.4-1.7-7.3-4.9-8-2.8c-0.2,0.8-0.6,3.2-1.1,3.9c-0.4,0.6-1.5,0.3-2.2-0.3c-1.8-1.5-3.7-3.7-5.4-5.4c0,0-0.1-0.1-0.1-0.1
	c0,0-0.1-0.1-0.1-0.1c-1.7-1.7-3.9-3.7-5.4-5.4c-0.6-0.7-0.8-1.7-0.3-2.2c0.6-0.5,3.1-0.9,3.9-1.1c2.1-0.7-1.2-8.4-2.9-8
	c-1.3,0.3-2.7,0.4-4,0.9c-0.2,0.1-0.4,0.3-0.6,0.4c-4.4,2.8-5,9.6-0.7,14.6c1.6,1.9,3.3,3.8,5.1,5.6l0,0c0,0,0.1,0.1,0.1,0.1
	c0.1,0,0.1,0.1,0.1,0.1l0,0c1.8,1.8,4,4.3,7.5,6.7c7.4,4.9,13.1,3.6,16.4,1.7c5.8-3.2,8.4-10,8.4-15.3C52.3,13.9,40.8,2.3,26.6,2.3"
	/>
</svg>
