<?xml version="1.0" encoding="UTF-8" standalone="no"?>
<!-- Generator: Adobe Illustrator 19.0.0, SVG Export Plug-In . SVG Version: 6.00 Build 0)  -->

<svg
   version="1.1"
   id="Layer_1"
   x="0px"
   y="0px"
   viewBox="0 0 141.7 141.7"
   style="enable-background:new 0 0 141.7 141.7;"
   xml:space="preserve"
   sodipodi:docname="reff_code_red.svg"
   inkscape:version="1.1 (c68e22c387, 2021-05-23)"
   xmlns:inkscape="http://www.inkscape.org/namespaces/inkscape"
   xmlns:sodipodi="http://sodipodi.sourceforge.net/DTD/sodipodi-0.dtd"
   xmlns="http://www.w3.org/2000/svg"
   xmlns:svg="http://www.w3.org/2000/svg"><defs
   id="defs8" /><sodipodi:namedview
   id="namedview6"
   pagecolor="#ffffff"
   bordercolor="#cccccc"
   borderopacity="1"
   inkscape:pageshadow="0"
   inkscape:pageopacity="1"
   inkscape:pagecheckerboard="0"
   showgrid="false"
   inkscape:zoom="2.8652082"
   inkscape:cx="53.050245"
   inkscape:cy="75.910713"
   inkscape:window-width="1920"
   inkscape:window-height="1001"
   inkscape:window-x="-9"
   inkscape:window-y="-9"
   inkscape:window-maximized="1"
   inkscape:current-layer="Layer_1" />
<style
   type="text/css"
   id="style2">
	.st0{fill:#FFFFFF;}
</style>

<style
   type="text/css"
   id="style973">
	.st0{fill:#FFFFFF;}
</style><path
   id="XMLID_787_-3"
   class="st0"
   d="m -534.19137,125.84532 h -2.5 c 0,-8.3 -6.7,-15 -15,-15 v -2.5 c 9.7,0 17.5,7.9 17.5,17.5 m -17.5,-13.1 v 2.5 c 5.8,0 10.6,4.8 10.6,10.6 h 2.5 c 0.1,-7.2 -5.8,-13.1 -13.1,-13.1 m -0.5,-11.9 c -13.6,0 -24.7,11.1 -24.7,24.8 0,13.7 11.1,24.8 24.8,24.8 0.8,0 1.5,-0.7 1.5,-1.5 0,-0.8 -0.7,-1.5 -1.5,-1.5 -12,0 -21.7,-9.8 -21.7,-21.8 0,-12 9.7,-21.8 21.7,-21.8 12,0 21.7,9.8 21.7,21.8 0,5 -2.7,10 -6.5,12.1 -1.4,0.8 -2.9,1.1 -4.5,1.2 1,-0.6 1.8,-1.4 2.4,-2.3 0.1,-0.2 0.3,-0.3 0.4,-0.5 0.5,-1.2 0.5,-2.6 0.8,-3.8 0.4,-1.6 -7.1,-4.8 -7.7,-2.8 -0.2,0.7 -0.6,3.1 -1.1,3.7 -0.4,0.6 -1.4,0.3 -2.1,-0.3 -1.7,-1.4 -3.6,-3.6 -5.2,-5.3 0,0 -0.1,-0.1 -0.1,-0.1 0,0 -0.1,-0.1 -0.1,-0.1 -1.7,-1.7 -3.8,-3.6 -5.2,-5.3 -0.5,-0.6 -0.8,-1.7 -0.3,-2.1 0.6,-0.5 3,-0.8 3.7,-1.1 2,-0.6 -1.1,-8.1 -2.8,-7.7 -1.3,0.3 -2.6,0.3 -3.8,0.8 -0.2,0.1 -0.4,0.2 -0.5,0.4 -4.2,2.7 -4.8,9.2 -0.6,14.1 1.6,1.9 3.2,3.7 4.9,5.4 v 0 c 0,0 0.1,0.1 0.1,0.1 0.1,0 0.1,0.1 0.1,0.1 v 0 c 1.8,1.7 3.8,4.2 7.2,6.5 7.1,4.8 12.6,3.4 15.8,1.7 5.6,-3.1 8.1,-9.6 8.1,-14.8 0,-13.6 -11.1,-24.7 -24.8,-24.7" /><style
   type="text/css"
   id="style983">
	.st0{fill:#FFFFFF;}
</style><style
   type="text/css"
   id="style993">
	.st0{fill:#C3262C;}
</style><style
   type="text/css"
   id="style1003">
	.st0{fill:#FFFFFF;}
</style><style
   type="text/css"
   id="style1017">
	.st0{fill:#30B14A;}
	.st1{fill:#FFFFFF;}
</style><path
   style="fill:#c1242b;fill-opacity:1;stroke-width:0.459899"
   d="m 46.091915,140.28419 c -4.266073,-1.34101 -9.664446,-3.57953 -12.018113,-4.98348 -4.815567,-2.87246 -10.213805,-8.02364 -13.316104,-12.70668 -1.940986,-2.92999 -4.317682,-8.32009 -5.002239,-11.34459 -0.511368,-2.25925 -0.636361,-2.41082 -2.209105,-2.67868 -0.916895,-0.15616 -3.152721,-0.28623 -4.9685062,-0.28906 l -3.3014256,-0.005 -0.9153024,-2.19942 c -0.7721862,-1.85554 -0.8263976,-2.37054 -0.3466859,-3.2938 0.4818583,-0.92738 6.7663761,-7.25776 19.6844591,-19.828086 1.516943,-1.476104 2.910549,-2.683825 3.09691,-2.683825 0.186358,0 4.655199,4.257145 9.930761,9.460317 5.275557,5.203178 10.488866,10.322274 11.58513,11.375774 l 1.99321,1.91545 -1.057012,2.62679 -1.057012,2.6268 -4.3348,0.007 c -2.384146,0.004 -4.568879,0.16146 -4.854969,0.35007 -0.685816,0.45213 0.396055,7.06594 1.875876,11.46777 1.620588,4.82055 3.680873,8.01971 7.999274,12.42106 l 3.917216,3.99247 -1.059396,2.45045 c -0.582671,1.34774 -1.325832,2.43618 -1.651477,2.41872 -0.325646,-0.0174 -2.121456,-0.51247 -3.990689,-1.10006 z m -7.948567,-11.8442 C 35.042912,123.07901 33.107402,115.1831 32.857472,106.8763 l -0.13341,-4.43414 4.008792,-0.23336 4.008797,-0.23339 -7.02086,-6.87865 -7.02086,-6.878649 -6.730613,6.61836 c -3.701828,3.640099 -6.795628,6.778909 -6.875115,6.975129 -0.07944,0.19623 1.447949,0.41838 3.394287,0.49366 l 3.538789,0.1369 0.312467,2.2592 c 0.490218,3.54428 2.121792,8.64324 3.907021,12.21012 2.091426,4.17865 8.178312,10.58774 12.315255,12.96715 1.612412,0.92739 2.99608,1.61983 3.074814,1.53873 0.07873,-0.0811 -0.593338,-1.42092 -1.493488,-2.97737 z m 23.355583,10.17547 v -2.80051 h 36.931526 36.931523 l -0.002,-2.9172 c -0.006,-9.02287 -2.98533,-19.24517 -7.93768,-27.2314 -3.13193,-5.05059 -13.37555,-14.644187 -14.96544,-14.015775 -0.30954,0.122349 -1.80471,1.195287 -3.32259,2.384301 -3.53968,2.77277 -9.823813,5.962184 -13.876023,7.042564 -2.308909,0.6156 -4.774974,0.83847 -9.062951,0.81905 -5.017644,-0.0227 -6.482562,-0.20997 -9.882003,-1.26317 -5.597844,-1.734301 -9.727359,-4.031652 -14.867023,-8.270888 -1.123022,-0.926283 -1.259546,-0.938171 -2.596431,-0.226085 -0.776096,0.413384 -2.587726,1.72521 -4.025844,2.915172 -1.438123,1.189956 -2.828543,2.332543 -3.089828,2.539076 -0.475333,0.375726 -1.888828,-0.71169 -3.565156,-2.742715 l -0.86819,-1.051893 1.977658,-1.744687 c 3.43107,-3.026908 10.73425,-8.045849 11.707684,-8.045849 0.207763,0 1.662213,1.207722 3.232115,2.683826 6.735123,6.332728 11.86614,8.693397 20.186695,9.287447 9.055298,0.646508 16.745157,-2.345356 24.125147,-9.386282 3.31361,-3.161364 2.8479,-3.209342 9.01051,0.92825 11.70029,7.855609 19.48908,19.778738 22.40236,34.293688 0.97432,4.85442 1.62472,15.16061 1.12864,17.88436 l -0.31313,1.71924 H 101.1288 61.498931 Z M 0.8904517,88.191678 C -0.34739866,87.679184 -0.34446056,87.840032 0.80042909,83.276544 3.9134503,70.868349 10.245334,61.23733 19.408626,54.972833 c 4.71936,-3.226398 4.453729,-3.228301 7.963933,0.05708 5.481178,5.13013 12.029124,7.474833 19.100305,6.839489 l 3.500801,-0.314549 0.544742,2.675061 c 0.299612,1.471282 0.429385,2.794483 0.288388,2.940446 -0.140992,0.145968 -2.7495,0.334166 -5.796677,0.418228 -8.001716,0.220737 -12.656148,-1.24417 -19.420265,-6.112201 l -2.602706,-1.873132 -1.824861,1.302598 C 14.386581,65.742393 8.0819519,76.198224 6.1589701,85.787912 L 5.5804414,88.672978 3.7452168,88.643387 C 2.7358557,88.627094 1.4511936,88.423845 0.89043191,88.191678 Z M 78.038817,87.756301 C 66.553035,84.623189 57.969972,76.324875 53.882975,64.401859 c -1.096539,-3.198951 -1.19891,-4.104022 -1.18784,-10.501926 0.01096,-6.334502 0.125241,-7.334677 1.199953,-10.501929 4.075482,-12.010685 13.043005,-20.60271 24.596876,-23.566931 1.956039,-0.501834 4.909165,-0.813806 7.703508,-0.813806 22.162998,0 38.500788,21.435418 33.052298,43.365109 -0.94573,3.806478 -3.75468,9.652139 -6.31041,13.132469 -4.1894,5.705024 -11.18169,10.315431 -18.544429,12.227351 -4.699241,1.220281 -11.909561,1.226499 -16.354114,0.01409 z m 15.664632,-5.896206 c 6.303751,-1.908331 13.446521,-7.458272 16.654121,-12.940284 5.88373,-10.055706 5.29169,-22.503813 -1.53924,-32.363915 -2.49709,-3.604402 -5.55511,-6.179149 -10.142245,-8.539416 -4.44452,-2.286882 -7.433536,-2.98894 -12.707186,-2.984658 -7.660047,0.0062 -13.825763,2.712592 -19.489853,8.554857 -5.601466,5.77767 -8.152148,12.045061 -8.152148,20.030981 0,5.114233 0.748845,8.632808 2.761966,12.977562 3.312559,7.149222 10.375675,13.142574 18.082821,15.344034 3.03667,0.867393 11.558376,0.820971 14.531764,-0.07916 z M 42.24016,56.64171 C 37.481903,55.676579 36.022146,55.267503 33.915527,54.30885 28.078959,51.652823 23.039052,46.568253 20.274356,40.546791 18.35364,36.363505 17.865094,33.30675 18.085016,26.84845 c 0.184032,-5.404346 0.26163,-5.774222 2.011521,-9.588575 2.355888,-5.13526 5.615464,-9.117983 9.849993,-12.0352383 5.103515,-3.5159209 8.423473,-4.52346509 14.785941,-4.487253 5.825847,0.033158 9.013939,0.7757572 13.236427,3.0831486 3.299571,1.8030629 7.414092,5.6348762 9.664482,9.0004407 2.025619,3.029407 1.914906,3.553013 -1.038097,4.909543 L 64.667846,18.615928 62.92524,16.18758 C 60.35351,12.603831 57.725567,10.361752 53.908066,8.494399 45.923162,4.5885392 36.144909,6.4596125 29.768809,13.113458 17.427228,25.99264 24.572489,47.776408 42.013586,50.44416 c 4.668575,0.714093 4.734717,0.766183 4.893948,3.854151 l 0.135904,2.635511 -1.948494,-0.05414 c -1.071667,-0.02978 -2.356322,-0.136867 -2.854784,-0.23797 z"
   id="path1149" /></svg>
