<?xml version="1.0" encoding="utf-8"?>
<!-- Generator: Adobe Illustrator 19.0.0, SVG Export Plug-In . SVG Version: 6.00 Build 0)  -->
<svg version="1.1" id="Layer_1" xmlns="http://www.w3.org/2000/svg" xmlns:xlink="http://www.w3.org/1999/xlink" x="0px" y="0px"
	 viewBox="0 0 53.3 55" style="enable-background:new 0 0 53.3 55;" xml:space="preserve">
<style type="text/css">
	.st0{fill:#30B14A;}
	.st1{fill:#FFFFFF;}
</style>
<path id="XMLID_6310_" class="st0" d="M35.7,53.5H16.9C7.6,53.5,0,46,0,36.7V17.9C0,8.6,7.6,1,16.9,1h18.8C45,1,52.5,8.6,52.5,17.9
	v18.8C52.5,46,45,53.5,35.7,53.5z"/>
<path id="XMLID_6607_" class="st0" d="M107.6-9.2h-1.4c-0.8,0-1.5-0.7-1.5-1.5v-1.4c0-0.8,0.7-1.5,1.5-1.5h1.4
	c0.8,0,1.5,0.7,1.5,1.5v1.4C109.1-9.8,108.4-9.2,107.6-9.2z"/>
<g id="XMLID_6320_">
	<path id="XMLID_6895_" class="st1" d="M43.1,26.9C43.1,26.8,43.1,26.8,43.1,26.9c-1.5-3.1-3.8-5.7-6.7-7.6
		c-2.9-1.9-6.3-2.9-9.9-2.9c-3.5,0-6.9,1-9.9,2.9c-2.8,1.8-5.1,4.4-6.6,7.4c-0.2,0.3-0.2,0.7,0,1c1.5,3.1,3.8,5.6,6.6,7.5
		c2.9,1.9,6.3,2.9,9.9,2.9c3.5,0,6.9-1,9.9-2.9c2.9-1.8,5.2-4.4,6.6-7.5C43.2,27.5,43.3,27.2,43.1,26.9L43.1,26.9z M26.6,35.8
		c-5.9,0-11.4-3.3-14.2-8.6c2.7-5.2,8.2-8.6,14.2-8.6c5.9,0,11.4,3.3,14.2,8.6C38,32.5,32.5,35.8,26.6,35.8L26.6,35.8z M26.6,35.8"
		/>
	<path id="XMLID_6839_" class="st1" d="M26.6,22.2c-2.8,0-5,2.3-5,5c0,2.8,2.3,5,5,5c2.8,0,5-2.3,5-5C31.7,24.5,29.4,22.2,26.6,22.2
		L26.6,22.2z M26.6,30c-1.5,0-2.7-1.2-2.7-2.7c0-1.5,1.2-2.7,2.7-2.7c1.5,0,2.7,1.2,2.7,2.7C29.4,28.8,28.1,30,26.6,30L26.6,30z
		 M26.6,30"/>
	<path id="XMLID_6832_" class="st1" d="M23.9,35.8"/>
</g>
</svg>
