<?xml version="1.0" encoding="utf-8"?>
<!-- Generator: Adobe Illustrator 19.0.0, SVG Export Plug-In . SVG Version: 6.00 Build 0)  -->
<svg version="1.1" id="Layer_1" xmlns="http://www.w3.org/2000/svg" xmlns:xlink="http://www.w3.org/1999/xlink" x="0px" y="0px"
	 viewBox="0 0 141.7 126.3" style="enable-background:new 0 0 141.7 126.3;" xml:space="preserve">
<style type="text/css">
	.st0{fill:#30B14A;}
</style>
<g id="XMLID_14778_">
	<path id="XMLID_14790_" class="st0" d="M136.3,18.5L49.5,0.1c-3.7-0.8-7.3,1.6-8.1,5.3L39.8,16l100.2,21.2l1.6-10.6
		C142.4,22.9,140,19.3,136.3,18.5L136.3,18.5z M136.3,18.5"/>
	<path id="XMLID_14784_" class="st0" d="M99.8,39.5c-1-3.7-4.8-5.8-8.5-4.8l-16.5,4.6L36,31l-4.3,20.2L5,58.6
		c-3.7,1-5.8,4.8-4.8,8.5l15,54.2c1,3.7,4.8,5.8,8.5,4.8l86.3-23.9c3.7-1,5.8-4.8,4.8-8.5l-2.6-9.3l9.7,2c3.7,0.8,7.3-1.6,8.1-5.3
		l6.1-28.9l-34.9-7.4L99.8,39.5z M109.8,67l2.1-10.1c0.3-1.5,1.8-2.5,3.3-2.2l10.1,2.1c1.5,0.3,2.5,1.8,2.2,3.3l-2.1,10.1
		c-0.3,1.5-1.8,2.5-3.3,2.2l-10.1-2.1C110.4,70,109.5,68.5,109.8,67L109.8,67z M6.5,64l23.9-6.6l56.3-15.6l6.1-1.7
		c0.1,0,0.2,0,0.3,0c0.5,0,1.1,0.3,1.2,0.9l0.7,2.6l2.2,8L8.6,76.2L5.7,65.6C5.5,64.9,5.9,64.2,6.5,64L6.5,64z M109.4,95.2
		c0.1,0.4,0,0.8-0.1,1c-0.1,0.2-0.3,0.5-0.8,0.6l-86.3,23.9c-0.1,0-0.2,0-0.3,0c-0.5,0-1.1-0.3-1.2-0.9l-8.8-31.6l88.7-24.6
		l5.4,19.5L109.4,95.2z M109.4,95.2"/>
	<path id="XMLID_14781_" class="st0" d="M36.2,97.3c-0.4-1.5-2-2.4-3.5-2l-10.1,2.8c-1.5,0.4-2.4,2-2,3.5l2.8,10.1
		c0.4,1.5,2,2.4,3.5,2l10.1-2.8c1.5-0.4,2.4-2,2-3.5L36.2,97.3z M36.2,97.3"/>
	<path id="XMLID_14780_" class="st0" d="M118.6,14.8"/>
</g>
</svg>
