<?xml version="1.0" encoding="utf-8"?>
<!-- Generator: Adobe Illustrator 19.0.0, SVG Export Plug-In . SVG Version: 6.00 Build 0)  -->
<svg version="1.1" id="Layer_1" xmlns="http://www.w3.org/2000/svg" xmlns:xlink="http://www.w3.org/1999/xlink" x="0px" y="0px"
	 viewBox="0 0 141.7 126.5" style="enable-background:new 0 0 141.7 126.5;" xml:space="preserve">
<style type="text/css">
	.st0{fill:#FFFFFF;}
</style>
<g id="XMLID_8507_">
	<path id="XMLID_8519_" class="st0" d="M136.5,18.5L49.6,0.1c-3.7-0.8-7.3,1.6-8.1,5.3L39.8,16l100.3,21.2l1.7-10.6
		C142.5,23,140.2,19.3,136.5,18.5L136.5,18.5z M136.5,18.5"/>
	<path id="XMLID_8512_" class="st0" d="M99.9,39.5c-1-3.7-4.8-5.8-8.5-4.8L75,39.3L36.1,31l-4.3,20.2L5.1,58.7
		c-3.7,1-5.8,4.8-4.8,8.5l15.1,54.3c1,3.7,4.8,5.8,8.5,4.8l86.4-24c3.7-1,5.8-4.8,4.8-8.5l-2.6-9.3l9.7,2c3.7,0.8,7.3-1.6,8.1-5.3
		l6.1-29l-34.9-7.4L99.9,39.5z M109.9,67.1l2.1-10.1c0.3-1.5,1.8-2.5,3.3-2.2l10.1,2.1c1.5,0.3,2.5,1.8,2.2,3.3l-2.1,10.1
		c-0.3,1.5-1.8,2.5-3.3,2.2l-10.1-2.1C110.6,70.1,109.6,68.6,109.9,67.1L109.9,67.1z M6.6,64.1l23.9-6.6l56.4-15.7l6.1-1.7
		c0.1,0,0.2,0,0.3,0c0.5,0,1.1,0.3,1.2,0.9l0.7,2.6l2.2,8L8.6,76.3L5.7,65.7C5.5,65,5.9,64.3,6.6,64.1L6.6,64.1z M109.6,95.3
		c0.1,0.4,0,0.8-0.1,1c-0.1,0.2-0.3,0.5-0.8,0.6l-86.4,24c-0.1,0-0.2,0-0.3,0c-0.5,0-1.1-0.3-1.2-0.9l-8.8-31.7l88.9-24.7l5.4,19.5
		L109.6,95.3z M109.6,95.3"/>
	<path id="XMLID_8509_" class="st0" d="M36.3,97.4c-0.4-1.5-2-2.4-3.5-2l-10.1,2.8c-1.5,0.4-2.4,2-2,3.5l2.8,10.1
		c0.4,1.5,2,2.4,3.5,2l10.1-2.8c1.5-0.4,2.4-2,2-3.5L36.3,97.4z M36.3,97.4"/>
	<path id="XMLID_8508_" class="st0" d="M118.8,14.8"/>
</g>
</svg>
