<?xml version="1.0" encoding="utf-8"?>
<!-- Generator: Adobe Illustrator 19.0.0, SVG Export Plug-In . SVG Version: 6.00 Build 0)  -->
<svg version="1.1" id="Layer_1" xmlns="http://www.w3.org/2000/svg" xmlns:xlink="http://www.w3.org/1999/xlink" x="0px" y="0px"
	 viewBox="0 0 3.5 3.6" style="enable-background:new 0 0 3.5 3.6;" xml:space="preserve">
<style type="text/css">
	.st0{fill:#30B14A;}
</style>
<path id="XMLID_6607_" class="st0" d="M107.6-9.2h-1.4c-0.8,0-1.5-0.7-1.5-1.5v-1.4c0-0.8,0.7-1.5,1.5-1.5h1.4
	c0.8,0,1.5,0.7,1.5,1.5v1.4C109.1-9.8,108.4-9.2,107.6-9.2z"/>
<g id="XMLID_17312_">
	<g id="XMLID_143_">
		<path id="XMLID_147_" class="st0" d="M1.8,2.2c0.2,0,0.3-0.1,0.3-0.3c0-0.2-0.1-0.3-0.3-0.3c-0.2,0-0.3,0.1-0.3,0.3
			C1.5,2.1,1.6,2.2,1.8,2.2z"/>
		<path id="XMLID_144_" class="st0" d="M0.1,2.2l0.4,0.1c0,0,0,0.1,0.1,0.1L0.4,2.9c0,0,0,0.1,0,0.1l0.3,0.3c0,0,0.1,0,0.1,0
			l0.4-0.2c0,0,0.1,0,0.1,0.1l0.1,0.4c0,0,0.1,0.1,0.1,0.1H2c0,0,0.1,0,0.1-0.1l0.1-0.4c0,0,0.1,0,0.1-0.1l0.4,0.2c0,0,0.1,0,0.1,0
			L3.1,3c0,0,0-0.1,0-0.1L3,2.5c0,0,0-0.1,0.1-0.1l0.4-0.1c0,0,0.1-0.1,0.1-0.1V1.7c0,0,0-0.1-0.1-0.1L3,1.5c0,0,0-0.1-0.1-0.1
			l0.2-0.4c0,0,0-0.1,0-0.1L2.9,0.5c0,0-0.1,0-0.1,0L2.3,0.7c0,0-0.1,0-0.1-0.1L2.1,0.2c0,0-0.1-0.1-0.1-0.1H1.6c0,0-0.1,0-0.1,0.1
			L1.3,0.6c0,0-0.1,0-0.1,0.1L0.8,0.5c0,0-0.1,0-0.1,0L0.4,0.8c0,0,0,0.1,0,0.1l0.2,0.4c0,0,0,0.1-0.1,0.1L0.1,1.6
			c0,0-0.1,0.1-0.1,0.1L0.1,2.2C0,2.1,0.1,2.2,0.1,2.2z M1.8,1.2c0.4,0,0.7,0.3,0.7,0.7c0,0.4-0.3,0.7-0.7,0.7
			c-0.4,0-0.7-0.3-0.7-0.7C1.1,1.5,1.4,1.2,1.8,1.2z"/>
	</g>
</g>
</svg>
