<?xml version="1.0" encoding="utf-8"?>
<!-- Generator: Adobe Illustrator 19.0.0, SVG Export Plug-In . SVG Version: 6.00 Build 0)  -->
<svg version="1.1" id="Layer_1" xmlns="http://www.w3.org/2000/svg" xmlns:xlink="http://www.w3.org/1999/xlink" x="0px" y="0px"
	 viewBox="0 0 141.7 141.7" style="enable-background:new 0 0 141.7 141.7;" xml:space="preserve">
<style type="text/css">
	.st0{fill:#30B14A;}
</style>
<g id="XMLID_17312_">
	<g id="XMLID_39_">
		<path id="XMLID_43_" class="st0" d="M70.3,82.6c6.8,0,12.3-5.5,12.3-12.3c0-6.8-5.5-12.3-12.3-12.3c-6.8,0-12.3,5.5-12.3,12.3
			C57.9,77.1,63.4,82.6,70.3,82.6z"/>
		<path id="XMLID_40_" class="st0" d="M2.8,82.4l16.9,5.6c0.7,1.9,1.4,3.7,2.3,5.5l-7.9,15.7c-0.8,1.6-0.5,3.5,0.8,4.8l11.6,11.6
			c1.3,1.3,3.2,1.6,4.8,0.8l15.7-7.9c1.8,0.9,3.6,1.6,5.5,2.3l5.6,16.9c0.6,1.7,2.1,2.8,3.9,2.8h16.5c1.8,0,3.3-1.1,3.9-2.8
			l5.6-16.9c1.9-0.7,3.7-1.4,5.5-2.3l15.7,7.9c1.6,0.8,3.5,0.5,4.8-0.8l11.6-11.6c1.3-1.3,1.6-3.2,0.8-4.8l-7.9-15.7
			c0.9-1.8,1.6-3.6,2.3-5.5l16.9-5.6c1.7-0.6,2.8-2.1,2.8-3.9V62c0-1.8-1.1-3.3-2.8-3.9l-16.9-5.6c-0.7-1.9-1.4-3.7-2.3-5.5
			l7.9-15.7c0.8-1.6,0.5-3.5-0.8-4.8L113.9,15c-1.3-1.3-3.2-1.6-4.8-0.8L93.4,22c-1.8-0.9-3.6-1.6-5.5-2.3L82.4,2.8
			C81.8,1.1,80.3,0,78.5,0H62c-1.8,0-3.3,1.1-3.9,2.8l-5.6,16.9c-1.9,0.7-3.7,1.4-5.5,2.3l-15.7-7.9c-1.6-0.8-3.5-0.5-4.8,0.8
			L15,26.6c-1.3,1.3-1.6,3.2-0.8,4.8L22,47.1c-0.9,1.8-1.6,3.6-2.3,5.5L2.8,58.1C1.1,58.7,0,60.2,0,62v16.5
			C0,80.3,1.1,81.8,2.8,82.4z M70.3,41.4c15.9,0,28.8,12.9,28.8,28.8c0,15.9-12.9,28.8-28.8,28.8c-15.9,0-28.8-12.9-28.8-28.8
			C41.4,54.4,54.4,41.4,70.3,41.4z"/>
	</g>
</g>
</svg>
