<?xml version="1.0" encoding="utf-8"?>
<!-- Generator: Adobe Illustrator 19.0.0, SVG Export Plug-In . SVG Version: 6.00 Build 0)  -->
<svg version="1.1" id="Layer_1" xmlns="http://www.w3.org/2000/svg" xmlns:xlink="http://www.w3.org/1999/xlink" x="0px" y="0px"
	 viewBox="0 0 43.7 55" style="enable-background:new 0 0 43.7 55;" xml:space="preserve">
<style type="text/css">
	.st0{fill:#30B04A;}
</style>
<g id="XMLID_5438_">
	<path id="XMLID_5450_" class="st0" d="M1.8,7.5v45.1c0,0.5,0.4,0.9,0.9,0.9h33c0.5,0,0.9-0.4,0.9-0.9V16.2c0,0,0,0,0-0.1
		c0-0.1,0-0.2,0-0.2c0,0,0-0.1,0-0.1c0-0.1-0.1-0.2-0.2-0.3l-8.7-8.7c-0.1-0.1-0.2-0.1-0.3-0.2c0,0-0.1,0-0.1,0c-0.1,0-0.1,0-0.2,0
		c0,0,0,0,0,0H2.6C2.1,6.7,1.8,7.1,1.8,7.5 M33.5,15.4h-5.7V9.6L33.5,15.4z M3.5,8.4H26v7.8c0,0.5,0.4,0.9,0.9,0.9h7.8v34.7H3.5V8.4
		z"/>
	<path id="XMLID_5449_" class="st0" d="M38.2,46.6v1.7h2.6c0.5,0,0.9-0.4,0.9-0.9V2.3c0-0.5-0.4-0.9-0.9-0.9h-33
		C7.3,1.5,7,1.9,7,2.3v2.6h1.7V3.2h31.2v43.4H38.2z"/>
	<rect id="XMLID_5448_" x="8.7" y="18.8" class="st0" width="20.8" height="1.7"/>
	<rect id="XMLID_5447_" x="8.7" y="13.6" class="st0" width="6.9" height="1.7"/>
	<rect id="XMLID_5446_" x="8.7" y="24" class="st0" width="13.9" height="1.7"/>
	<rect id="XMLID_5445_" x="24.3" y="24" class="st0" width="5.2" height="1.7"/>
	<rect id="XMLID_5444_" x="8.7" y="29.2" class="st0" width="20.8" height="1.7"/>
	<rect id="XMLID_5443_" x="8.7" y="39.6" class="st0" width="20.8" height="1.7"/>
	<rect id="XMLID_5442_" x="16.5" y="34.4" class="st0" width="13" height="1.7"/>
	<rect id="XMLID_5441_" x="8.7" y="34.4" class="st0" width="6.1" height="1.7"/>
	<rect id="XMLID_5440_" x="8.7" y="44.8" class="st0" width="3.5" height="1.7"/>
	<rect id="XMLID_5439_" x="13.9" y="44.8" class="st0" width="15.6" height="1.7"/>
</g>
</svg>
