<?xml version="1.0" encoding="utf-8"?>
<!-- Generator: Adobe Illustrator 19.0.0, SVG Export Plug-In . SVG Version: 6.00 Build 0)  -->
<svg version="1.1" id="Layer_1" xmlns="http://www.w3.org/2000/svg" xmlns:xlink="http://www.w3.org/1999/xlink" x="0px" y="0px"
	 viewBox="0 0 108.7 141.7" style="enable-background:new 0 0 108.7 141.7;" xml:space="preserve">
<style type="text/css">
	.st0{fill:#30B04A;}
</style>
<g id="XMLID_5438_">
	<path id="XMLID_5450_" class="st0" d="M0,16.5v122.8c0,1.3,1.1,2.4,2.4,2.4h89.8c1.3,0,2.4-1.1,2.4-2.4V40.2c0-0.1,0-0.1,0-0.1
		c0-0.2-0.1-0.4-0.1-0.6c0-0.1,0-0.1-0.1-0.2c-0.1-0.3-0.3-0.5-0.5-0.7L70.2,14.9c-0.2-0.2-0.4-0.4-0.7-0.5c-0.1,0-0.1-0.1-0.2-0.1
		c-0.2-0.1-0.4-0.1-0.6-0.1c0,0-0.1,0-0.1,0H2.4C1.1,14.2,0,15.2,0,16.5 M86.4,37.8H70.9V22.2L86.4,37.8z M4.7,18.9h61.4v21.3
		c0,1.3,1.1,2.4,2.4,2.4h21.3V137h-85V18.9z"/>
	<path id="XMLID_5449_" class="st0" d="M99.2,122.8v4.7h7.1c1.3,0,2.4-1.1,2.4-2.4V2.4c0-1.3-1.1-2.4-2.4-2.4H16.5
		c-1.3,0-2.4,1.1-2.4,2.4v7.1h4.7V4.7h85v118.1H99.2z"/>
	<rect id="XMLID_5448_" x="18.9" y="47.2" class="st0" width="56.7" height="4.7"/>
	<rect id="XMLID_5447_" x="18.9" y="33.1" class="st0" width="18.9" height="4.7"/>
	<rect id="XMLID_5446_" x="18.9" y="61.4" class="st0" width="37.8" height="4.7"/>
	<rect id="XMLID_5445_" x="61.4" y="61.4" class="st0" width="14.2" height="4.7"/>
	<rect id="XMLID_5444_" x="18.9" y="75.6" class="st0" width="56.7" height="4.7"/>
	<rect id="XMLID_5443_" x="18.9" y="103.9" class="st0" width="56.7" height="4.7"/>
	<rect id="XMLID_5442_" x="40.2" y="89.8" class="st0" width="35.4" height="4.7"/>
	<rect id="XMLID_5441_" x="18.9" y="89.8" class="st0" width="16.5" height="4.7"/>
	<rect id="XMLID_5440_" x="18.9" y="118.1" class="st0" width="9.4" height="4.7"/>
	<rect id="XMLID_5439_" x="33.1" y="118.1" class="st0" width="42.5" height="4.7"/>
</g>
</svg>
