<?xml version="1.0" encoding="utf-8"?>
<!-- Generator: Adobe Illustrator 19.0.0, SVG Export Plug-In . SVG Version: 6.00 Build 0)  -->
<svg version="1.1" id="Layer_1" xmlns="http://www.w3.org/2000/svg" xmlns:xlink="http://www.w3.org/1999/xlink" x="0px" y="0px"
	 viewBox="0 0 53.3 55" style="enable-background:new 0 0 53.3 55;" xml:space="preserve">
<style type="text/css">
	.st0{fill:#30B14A;}
	.st1{fill:#C2262C;}
</style>
<path id="XMLID_6607_" class="st0" d="M107.6-9.2h-1.4c-0.8,0-1.5-0.7-1.5-1.5v-1.4c0-0.8,0.7-1.5,1.5-1.5h1.4
	c0.8,0,1.5,0.7,1.5,1.5v1.4C109.1-9.8,108.4-9.2,107.6-9.2z"/>
<g id="XMLID_5346_">
	<path id="XMLID_5357_" class="st1" d="M20.2,30.2c0-0.6-0.5-1.1-1.1-1.1h-3.8c-0.6,0-1.1,0.5-1.1,1.1V34c0,0.6,0.5,1.1,1.1,1.1h3.8
		c0.6,0,1.1-0.5,1.1-1.1V30.2z"/>
	<path id="XMLID_5356_" class="st1" d="M29.6,30.2c0-0.6-0.5-1.1-1.1-1.1h-3.8c-0.6,0-1.1,0.5-1.1,1.1V34c0,0.6,0.5,1.1,1.1,1.1h3.8
		c0.6,0,1.1-0.5,1.1-1.1V30.2z"/>
	<path id="XMLID_5355_" class="st1" d="M39,30.2c0-0.6-0.5-1.1-1.1-1.1h-3.8c-0.6,0-1.1,0.5-1.1,1.1V34c0,0.6,0.5,1.1,1.1,1.1h3.8
		c0.6,0,1.1-0.5,1.1-1.1V30.2z"/>
	<path id="XMLID_5354_" class="st1" d="M20.2,39.7c0-0.6-0.5-1.1-1.1-1.1h-3.8c-0.6,0-1.1,0.5-1.1,1.1v3.8c0,0.6,0.5,1.1,1.1,1.1
		h3.8c0.6,0,1.1-0.5,1.1-1.1V39.7z"/>
	<path id="XMLID_5353_" class="st1" d="M29.6,39.7c0-0.6-0.5-1.1-1.1-1.1h-3.8c-0.6,0-1.1,0.5-1.1,1.1v3.8c0,0.6,0.5,1.1,1.1,1.1
		h3.8c0.6,0,1.1-0.5,1.1-1.1V39.7z"/>
	<path id="XMLID_5352_" class="st1" d="M39,39.7c0-0.6-0.5-1.1-1.1-1.1h-3.8c-0.6,0-1.1,0.5-1.1,1.1v3.8c0,0.6,0.5,1.1,1.1,1.1h3.8
		c0.6,0,1.1-0.5,1.1-1.1V39.7z"/>
	<path id="XMLID_5349_" class="st1" d="M45.8,9.3V15c0,2.6-2.1,4.7-4.7,4.7h-3c-2.6,0-4.7-2.1-4.7-4.7V9.2H19.9V15
		c0,2.6-2.1,4.7-4.7,4.7h-3c-2.6,0-4.7-2.1-4.7-4.7V9.3c-2.3,0.1-4.1,2-4.1,4.3v33.8c0,2.4,1.9,4.3,4.3,4.3h38
		c2.4,0,4.3-1.9,4.3-4.3V13.5C49.9,11.2,48,9.3,45.8,9.3 M44.4,45.2c0,1-0.8,1.8-1.8,1.8H10.6c-1,0-1.8-0.8-1.8-1.8V27.7
		c0-1,0.8-1.8,1.8-1.8h31.9c1,0,1.8,0.8,1.8,1.8V45.2z"/>
	<path id="XMLID_5348_" class="st1" d="M12.2,16.6h2.9c0.9,0,1.6-0.7,1.6-1.6V5.6C16.7,4.7,16,4,15.1,4h-2.9c-0.9,0-1.6,0.7-1.6,1.6
		V15C10.6,15.9,11.3,16.6,12.2,16.6"/>
	<path id="XMLID_5347_" class="st1" d="M38,16.6H41c0.9,0,1.6-0.7,1.6-1.6V5.6C42.6,4.7,41.9,4,41,4H38c-0.9,0-1.6,0.7-1.6,1.6V15
		C36.4,15.9,37.1,16.6,38,16.6"/>
</g>
</svg>
