<?xml version="1.0" encoding="utf-8"?>
<!-- Generator: Adobe Illustrator 19.0.0, SVG Export Plug-In . SVG Version: 6.00 Build 0)  -->
<svg version="1.1" id="Layer_1" xmlns="http://www.w3.org/2000/svg" xmlns:xlink="http://www.w3.org/1999/xlink" x="0px" y="0px"
	 viewBox="0 0 39.8 26.2" style="enable-background:new 0 0 39.8 26.2;" xml:space="preserve">
<style type="text/css">
	.st0{fill:#30B14A;}
	.st1{clip-path:url(#XMLID_67_);}
	.st2{clip-path:url(#XMLID_68_);fill:#32B746;}
	.st3{opacity:0.5;clip-path:url(#XMLID_67_);fill:url(#XMLID_69_);}
	.st4{clip-path:url(#XMLID_67_);fill:url(#XMLID_70_);}
	.st5{opacity:0.2;clip-path:url(#XMLID_67_);fill:url(#XMLID_71_);}
	.st6{opacity:0.3;clip-path:url(#XMLID_67_);fill:url(#XMLID_72_);}
	.st7{fill:#FFFFFF;}
</style>
<path id="XMLID_6607_" class="st0" d="M107.6-9.2h-1.4c-0.8,0-1.5-0.7-1.5-1.5v-1.4c0-0.8,0.7-1.5,1.5-1.5h1.4
	c0.8,0,1.5,0.7,1.5,1.5v1.4C109.1-9.8,108.4-9.2,107.6-9.2z"/>
<g id="XMLID_8461_">
	<defs>
		<path id="XMLID_8462_" d="M2.6,0l35.1,0C39,0,40,1.1,40,2.4v21.4c0,1.3-1.1,2.4-2.4,2.4H2.6c-1.3,0-2.4-1.1-2.4-2.4V2.4
			C0.2,1.1,1.3,0,2.6,0z"/>
	</defs>
	<clipPath id="XMLID_67_">
		<use xlink:href="#XMLID_8462_"  style="overflow:visible;"/>
	</clipPath>
	<g id="XMLID_8476_" class="st1">
		<defs>
			<path id="XMLID_8479_" d="M2.6,0l35.1,0C39,0,40,1.1,40,2.4v21.4c0,1.3-1.1,2.4-2.4,2.4H2.6c-1.3,0-2.4-1.1-2.4-2.4V2.4
				C0.2,1.1,1.3,0,2.6,0z"/>
		</defs>
		<clipPath id="XMLID_68_">
			<use xlink:href="#XMLID_8479_"  style="overflow:visible;"/>
		</clipPath>
		<path id="XMLID_8480_" class="st2" d="M2.6,0l35.1,0C39,0,40,1.1,40,2.4v21.4c0,1.3-1.1,2.4-2.4,2.4H2.6c-1.3,0-2.4-1.1-2.4-2.4
			V2.4C0.2,1.1,1.3,0,2.6,0z"/>
	</g>
	
		<linearGradient id="XMLID_69_" gradientUnits="userSpaceOnUse" x1="16391.6758" y1="-3126.6694" x2="16455.8633" y2="-3126.6694" gradientTransform="matrix(0.4367 0.8996 -0.8996 0.4367 -9972.7529 -13387.1738)">
		<stop  offset="0" style="stop-color:#231F20"/>
		<stop  offset="1" style="stop-color:#FFFFFF"/>
	</linearGradient>
	<path id="XMLID_8471_" class="st3" d="M10.2-12.4c0,0,12.2,39.6,32.2,46.1c20,6.5-6.5,10.1-6.5,10.1s-29.6-0.6-59-33"/>
	
		<linearGradient id="XMLID_70_" gradientUnits="userSpaceOnUse" x1="16390.7832" y1="-3138.2544" x2="16454.9707" y2="-3138.2544" gradientTransform="matrix(0.4367 0.8996 -0.8996 0.4367 -9972.7529 -13387.1738)">
		<stop  offset="0" style="stop-color:#231F20"/>
		<stop  offset="1" style="stop-color:#FFFFFF"/>
	</linearGradient>
	<path id="XMLID_8470_" class="st4" d="M20.2-18.3c0,0,12.2,39.6,32.2,46.1c20,6.5-6.5,10.1-6.5,10.1s-29.6-0.6-59-33"/>
	
		<linearGradient id="XMLID_71_" gradientUnits="userSpaceOnUse" x1="16592.084" y1="2342.7534" x2="16664.1191" y2="2347.146" gradientTransform="matrix(0.7063 0.708 -0.708 0.7063 -10057.9238 -13425.1387)">
		<stop  offset="0" style="stop-color:#FFFFFF"/>
		<stop  offset="1" style="stop-color:#231F20"/>
	</linearGradient>
	<path id="XMLID_8469_" class="st5" d="M8.8-30.3c0,0,27.1,34.2,48.5,34.9c21.4,0.7-2.2,11.3-2.2,11.3S26.9,23.4-13.6,0.7"/>
	
		<linearGradient id="XMLID_72_" gradientUnits="userSpaceOnUse" x1="9074.2891" y1="-13643.3252" x2="9102.2637" y2="-13691.8623" gradientTransform="matrix(-0.3338 0.9427 -0.9427 -0.3338 -9826.2344 -13127.04)">
		<stop  offset="0" style="stop-color:#FFFFFF"/>
		<stop  offset="1" style="stop-color:#231F20"/>
	</linearGradient>
	<path id="XMLID_8466_" class="st6" d="M45-18.4c0,0-25.4,35.1-16.9,51.5c8.5,16.4-13.2,3.2-13.2,3.2S-5.4,18.3,1.7-21.8"/>
</g>
<g id="XMLID_359_">
	<path id="XMLID_8460_" class="st7" d="M26.4,15.5c-0.8,0.4-1.9,0.8-3,1c-1,0.2-2.8-0.2-2.8-0.6c0-0.2,1.6,0.4,2.6,0.1
		c0.7-0.2,0.6-0.9,0.2-1c-0.4-0.1-2.7-0.9-3.7-1c-0.5,0-1.6,0.2-2.2,0.3c-0.2,0-0.3,0-0.3,0.2c-0.1,0.9-0.2,2.6-0.2,3.5
		c0,0,0,0.3,0.2,0.1c0.2-0.2,0.6-0.4,0.9-0.4c0.5,0.1,4.6,0.9,5.2,0.7c0.8-0.2,3.1-1.6,3.6-2C27.5,15.9,27,15.2,26.4,15.5"/>
	<path id="XMLID_8457_" class="st7" d="M16,14.3l-2.2-0.1c-0.2,0-0.3,0.1-0.4,0.3l-0.4,3.6c0,0.2,0.1,0.3,0.2,0.3h2.4
		c0.2,0,0.3-0.1,0.3-0.3l0.3-3.4C16.3,14.5,16.2,14.3,16,14.3 M14.8,17.9c-0.3,0-0.6-0.3-0.6-0.6c0-0.3,0.3-0.6,0.6-0.6
		c0.3,0,0.6,0.3,0.6,0.6C15.4,17.6,15.1,17.9,14.8,17.9"/>
	<g id="XMLID_368_">
		<g id="XMLID_8449_">
			<path id="XMLID_8452_" class="st7" d="M22.2,8.5v0.2c0.2,0,0.3,0,0.4,0.1c0.1,0,0.2,0.1,0.3,0.2C22.9,9.1,23,9.2,23,9.3
				c0,0.1,0.1,0.1,0.1,0.2c0,0.1,0,0.1-0.1,0.2c-0.1,0.1-0.1,0.1-0.2,0.1c-0.1,0-0.2-0.1-0.3-0.2c0-0.2-0.2-0.3-0.3-0.4v0.9
				c0.2,0,0.3,0.1,0.4,0.1c0.1,0,0.2,0.1,0.3,0.2c0.1,0.1,0.2,0.2,0.2,0.3c0,0.1,0.1,0.2,0.1,0.4c0,0.2,0,0.3-0.1,0.5
				c-0.1,0.1-0.2,0.3-0.3,0.3c-0.1,0.1-0.3,0.1-0.5,0.2v0.5c0,0.1,0,0.1,0,0.2c0,0-0.1,0.1-0.1,0.1c-0.1,0-0.1,0-0.1,0s0-0.1,0-0.1
				V12c-0.2,0-0.3-0.1-0.4-0.1c-0.1-0.1-0.2-0.1-0.3-0.2c-0.1-0.1-0.1-0.2-0.2-0.3c0-0.1-0.1-0.2-0.1-0.3c0-0.1,0-0.1,0.1-0.2
				c0.1-0.1,0.1-0.1,0.2-0.1c0.1,0,0.1,0,0.2,0c0,0,0.1,0.1,0.1,0.1c0,0.1,0.1,0.2,0.1,0.3c0,0.1,0.1,0.1,0.1,0.2
				c0.1,0.1,0.1,0.1,0.2,0.1v-1c-0.2-0.1-0.3-0.1-0.5-0.2c-0.1-0.1-0.2-0.2-0.3-0.3C21,10,21,9.8,21,9.6c0-0.2,0.1-0.4,0.2-0.6
				c0.2-0.2,0.4-0.2,0.7-0.3V8.5c0-0.1,0-0.2,0.1-0.2C22.1,8.3,22.2,8.4,22.2,8.5z M21.9,10V9.2c-0.1,0-0.2,0.1-0.3,0.1
				c-0.1,0.1-0.1,0.1-0.1,0.3c0,0.1,0,0.2,0.1,0.3C21.7,9.9,21.8,9.9,21.9,10z M22.2,10.6v0.9c0.1,0,0.3-0.1,0.3-0.2
				c0.1-0.1,0.1-0.2,0.1-0.3c0-0.1,0-0.2-0.1-0.3C22.4,10.7,22.3,10.7,22.2,10.6z"/>
		</g>
		<path id="XMLID_4689_" class="st7" d="M18.7,12.4c-1,0-1.8-0.8-1.8-1.8s0.8-1.8,1.8-1.8s1.8,0.8,1.8,1.8S19.7,12.4,18.7,12.4z
			 M18.7,11.9c0.8,0,1.4-0.6,1.4-1.4s-0.6-1.4-1.4-1.4c-0.8,0-1.4,0.6-1.4,1.4S18,11.9,18.7,11.9z M18.6,10.3h1v0.5h-1l0.3,0.3
			l-0.3,0.3l-0.8-0.8l0.8-0.8l0.3,0.3L18.6,10.3z"/>
		<path id="XMLID_4539_" class="st7" d="M25.3,8.7c1,0,1.8,0.8,1.8,1.8s-0.8,1.8-1.8,1.8c-1,0-1.8-0.8-1.8-1.8S24.3,8.7,25.3,8.7z
			 M25.3,9.2c-0.8,0-1.4,0.6-1.4,1.4s0.6,1.4,1.4,1.4c0.8,0,1.4-0.6,1.4-1.4S26.1,9.2,25.3,9.2z M25.5,10.8h-1v-0.5h1L25.2,10
			l0.3-0.3l0.8,0.8l-0.8,0.8l-0.3-0.3L25.5,10.8z"/>
		<path id="XMLID_4228_" class="st7" d="M18.6,10.5"/>
	</g>
</g>
</svg>
