<?xml version="1.0" encoding="utf-8"?>
<!-- Generator: Adobe Illustrator 19.0.0, SVG Export Plug-In . SVG Version: 6.00 Build 0)  -->
<svg version="1.1" id="Layer_1" xmlns="http://www.w3.org/2000/svg" xmlns:xlink="http://www.w3.org/1999/xlink" x="0px" y="0px"
	 viewBox="0 0 141.7 103.1" style="enable-background:new 0 0 141.7 103.1;" xml:space="preserve">
<style type="text/css">
	.st0{fill:#FFFFFF;}
</style>
<g id="XMLID_359_">
	<path id="XMLID_8460_" class="st0" d="M134,72.5c-8,4.4-18.9,8.5-29.8,10.2c-9.7,1.5-28-2.2-28-6.5c0-1.6,16,4.1,25.7,1.5
		c7.4-2,6.4-8.9,2.3-9.9c-4-0.9-27.6-9.5-37.7-9.8c-4.7-0.1-16.5,1.6-22.1,2.6c-1.9,0.3-3.2,0.3-3.3,2.1c-0.6,8.6-1.7,26.3-2.3,35.5
		c0,0.2,0.3,2.8,2.4,1c2.4-2,5.7-4.3,8.8-3.6c4.8,1.1,46.5,8.7,52.2,7.4c8.2-1.9,31.5-15.7,36-20C145.2,76.3,139.8,69.3,134,72.5"/>
	<path id="XMLID_8457_" class="st0" d="M29.7,60.2L7.9,59.1C6.2,59,4.5,60.3,4,61.9l-4,36c-0.4,1.6,0.6,3,2.3,3.1h24.2
		c1.7,0.1,3.2-1.3,3.3-2.9l2.7-34.7C32.7,61.7,31.4,60.3,29.7,60.2 M16.8,96.3c-3.3,0-6-2.7-6-6c0-3.3,2.7-6,6-6c3.3,0,6,2.7,6,6
		C22.9,93.6,20.2,96.3,16.8,96.3"/>
	<g id="XMLID_368_">
		<g id="XMLID_8449_">
			<path id="XMLID_8452_" class="st0" d="M91.7,1.8v2.3c1.5,0.2,2.8,0.5,3.9,0.9c1.1,0.5,2,1.2,2.9,2.1c0.6,0.7,1.1,1.5,1.5,2.2
				c0.3,0.8,0.5,1.5,0.5,2.1c0,0.7-0.3,1.3-0.8,1.9c-0.5,0.5-1.2,0.8-1.9,0.8c-1.4,0-2.3-0.8-2.7-2.3c-0.5-1.8-1.6-3-3.4-3.6v8.9
				c1.8,0.5,3.2,0.9,4.2,1.3c1,0.4,2,1,2.8,1.7c0.9,0.8,1.6,1.7,2,2.8c0.5,1.1,0.7,2.3,0.7,3.6c0,1.6-0.4,3.1-1.1,4.6
				c-0.8,1.4-1.9,2.6-3.4,3.5c-1.5,0.9-3.2,1.4-5.3,1.6v5.3c0,0.8-0.1,1.5-0.2,1.8c-0.2,0.4-0.5,0.6-1.1,0.6c-0.5,0-0.9-0.2-1.1-0.5
				c-0.2-0.3-0.3-0.8-0.3-1.5v-5.8c-1.7-0.2-3.1-0.6-4.4-1.2c-1.2-0.6-2.3-1.3-3.1-2.2c-0.8-0.9-1.5-1.8-1.9-2.8
				c-0.4-1-0.6-1.9-0.6-2.8c0-0.7,0.3-1.3,0.8-1.9c0.5-0.5,1.2-0.8,2-0.8c0.6,0,1.2,0.1,1.6,0.4c0.4,0.3,0.7,0.7,0.9,1.3
				c0.4,1.2,0.7,2.1,1,2.7c0.3,0.6,0.7,1.2,1.3,1.7c0.6,0.5,1.3,0.9,2.3,1.2V22c-1.9-0.5-3.5-1.1-4.8-1.8c-1.3-0.6-2.3-1.6-3.1-2.8
				c-0.8-1.2-1.2-2.7-1.2-4.6c0-2.5,0.8-4.5,2.3-6c1.6-1.6,3.8-2.5,6.8-2.7V1.8c0-1.2,0.4-1.8,1.3-1.8C91.2,0,91.7,0.6,91.7,1.8z
				 M88.9,16.4V8.2c-1.2,0.4-2.1,0.8-2.8,1.4s-1,1.5-1,2.7c0,1.1,0.3,2,0.9,2.6C86.7,15.4,87.7,16,88.9,16.4z M91.7,22.8v9.4
				c1.4-0.3,2.6-0.9,3.3-1.7c0.8-0.9,1.2-1.9,1.2-3c0-1.2-0.4-2.2-1.1-2.9C94.3,23.8,93.1,23.3,91.7,22.8z"/>
		</g>
		<path id="XMLID_4689_" class="st0" d="M56.9,40.4c-10.1,0-18.3-8.2-18.3-18.3S46.8,3.7,56.9,3.7S75.3,11.9,75.3,22
			S67,40.4,56.9,40.4z M56.9,35.8c7.6,0,13.8-6.2,13.8-13.8S64.5,8.3,56.9,8.3c-7.6,0-13.8,6.2-13.8,13.8S49.3,35.8,56.9,35.8z
			 M55.6,19.7h10.5v4.6H55.6l3,3l-3.2,3.2L46.8,22l8.5-8.5l3.2,3.2L55.6,19.7z"/>
		<path id="XMLID_4539_" class="st0" d="M123.5,3.7c10.1,0,18.3,8.2,18.3,18.3s-8.2,18.3-18.3,18.3s-18.3-8.2-18.3-18.3
			S113.4,3.7,123.5,3.7z M123.5,8.3c-7.6,0-13.8,6.2-13.8,13.8s6.2,13.8,13.8,13.8s13.8-6.2,13.8-13.8S131.1,8.3,123.5,8.3z
			 M124.9,24.3h-10.5v-4.6h10.5l-3-3l3.2-3.2l8.5,8.5l-8.5,8.5l-3.2-3.2L124.9,24.3z"/>
		<path id="XMLID_4228_" class="st0" d="M55.6,22"/>
	</g>
</g>
</svg>
