<?xml version="1.0" encoding="utf-8"?>
<!-- Generator: Adobe Illustrator 19.0.0, SVG Export Plug-In . SVG Version: 6.00 Build 0)  -->
<svg version="1.1" id="Layer_1" xmlns="http://www.w3.org/2000/svg" xmlns:xlink="http://www.w3.org/1999/xlink" x="0px" y="0px"
	 viewBox="0 0 53.3 55" style="enable-background:new 0 0 53.3 55;" xml:space="preserve">
<style type="text/css">
	.st0{fill:#414042;}
</style>
<g id="XMLID_14113_">
	<path id="XMLID_14115_" class="st0" d="M25.7,40.4c0.3,0.4,0.8,0.6,1.2,0.6c0.5,0,0.9-0.2,1.2-0.6l11.4-13c0.4-0.5,0.5-1.2,0.3-1.7
		c-0.3-0.6-0.8-1-1.5-1h-6.5V3.6C31.8,2.7,31,2,30.1,2h-6.5C22.7,2,22,2.7,22,3.6v21.1h-6.5c-0.6,0-1.2,0.4-1.5,1
		c-0.3,0.6-0.2,1.3,0.3,1.7L25.7,40.4z"/>
	<path id="XMLID_14114_" class="st0" d="M44.8,37.7v9.7H9v-9.7H2.5v13C2.5,52.5,4,54,5.8,54H48c1.8,0,3.2-1.5,3.2-3.2v-13H44.8z"/>
</g>
</svg>
