<?xml version="1.0" encoding="utf-8"?>
<!-- Generator: Adobe Illustrator 19.0.0, SVG Export Plug-In . SVG Version: 6.00 Build 0)  -->
<svg version="1.1" id="Layer_1" xmlns="http://www.w3.org/2000/svg" xmlns:xlink="http://www.w3.org/1999/xlink" x="0px" y="0px"
	 viewBox="0 0 132.9 141.7" style="enable-background:new 0 0 132.9 141.7;" xml:space="preserve">
<style type="text/css">
	.st0{fill:#30B14A;}
</style>
<g id="XMLID_14631_">
	<path id="XMLID_14637_" class="st0" d="M63.1,104.8c0.8,1,2.1,1.5,3.3,1.5c1.3,0,2.5-0.6,3.3-1.5l31-35.4c1.2-1.3,1.4-3.2,0.7-4.8
		c-0.7-1.6-2.3-2.6-4-2.6H79.7V4.4c0-2.4-2-4.4-4.4-4.4H57.6c-2.4,0-4.4,2-4.4,4.4V62H35.4c-1.7,0-3.3,1-4,2.6
		c-0.7,1.6-0.4,3.4,0.7,4.8L63.1,104.8z"/>
	<path id="XMLID_14636_" class="st0" d="M115.2,97.4V124H17.7V97.4H0v35.4c0,4.9,4,8.9,8.9,8.9H124c4.9,0,8.9-4,8.9-8.9V97.4H115.2z
		"/>
</g>
</svg>
