<?xml version="1.0" encoding="utf-8"?>
<!-- Generator: Adobe Illustrator 19.0.0, SVG Export Plug-In . SVG Version: 6.00 Build 0)  -->
<svg version="1.1" id="Layer_1" xmlns="http://www.w3.org/2000/svg" xmlns:xlink="http://www.w3.org/1999/xlink" x="0px" y="0px"
	 viewBox="0 0 132.5 141.7" style="enable-background:new 0 0 132.5 141.7;" xml:space="preserve">
<style type="text/css">
	.st0{fill:#414042;}
</style>
<g id="XMLID_14113_">
	<path id="XMLID_14115_" class="st0" d="M62.9,104.5c0.8,1,2,1.5,3.3,1.5c1.3,0,2.5-0.6,3.3-1.5l30.9-35.3c1.1-1.3,1.4-3.2,0.7-4.7
		c-0.7-1.6-2.3-2.6-4-2.6H79.5V4.4c0-2.4-2-4.4-4.4-4.4H57.4C55,0,53,2,53,4.4v57.4H35.3c-1.7,0-3.3,1-4,2.6
		c-0.7,1.6-0.4,3.4,0.7,4.7L62.9,104.5z"/>
	<path id="XMLID_14114_" class="st0" d="M114.8,97.2v26.5H17.7V97.2H0v35.3c0,4.9,4,8.8,8.8,8.8h114.8c4.9,0,8.8-3.9,8.8-8.8V97.2
		H114.8z"/>
</g>
</svg>
