<?xml version="1.0" encoding="utf-8"?>
<!-- Generator: Adobe Illustrator 19.0.0, SVG Export Plug-In . SVG Version: 6.00 Build 0)  -->
<svg version="1.1" id="Layer_1" xmlns="http://www.w3.org/2000/svg" xmlns:xlink="http://www.w3.org/1999/xlink" x="0px" y="0px"
	 viewBox="0 0 53.3 55" style="enable-background:new 0 0 53.3 55;" xml:space="preserve">
<style type="text/css">
	.st0{fill:#30B14A;}
	.st1{fill:#FFFFFF;}
</style>
<path id="XMLID_6310_" class="st0" d="M35.7,53.5H16.9C7.6,53.5,0,46,0,36.7V17.9C0,8.6,7.6,1,16.9,1h18.8C45,1,52.5,8.6,52.5,17.9
	v18.8C52.5,46,45,53.5,35.7,53.5z"/>
<path id="XMLID_6607_" class="st0" d="M107.6-9.2h-1.4c-0.8,0-1.5-0.7-1.5-1.5v-1.4c0-0.8,0.7-1.5,1.5-1.5h1.4
	c0.8,0,1.5,0.7,1.5,1.5v1.4C109.1-9.8,108.4-9.2,107.6-9.2z"/>
<g id="XMLID_9165_">
	<path id="XMLID_9167_" class="st1" d="M25.9,34.3c0.2,0.2,0.4,0.3,0.7,0.3c0.3,0,0.5-0.1,0.7-0.3l6.4-7.3c0.2-0.3,0.3-0.7,0.1-1
		c-0.1-0.3-0.5-0.5-0.8-0.5h-3.7V13.6c0-0.5-0.4-0.9-0.9-0.9h-3.7c-0.5,0-0.9,0.4-0.9,0.9v11.9h-3.7c-0.4,0-0.7,0.2-0.8,0.5
		c-0.2,0.3-0.1,0.7,0.1,1L25.9,34.3z"/>
	<path id="XMLID_9166_" class="st1" d="M36.7,32.8v5.5H16.6v-5.5h-3.7v7.3c0,1,0.8,1.8,1.8,1.8h23.8c1,0,1.8-0.8,1.8-1.8v-7.3H36.7z
		"/>
</g>
</svg>
