<?xml version="1.0" encoding="utf-8"?>
<!-- Generator: Adobe Illustrator 19.0.0, SVG Export Plug-In . SVG Version: 6.00 Build 0)  -->
<svg version="1.1" id="Layer_1" xmlns="http://www.w3.org/2000/svg" xmlns:xlink="http://www.w3.org/1999/xlink" x="0px" y="0px"
	 viewBox="0 0 141.7 141.7" style="enable-background:new 0 0 141.7 141.7;" xml:space="preserve">
<style type="text/css">
	.st0{fill:#30B14A;}
	.st1{fill:#FFFFFF;}
</style>
<path id="XMLID_6310_" class="st0" d="M96.6,141.7H45.1C20.2,141.7,0,121.5,0,96.6V45.1C0,20.2,20.2,0,45.1,0h51.5
	c24.9,0,45.1,20.2,45.1,45.1v51.5C141.7,121.5,121.5,141.7,96.6,141.7z"/>
<path id="XMLID_6607_" class="st0" d="M301.8,141.7H163c-0.8,0-1.5-0.7-1.5-1.5V1.5c0-0.8,0.7-1.5,1.5-1.5h138.8
	c0.8,0,1.5,0.7,1.5,1.5v138.8C303.3,141.1,302.6,141.7,301.8,141.7z"/>
<g id="XMLID_9165_">
	<path id="XMLID_9167_" class="st1" d="M69,89.4c0.5,0.5,1.1,0.8,1.8,0.8c0.7,0,1.4-0.3,1.8-0.8L89.6,70c0.6-0.7,0.8-1.7,0.4-2.6
		c-0.4-0.9-1.3-1.4-2.2-1.4h-9.7V34.6c0-1.3-1.1-2.4-2.4-2.4H66c-1.3,0-2.4,1.1-2.4,2.4V66h-9.7c-0.9,0-1.8,0.6-2.2,1.4
		c-0.4,0.9-0.2,1.9,0.4,2.6L69,89.4z"/>
	<path id="XMLID_9166_" class="st1" d="M97.5,85.4v14.5H44.3V85.4h-9.7v19.4c0,2.7,2.2,4.8,4.8,4.8h62.9c2.7,0,4.8-2.2,4.8-4.8V85.4
		H97.5z"/>
</g>
</svg>
