<?xml version="1.0" encoding="utf-8"?>
<!-- Generator: Adobe Illustrator 19.0.0, SVG Export Plug-In . SVG Version: 6.00 Build 0)  -->
<svg version="1.1" id="Layer_1" xmlns="http://www.w3.org/2000/svg" xmlns:xlink="http://www.w3.org/1999/xlink" x="0px" y="0px"
	 viewBox="0 0 41.3 37.6" style="enable-background:new 0 0 41.3 37.6;" xml:space="preserve">
<style type="text/css">
	.st0{fill:#30B14A;}
	.st1{fill:#F5F5F5;}
	.st2{fill:#EBEBEB;}
	.st3{opacity:0.1;fill:#30B14A;}
	.st4{fill:#FFFFFF;}
	.st5{fill:#FAFAFA;}
	.st6{fill:#E0E0E0;}
	.st7{fill:#455A64;}
	.st8{fill:#27DEBF;}
	.st9{opacity:0.1;}
	.st10{opacity:0.4;fill:#FFFFFF;}
	.st11{opacity:0.2;}
	.st12{fill:#FAFAFA;stroke:#E0E0E0;stroke-width:1.1698;stroke-miterlimit:10;}
	.st13{fill:#37474F;}
	.st14{fill:#C3262C;}
</style>
<path id="XMLID_6607_" class="st0" d="M107.6-9.2h-1.4c-0.8,0-1.5-0.7-1.5-1.5v-1.4c0-0.8,0.7-1.5,1.5-1.5h1.4
	c0.8,0,1.5,0.7,1.5,1.5v1.4C109.1-9.8,108.4-9.2,107.6-9.2z"/>
<g id="XMLID_4741_">
	<path id="Floor_15_" class="st1" d="M6.5,32.2c7.4,3.8,19.3,3.8,26.7,0c7.4-3.8,7.4-9.9,0-13.6c-7.4-3.8-19.3-3.8-26.7,0
		C-0.9,22.3-0.9,28.4,6.5,32.2z"/>
	<path id="Shadow_6_" class="st2" d="M30.6,26.2c0.4,0.2,1.2,0.2,1.8-0.2l3.3-1.9c0.6-0.3,0.7-0.8,0.3-1c-0.4-0.2-1.2-0.2-1.8,0.2
		l-3.3,1.9C30.3,25.5,30.2,26,30.6,26.2z"/>
	<polygon id="Shadow_5_" class="st2" points="10.6,28 7.3,26 10.6,24.1 	"/>
	<polygon id="Shadow_4_" class="st2" points="20.2,29.1 14.7,26 20.2,22.9 	"/>
	<g id="XMLID_10466_">
		<path id="XMLID_10468_" class="st0" d="M6.1,23.4c0-0.8-0.5-2.4-1.3-3.5c-0.8-1-2.1-1.8-3-1.5C0.9,18.7,1,19.9,2,20.6
			c1,0.8,2.6,1.7,3,3l0.9,1.6L6.1,23.4z"/>
		<path id="XMLID_10467_" class="st3" d="M6.1,23.4c0-0.8-0.5-2.4-1.3-3.5c-0.8-1-2.1-1.8-3-1.5C0.9,18.7,1,19.9,2,20.6
			c1,0.8,2.6,1.7,3,3l0.9,1.6L6.1,23.4z"/>
	</g>
	<g id="XMLID_10464_">
		<path id="XMLID_10465_" class="st4" d="M6.1,24.5C6.1,24.5,6.1,24.5,6.1,24.5c-0.5-2.7-2.7-5-4-5.5c0,0,0,0,0-0.1c0,0,0,0,0.1,0
			C3.5,19.4,5.7,21.7,6.1,24.5C6.2,24.5,6.2,24.5,6.1,24.5C6.1,24.5,6.1,24.5,6.1,24.5z"/>
	</g>
	<g id="XMLID_10461_">
		<path id="XMLID_10462_" class="st0" d="M5.7,26.2c-0.1-0.4-0.7-1.2-1.5-1.8c-1-0.7-2.2-1-2.5-1.5c-0.3-0.6,0.2-1.2,1.2-1.1
			s2.7,1.5,3,3.6L5.7,26.2z"/>
	</g>
	<g id="XMLID_10459_">
		<path id="XMLID_10460_" class="st4" d="M5.9,25.8C5.9,25.8,5.9,25.7,5.9,25.8c-0.8-2.4-2.6-3.2-3.4-3.3c0,0-0.1,0,0-0.1
			c0,0,0-0.1,0.1,0C3.4,22.5,5.2,23.3,5.9,25.8C6,25.7,6,25.7,5.9,25.8C5.9,25.8,5.9,25.8,5.9,25.8z"/>
	</g>
	<path id="XMLID_10451_" class="st0" d="M35.5,21.2c0,0,0.1-1.7,1.1-2.9c1-1.2,0.9-1.7,0.2-2c-0.7-0.2-2.2,1.2-1.9,3.2
		S35.5,21.2,35.5,21.2z"/>
	<g id="XMLID_10447_">
		<path id="XMLID_10448_" class="st4" d="M35.2,20.2C35.2,20.2,35.2,20.2,35.2,20.2c-0.2-1.9,1.1-3.4,1.6-3.7c0,0,0,0,0.1,0
			c0,0,0,0,0,0.1C36.4,16.9,35.1,18.4,35.2,20.2C35.2,20.2,35.2,20.2,35.2,20.2C35.2,20.2,35.2,20.2,35.2,20.2z"/>
	</g>
	<path id="XMLID_10445_" class="st0" d="M35.2,22.5c0,0,0.6,0.2,1.3,0.3c0.8,0.1,1.1-0.2,1.1-0.2s-0.3-0.7-0.7-0.9
		c0,0,0.7,0.1,1.3,0.5c0,0,0.5,0,0.6-0.7c0,0-0.3-0.4-1.2-0.7c0,0,0.6-0.1,1.4,0.1c0.1,0,0.3-0.9,0.4-1.3c0.1-0.4-0.1-0.4-0.4-0.5
		c-0.3-0.1-1.4-0.3-1.6-0.2c-0.2,0.2-0.3,0.8-0.3,0.8s-0.1-0.4,0-0.8c0,0-0.3-0.1-0.8,0c-0.4,0.1-0.4,0.4-0.4,0.7
		c0,0.2,0.1,0.4,0.2,0.7c0,0-0.3-0.4-0.3-1.2c0,0-0.8,0.4-0.9,1.1C34.8,20.8,34.7,22,35.2,22.5z"/>
	<g id="XMLID_10443_">
		<path id="XMLID_10444_" class="st4" d="M35.4,22.4C35.4,22.4,35.4,22.4,35.4,22.4c0.7-1.3,2.9-2.8,3.7-2.9c0,0,0,0,0-0.1
			c0,0,0,0-0.1,0C38.3,19.5,35.9,21,35.4,22.4C35.3,22.4,35.3,22.4,35.4,22.4C35.4,22.4,35.4,22.4,35.4,22.4z"/>
	</g>
	<g id="XMLID_10440_">
		<path id="XMLID_16_" class="st5" d="M6.2,13l16-9.2v13c0,0,0,0.1-0.1,0.1L6.2,26V13z"/>
		<path id="XMLID_13_" class="st6" d="M21.6,4.7l0,11.7L6.8,25V13.3L21.6,4.7 M22.8,2.7L5.6,12.6v14c0,0.2,0.1,0.3,0.2,0.3
			c0,0,0.1,0,0.2,0l16.5-9.5c0.2-0.1,0.4-0.4,0.4-0.6L22.8,2.7L22.8,2.7z"/>
	</g>
	<polygon id="XMLID_10439_" class="st0" points="5.6,12.6 5.6,15 22.8,5 22.8,2.7 	"/>
	<path id="XMLID_10438_" class="st5" d="M6.9,12.7l0,0.3c0,0.1,0,0.1,0.1,0.1l5.3-3l0-0.6l-5.3,3C7,12.6,6.9,12.7,6.9,12.7z"/>
	<path id="XMLID_10437_" class="st7" d="M12.9,9.2c0.1,0,0.1,0,0.1,0.1v0.3c0,0.1,0,0.2-0.1,0.2l-0.6,0.3l0-0.6L12.9,9.2z"/>
	<path id="XMLID_10436_" class="st7" d="M5.6,11.9c0-0.2,0.2-0.5,0.4-0.6l16.5-9.5c0.2-0.1,0.4,0,0.4,0.2v0.8L5.6,12.6V11.9z"/>
	<g id="XMLID_10432_">
		<path id="XMLID_10435_" class="st8" d="M20.9,3c-0.1,0.1-0.2,0.2-0.2,0.3c0,0.1,0.1,0.2,0.2,0.1C21,3.4,21,3.2,21,3.1
			C21,3,21,3,20.9,3z"/>
		<path id="XMLID_10434_" class="st8" d="M21.4,2.7c-0.1,0.1-0.2,0.2-0.2,0.3c0,0.1,0.1,0.2,0.2,0.1c0.1-0.1,0.2-0.2,0.2-0.3
			C21.6,2.7,21.5,2.7,21.4,2.7z"/>
		<path id="XMLID_10433_" class="st8" d="M21.9,2.4c-0.1,0.1-0.2,0.2-0.2,0.3c0,0.1,0.1,0.2,0.2,0.1c0.1-0.1,0.2-0.2,0.2-0.3
			C22.1,2.4,22,2.4,21.9,2.4z"/>
	</g>
	<g id="XMLID_10427_" class="st9">
		<path id="XMLID_10431_" d="M17.4,6.6C17.2,6.7,17,7,17,7.2c0,0.2,0.2,0.3,0.4,0.2c0.2-0.1,0.4-0.4,0.4-0.6
			C17.7,6.5,17.6,6.4,17.4,6.6z"/>
		<path id="XMLID_10430_" d="M15.7,7.5c-0.2,0.1-0.4,0.4-0.4,0.6c0,0.2,0.2,0.3,0.4,0.2c0.2-0.1,0.4-0.4,0.4-0.6
			C16.1,7.5,15.9,7.4,15.7,7.5z"/>
		<path id="XMLID_10429_" d="M19.1,5.6c-0.2,0.1-0.4,0.4-0.4,0.6c0,0.2,0.2,0.3,0.4,0.2c0.2-0.1,0.4-0.4,0.4-0.6
			C19.4,5.6,19.3,5.5,19.1,5.6z"/>
		<path id="XMLID_10428_" d="M20.7,4.6c-0.2,0.1-0.4,0.4-0.4,0.6c0,0.2,0.2,0.3,0.4,0.2c0.2-0.1,0.4-0.4,0.4-0.6
			C21.1,4.6,21,4.5,20.7,4.6z"/>
	</g>
	<path id="XMLID_10425_" class="st6" d="M7.3,15.1l4-2.3c0.2-0.1,0.4,0,0.4,0.2v3.8c0,0.2-0.2,0.5-0.4,0.6l-4,2.3
		c-0.2,0.1-0.4,0-0.4-0.2l0-3.8C6.9,15.5,7.1,15.2,7.3,15.1z"/>
	<path id="XMLID_10424_" class="st6" d="M13,11.8L21.4,7c0.2-0.1,0.4,0,0.4,0.2V11c0,0.2-0.2,0.5-0.4,0.6L13,16.5
		c-0.2,0.1-0.4,0-0.4-0.2l0-3.8C12.7,12.2,12.8,11.9,13,11.8z"/>
	<g id="XMLID_10420_">
		<path id="XMLID_10423_" class="st6" d="M7.3,21l6.4-3.7c0.2-0.1,0.4,0,0.4,0.2s-0.2,0.5-0.4,0.6l-6.4,3.7c-0.2,0.1-0.4,0-0.4-0.2
			C6.9,21.3,7.1,21.1,7.3,21z"/>
		<path id="XMLID_10422_" class="st6" d="M7.3,22.3l6.4-3.7c0.2-0.1,0.4,0,0.4,0.2c0,0.2-0.2,0.5-0.4,0.6l-6.4,3.7
			c-0.2,0.1-0.4,0-0.4-0.2C6.9,22.7,7.1,22.4,7.3,22.3z"/>
		<path id="XMLID_10421_" class="st6" d="M7.3,23.7l6.4-3.7c0.2-0.1,0.4,0,0.4,0.2s-0.2,0.5-0.4,0.6l-6.4,3.7
			c-0.2,0.1-0.4,0-0.4-0.2C6.9,24.1,7.1,23.8,7.3,23.7z"/>
	</g>
	<g id="XMLID_10416_">
		<g id="XMLID_25_">
			<g id="XMLID_26_">
				<path id="XMLID_66_" class="st0" d="M10.3,19.1c0-0.1,0.1-0.3,0.2-0.4l11-6.4c0.1-0.1,0.3-0.1,0.4,0l0.2,0.1
					c0.1,0.1,0.2,0.2,0.2,0.4v8.4c0,0.1-0.1,0.3-0.2,0.4l-11,6.4c-0.1,0.1-0.3,0.1-0.4,0l-0.2-0.1c-0.1-0.1-0.2-0.2-0.2-0.4
					L10.3,19.1z"/>
			</g>
		</g>
	</g>
	<path id="XMLID_10415_" class="st10" d="M10.4,18.9l0.6,0.4l11.4-6.6c0-0.1-0.1-0.1-0.2-0.2L22,12.3c-0.1-0.1-0.3-0.1-0.4,0
		l-11,6.4C10.5,18.7,10.4,18.8,10.4,18.9z"/>
	<path id="XMLID_10414_" class="st9" d="M10.3,19.1v8.4c0,0.1,0.1,0.3,0.2,0.4l0.2,0.1c0,0,0,0,0.1,0c0,0,0.1,0,0.1,0
		c0.1,0,0.1,0,0.2,0c0,0,0,0,0,0c0,0,0,0,0,0c0,0-0.1,0-0.1,0c0,0-0.1-0.1-0.1-0.1v-8.4c0-0.1,0-0.2,0.1-0.2L11,19.2l-0.6-0.4
		C10.3,18.9,10.3,19,10.3,19.1z"/>
	<path id="XMLID_10413_" class="st11" d="M11,19.2l5.1,1.9c0.4,0.1,0.8,0,1-0.3l0.8-1.3l4.5-6.9l-4.4,7l4.4,1.7c0,0.1,0,0.1-0.1,0.2
		L18,19.6l-1,1.5c-0.2,0.3-0.7,0.5-1,0.3l-0.7-0.3L11,28.1c0,0-0.1-0.1-0.1-0.1v-0.1l4.4-6.6L11,19.2z"/>
	<path id="XMLID_10411_" class="st12" d="M20.1,9.5v19.4c0,0.2,0.2,0.3,0.4,0.2l8.7-5c0.2-0.1,0.4-0.4,0.4-0.6V4.1
		c0-0.2-0.2-0.3-0.4-0.2l-8.7,5C20.2,9,20.1,9.3,20.1,9.5z"/>
	<path id="XMLID_10410_" class="st7" d="M20.6,9.9c0-0.1,0-0.1,0.1-0.2l1-0.6c0.1,0,0.1,0,0.1,0c0,0.1,0,0.1-0.1,0.2L20.6,9.9
		C20.6,10,20.6,9.9,20.6,9.9z"/>
	<path id="XMLID_10409_" class="st7" d="M20.6,10.3c0-0.1,0-0.1,0.1-0.2l1-0.6c0.1,0,0.1,0,0.1,0c0,0.1,0,0.1-0.1,0.2L20.6,10.3
		C20.6,10.3,20.6,10.3,20.6,10.3z"/>
	<path id="XMLID_10408_" class="st7" d="M20.6,10.7c0-0.1,0-0.1,0.1-0.2l1-0.6c0.1,0,0.1,0,0.1,0c0,0.1,0,0.1-0.1,0.2L20.6,10.7
		C20.6,10.7,20.6,10.7,20.6,10.7z"/>
	<path id="XMLID_10405_" class="st13" d="M28.8,5.7V5.5c0,0,0,0,0,0l-0.1,0.1c0,0,0,0,0,0c0,0,0,0,0-0.1c0,0,0,0,0,0l0.1-0.2
		c0,0,0,0,0,0l-0.1,0c0,0,0,0,0,0l-0.1,0.1c0,0,0,0,0,0c0,0,0,0-0.1,0c0,0,0,0,0,0l0-0.1c0,0,0,0,0,0l-0.1,0.1c0,0,0,0,0,0l0,0.1
		c0,0,0,0,0,0c0,0-0.1,0.1-0.1,0.1c0,0,0,0,0,0l-0.1,0c0,0,0,0,0,0l-0.1,0.2c0,0,0,0,0,0L28,5.9c0,0,0,0,0,0c0,0,0,0.1,0,0.1
		c0,0,0,0,0,0l-0.1,0.1c0,0,0,0,0,0v0.2c0,0,0,0,0,0l0.1-0.1c0,0,0,0,0,0c0,0,0,0,0,0.1c0,0,0,0,0,0l-0.1,0.2c0,0,0,0,0,0l0.1,0
		c0,0,0,0,0,0l0.1-0.1c0,0,0,0,0,0c0,0,0,0,0.1,0c0,0,0,0,0,0l0,0.1c0,0,0,0,0,0l0.1-0.1c0,0,0,0,0,0l0-0.1c0,0,0,0,0,0
		c0,0,0.1-0.1,0.1-0.1c0,0,0,0,0,0l0.1,0c0,0,0,0,0,0L28.7,6c0,0,0,0,0,0l-0.1-0.1c0,0,0,0,0,0c0,0,0-0.1,0-0.1c0,0,0,0,0,0
		L28.8,5.7C28.8,5.7,28.8,5.7,28.8,5.7z M28.3,6.2c-0.1,0.1-0.2,0-0.2-0.1c0-0.1,0.1-0.3,0.2-0.4c0.1-0.1,0.2,0,0.2,0.1
		C28.5,5.9,28.4,6.1,28.3,6.2z"/>
	<path id="XMLID_10404_" class="st7" d="M24.8,9.5c1-0.6,1.8-0.1,1.8,1.1s-0.8,2.6-1.8,3.2c-1,0.6-1.8,0.1-1.8-1.1
		C22.9,11.5,23.8,10.1,24.8,9.5z"/>
	<path id="XMLID_10403_" class="st14" d="M24.8,10.4c0.3-0.2,0.6,0,0.6,0.3c0,0.4-0.3,0.8-0.6,1c-0.3,0.2-0.6,0-0.6-0.3
		C24.2,11.1,24.4,10.6,24.8,10.4z"/>
	<path id="XMLID_10402_" class="st14" d="M26,12.5c0-0.6-0.4-0.9-1-0.6l-0.3,0.2c-0.5,0.3-1,1.1-1,1.7V14c0.1,0,0.2,0,0.3,0
		c0.2,0,0.5-0.1,0.8-0.3c0.4-0.3,0.8-0.7,1.2-1.2V12.5z"/>
	<path id="XMLID_10400_" class="st14" d="M23.1,15.5l3.3-1.9c0.1-0.1,0.2,0,0.2,0.1c0,0.1-0.1,0.2-0.2,0.3l-3.3,1.9
		c-0.1,0.1-0.2,0-0.2-0.1C22.9,15.7,23,15.6,23.1,15.5z"/>
	<path id="XMLID_10399_" class="st0" d="M22.8,16.9l4-2.3c0.1-0.1,0.2,0,0.2,0.1s-0.1,0.2-0.2,0.3l-4,2.3c-0.1,0.1-0.2,0-0.2-0.1
		C22.6,17.1,22.7,16.9,22.8,16.9z"/>
	<path id="XMLID_10398_" class="st13" d="M26.9,16.4l1.1-0.7c0.1,0,0.1,0,0.1,0c0,0.1,0,0.1-0.1,0.2l-1.1,0.7c-0.1,0-0.1,0-0.1,0
		S26.9,16.5,26.9,16.4z"/>
	<path id="XMLID_10397_" class="st14" d="M21.3,19.3l1.7-1c0.1-0.1,0.2,0,0.2,0.1v1.1c0,0.1-0.1,0.3-0.2,0.3l-1.7,1
		c-0.1,0.1-0.2,0-0.2-0.1v-1.1C21.1,19.5,21.2,19.4,21.3,19.3z"/>
	<path id="XMLID_10396_" class="st5" d="M21.5,19.5l1.1-0.7c0.1,0,0.1,0,0.1,0c0,0.1,0,0.1-0.1,0.2l-1.1,0.7c-0.1,0-0.1,0-0.1,0
		S21.5,19.5,21.5,19.5z"/>
	<path id="XMLID_10395_" class="st5" d="M21.4,20v0.3c0,0.1,0,0.1,0.1,0.1l1.1-0.7c0.1,0,0.1-0.1,0.1-0.2l0-0.3c0-0.1,0-0.1-0.1-0.1
		l-1.1,0.7C21.5,19.9,21.4,20,21.4,20z"/>
	<path id="XMLID_10393_" class="st14" d="M24,17.7l1.7-1c0.1-0.1,0.2,0,0.2,0.1l0,1.1c0,0.1-0.1,0.3-0.2,0.3l-1.7,1
		c-0.1,0.1-0.2,0-0.2-0.1l0-1.1C23.8,17.9,23.9,17.8,24,17.7z"/>
	<path id="XMLID_10392_" class="st5" d="M24.2,17.9l1.1-0.7c0.1,0,0.1,0,0.1,0c0,0.1,0,0.1-0.1,0.2l-1.1,0.7c-0.1,0-0.1,0-0.1,0
		S24.2,17.9,24.2,17.9z"/>
	<path id="XMLID_10391_" class="st5" d="M24.1,18.5v0.3c0,0.1,0,0.1,0.1,0.1l1.1-0.7c0.1,0,0.1-0.1,0.1-0.2l0-0.3
		c0-0.1,0-0.1-0.1-0.1l-1.1,0.7C24.2,18.3,24.1,18.4,24.1,18.5z"/>
	<path id="XMLID_10389_" class="st14" d="M26.7,16.2l1.7-1c0.1-0.1,0.2,0,0.2,0.1v1.1c0,0.1-0.1,0.3-0.2,0.3l-1.7,1
		c-0.1,0.1-0.2,0-0.2-0.1v-1.1C26.5,16.4,26.6,16.2,26.7,16.2z"/>
	<path id="XMLID_10388_" class="st5" d="M26.9,16.4l1.1-0.7c0.1,0,0.1,0,0.1,0c0,0.1,0,0.1-0.1,0.2l-1.1,0.7c-0.1,0-0.1,0-0.1,0
		C26.8,16.5,26.9,16.4,26.9,16.4z"/>
	<path id="XMLID_10387_" class="st5" d="M26.8,16.9v0.3c0,0.1,0,0.1,0.1,0.1l1.1-0.7c0.1,0,0.1-0.1,0.1-0.2l0-0.3
		c0-0.1,0-0.1-0.1-0.1l-1.1,0.7C26.9,16.8,26.8,16.9,26.8,16.9z"/>
	<path id="XMLID_10385_" class="st6" d="M21.4,21.9l6.7-3.9c0.2-0.1,0.4,0,0.4,0.2c0,0.2-0.2,0.5-0.4,0.6l-6.7,3.9
		c-0.2,0.1-0.4,0-0.4-0.2C21.1,22.3,21.2,22,21.4,21.9z"/>
	<path id="XMLID_10384_" class="st6" d="M21.4,23.5l6.7-3.9c0.2-0.1,0.4,0,0.4,0.2s-0.2,0.5-0.4,0.6l-6.7,3.9
		c-0.2,0.1-0.4,0-0.4-0.2C21.1,23.9,21.2,23.6,21.4,23.5z"/>
	<path id="XMLID_10383_" class="st14" d="M23.6,24.2l2.3-1.3c0.1-0.1,0.2,0,0.2,0.1l0,0.8c0,0.1-0.1,0.3-0.2,0.3l-2.3,1.3
		c-0.1,0.1-0.2,0-0.2-0.1l0-0.8C23.4,24.4,23.5,24.2,23.6,24.2z"/>
	<g id="XMLID_10095_">
		<path id="XMLID_10382_" class="st5" d="M21.6,22c-0.1,0.1-0.2,0.2-0.2,0.3s0.1,0.2,0.2,0.1c0.1-0.1,0.2-0.2,0.2-0.3
			C21.8,22,21.7,22,21.6,22z"/>
		<path id="XMLID_10381_" class="st5" d="M22.1,21.7C22,21.8,22,21.9,22,22c0,0.1,0.1,0.2,0.2,0.1c0.1-0.1,0.2-0.2,0.2-0.3
			C22.3,21.7,22.2,21.7,22.1,21.7z"/>
		<path id="XMLID_10100_" class="st5" d="M22.7,21.4c-0.1,0.1-0.2,0.2-0.2,0.3c0,0.1,0.1,0.2,0.2,0.1s0.2-0.2,0.2-0.3
			C22.8,21.4,22.8,21.4,22.7,21.4z"/>
		<path id="XMLID_10099_" class="st5" d="M23.2,21.1c-0.1,0.1-0.2,0.2-0.2,0.3s0.1,0.2,0.2,0.1s0.2-0.2,0.2-0.3
			C23.4,21.1,23.3,21.1,23.2,21.1z"/>
		<path id="XMLID_10098_" class="st5" d="M23.7,20.8c-0.1,0.1-0.2,0.2-0.2,0.3s0.1,0.2,0.2,0.1c0.1-0.1,0.2-0.2,0.2-0.3
			C23.9,20.8,23.8,20.7,23.7,20.8z"/>
		<path id="XMLID_10097_" class="st5" d="M24.3,20.5c-0.1,0.1-0.2,0.2-0.2,0.3s0.1,0.2,0.2,0.1c0.1-0.1,0.2-0.2,0.2-0.3
			S24.4,20.4,24.3,20.5z"/>
		<path id="XMLID_10096_" class="st5" d="M24.8,20.2c-0.1,0.1-0.2,0.2-0.2,0.3c0,0.1,0.1,0.2,0.2,0.1c0.1-0.1,0.2-0.2,0.2-0.3
			C25,20.2,24.9,20.1,24.8,20.2z"/>
	</g>
	<g id="XMLID_10086_">
		<path id="XMLID_10094_" class="st5" d="M21.6,23.6c-0.1,0.1-0.2,0.2-0.2,0.3s0.1,0.2,0.2,0.1c0.1-0.1,0.2-0.2,0.2-0.3
			S21.7,23.5,21.6,23.6z"/>
		<path id="XMLID_10093_" class="st5" d="M22.1,23.3C22,23.3,22,23.5,22,23.6s0.1,0.2,0.2,0.1c0.1-0.1,0.2-0.2,0.2-0.3
			C22.3,23.3,22.2,23.2,22.1,23.3z"/>
		<path id="XMLID_10092_" class="st5" d="M22.7,23c-0.1,0.1-0.2,0.2-0.2,0.3c0,0.1,0.1,0.2,0.2,0.1s0.2-0.2,0.2-0.3
			C22.8,23,22.8,22.9,22.7,23z"/>
		<path id="XMLID_10091_" class="st5" d="M23.2,22.7C23.1,22.7,23,22.9,23,23s0.1,0.2,0.2,0.1s0.2-0.2,0.2-0.3
			C23.4,22.7,23.3,22.6,23.2,22.7z"/>
		<path id="XMLID_10090_" class="st5" d="M23.7,22.4c-0.1,0.1-0.2,0.2-0.2,0.3c0,0.1,0.1,0.2,0.2,0.1c0.1-0.1,0.2-0.2,0.2-0.3
			C23.9,22.3,23.8,22.3,23.7,22.4z"/>
		<path id="XMLID_10089_" class="st5" d="M24.3,22.1c-0.1,0.1-0.2,0.2-0.2,0.3s0.1,0.2,0.2,0.1c0.1-0.1,0.2-0.2,0.2-0.3
			C24.4,22,24.4,22,24.3,22.1z"/>
		<path id="XMLID_10088_" class="st5" d="M24.8,21.7c-0.1,0.1-0.2,0.2-0.2,0.3s0.1,0.2,0.2,0.1c0.1-0.1,0.2-0.2,0.2-0.3
			C25,21.7,24.9,21.7,24.8,21.7z"/>
	</g>
	<g id="XMLID_5473_">
		<g id="XMLID_10078_">
			<g id="XMLID_10080_">
				<path id="XMLID_10081_" class="st7" d="M32.3,25.2c-0.3,0-0.6-0.1-0.8-0.2c-0.6-0.3-0.9-1.1-0.9-2c0-1.6,1-3.5,2.3-4.2
					c0.7-0.4,1.4-0.4,2-0.1c0.6,0.3,0.9,1.1,0.9,2c0,1.6-1,3.5-2.3,4.2C33,25.1,32.6,25.2,32.3,25.2z M34,19.7
					c-0.2,0-0.4,0.1-0.6,0.2c-0.9,0.5-1.7,2-1.7,3.2c0,0.5,0.1,0.8,0.4,1c0.3,0.1,0.6,0,0.8-0.1c0.9-0.5,1.7-2,1.7-3.2
					c0-0.5-0.1-0.8-0.4-1C34.2,19.7,34.1,19.7,34,19.7z"/>
			</g>
			<path id="XMLID_10079_" class="st13" d="M34.8,21c0-0.9-0.6-1.2-0.6-1.2l0,0c0.2,0.1,0.4,0.5,0.4,1c0,1.2-0.8,2.7-1.7,3.2
				C32.7,24,32.3,24.2,32,24c0,0,0.5,0.3,1.1-0.1C34.1,23.4,34.8,22.1,34.8,21z"/>
		</g>
		<path id="XMLID_10077_" class="st13" d="M33.9,9.7c0-0.3-0.3-0.6-0.6-0.6c-0.3,0-0.6,0.3-0.6,0.6c0,0,0,0,0,0h0v9.5l0,0
			c0,0.1,0.1,0.2,0.2,0.2c0.2,0.1,0.6,0.1,0.8,0c0.1-0.1,0.2-0.2,0.2-0.2l0,0V9.7L33.9,9.7C33.9,9.7,33.9,9.7,33.9,9.7z"/>
		<path id="XMLID_10076_" class="st7" d="M33.4,11.8c0-0.2-0.2-0.5-0.3-0.6c-0.1-0.1-0.2-0.1-0.2,0l0,0L31.3,12l0,0c0,0,0,0,0,0
			c0,0,0,0-0.1,0.1c-0.1,0.1-0.1,0.2-0.1,0.3c0,0.2,0.1,0.3,0.3,0.4c0.1,0,0.1,0.1,0.2,0.1c0.1,0,0.2,0,0.2-0.1c0,0,0,0,0,0l1.5-0.9
			l0,0C33.4,12,33.4,11.9,33.4,11.8z"/>
		<path id="XMLID_10075_" class="st7" d="M33.4,14.2c0-0.2-0.2-0.5-0.3-0.6c-0.1-0.1-0.2-0.1-0.2,0l0,0l-1.7,1l0,0c0,0,0,0,0,0
			c0,0,0,0-0.1,0.1c-0.1,0.1-0.1,0.2-0.1,0.3c0,0.2,0.1,0.3,0.3,0.4c0.1,0,0.1,0.1,0.2,0.1c0.1,0,0.2,0,0.2-0.1c0,0,0,0,0,0l1.7-1
			l0,0C33.4,14.4,33.4,14.3,33.4,14.2z"/>
	</g>
</g>
</svg>
