<?xml version="1.0" encoding="utf-8"?>
<!-- Generator: Adobe Illustrator 19.0.0, SVG Export Plug-In . SVG Version: 6.00 Build 0)  -->
<svg version="1.1" id="Layer_1" xmlns="http://www.w3.org/2000/svg" xmlns:xlink="http://www.w3.org/1999/xlink" x="0px" y="0px"
	 viewBox="0 0 141.7 122.7" style="enable-background:new 0 0 141.7 122.7;" xml:space="preserve">
<style type="text/css">
	.st0{fill:#F5F5F5;}
	.st1{fill:#EBEBEB;}
	.st2{fill:#30B14A;}
	.st3{opacity:0.1;fill:#30B14A;}
	.st4{fill:#FFFFFF;}
	.st5{fill:#FAFAFA;}
	.st6{fill:#E0E0E0;}
	.st7{fill:#455A64;}
	.st8{fill:#27DEBF;}
	.st9{opacity:0.1;}
	.st10{opacity:0.4;fill:#FFFFFF;}
	.st11{opacity:0.2;}
	.st12{fill:#FAFAFA;stroke:#E0E0E0;stroke-width:1.1698;stroke-miterlimit:10;}
	.st13{fill:#37474F;}
	.st14{fill:#C3262C;}
</style>
<g id="XMLID_4741_">
	<path id="Floor_15_" class="st0" d="M20.3,112.3c27.1,13.9,71,13.9,98.1,0c27.1-13.9,27.1-36.3,0-50.2c-27.1-13.9-71-13.9-98.1,0
		C-6.8,76-6.8,98.5,20.3,112.3z"/>
	<path id="Shadow_6_" class="st1" d="M108.9,90.2c1.5,0.9,4.4,0.6,6.5-0.7l12.2-7.1c2.1-1.2,2.6-2.9,1.1-3.8
		c-1.5-0.9-4.4-0.6-6.5,0.7l-12.2,7.1C108,87.7,107.5,89.4,108.9,90.2z"/>
	<polygon id="Shadow_5_" class="st1" points="35.5,96.7 23.1,89.6 35.5,82.4 	"/>
	<polygon id="Shadow_4_" class="st1" points="70.6,101 50.6,89.5 70.6,77.9 	"/>
	<g id="XMLID_10466_">
		<path id="XMLID_10468_" class="st2" d="M18.8,80c0-2.9-2-8.9-5-12.7c-3-3.8-7.7-6.6-11-5.5c-3.1,1-2.9,5.1,0.9,7.9
			c3.8,2.8,9.4,6.3,11,11l3.4,5.8L18.8,80z"/>
		<path id="XMLID_10467_" class="st3" d="M18.8,80c0-2.9-2-8.9-5-12.7c-3-3.8-7.7-6.6-11-5.5c-3.1,1-2.9,5.1,0.9,7.9
			c3.8,2.8,9.4,6.3,11,11l3.4,5.8L18.8,80z"/>
	</g>
	<g id="XMLID_10464_">
		<path id="XMLID_10465_" class="st4" d="M18.9,84c-0.1,0-0.2-0.1-0.2-0.2C16.9,73.9,9,65.7,4.2,63.9c-0.1,0-0.2-0.2-0.1-0.3
			c0-0.1,0.2-0.2,0.3-0.1c4.9,1.9,12.9,10.1,14.8,20.2C19.2,83.8,19.1,83.9,18.9,84C19,84,19,84,18.9,84z"/>
	</g>
	<g id="XMLID_10461_">
		<path id="XMLID_10462_" class="st2" d="M17.4,90.3c-0.4-1.6-2.4-4.4-5.6-6.6c-3.5-2.5-8-3.7-9-5.6c-1.2-2.3,0.7-4.5,4.4-4
			c3.7,0.5,10,5.6,11,13.1L17.4,90.3z"/>
	</g>
	<g id="XMLID_10459_">
		<path id="XMLID_10460_" class="st4" d="M18.1,88.6c-0.1,0-0.2-0.1-0.2-0.1c-2.9-8.5-9.4-11.6-12.4-12c-0.1,0-0.2-0.1-0.2-0.2
			c0-0.1,0.1-0.2,0.2-0.2c3.3,0.5,9.7,3.6,12.7,12.3C18.4,88.4,18.3,88.5,18.1,88.6C18.2,88.6,18.1,88.6,18.1,88.6z"/>
	</g>
	<path id="XMLID_10451_" class="st2" d="M127,71.7c0,0,0.4-6.1,4-10.7c3.6-4.5,3.4-6.4,0.9-7.3c-2.5-0.9-8.3,4.6-7,11.9
		C126.2,73,127,71.7,127,71.7z"/>
	<g id="XMLID_10447_">
		<path id="XMLID_10448_" class="st4" d="M125.9,68.2c-0.1,0-0.1-0.1-0.1-0.1c-0.4-6.7,4.3-12.3,6.1-13.5c0.1,0,0.2,0,0.2,0
			c0,0.1,0,0.2,0,0.2c-1.7,1.2-6.4,6.6-6,13.3C126.1,68.2,126,68.2,125.9,68.2C125.9,68.2,125.9,68.2,125.9,68.2z"/>
	</g>
	<path id="XMLID_10445_" class="st2" d="M126,76.8c0,0,2.2,0.8,5,1.2c2.8,0.4,4-0.9,4-0.9s-1.1-2.6-2.7-3.4c0,0,2.7,0.5,4.8,2
		c0,0,1.7,0,2.4-2.6c0,0-1-1.6-4.4-2.4c0,0,2.1-0.5,5,0.2c0.2,0.1,1.2-3.3,1.5-4.8c0.3-1.6-0.3-1.5-1.5-1.9c-1.2-0.3-5.2-1.2-6-0.6
		c-0.8,0.7-1.1,2.9-1.1,2.9s-0.5-1.3-0.1-2.9c0,0-1.1-0.4-2.8,0.1c-1.4,0.4-1.4,1.3-1.4,2.4c0,0.8,0.2,1.6,0.6,2.7
		c0,0-1.1-1.4-1.1-4.4c0,0-2.8,1.4-3.3,4.2C124.6,70.3,124.3,74.8,126,76.8z"/>
	<g id="XMLID_10443_">
		<path id="XMLID_10444_" class="st4" d="M126.6,76.2c0.1,0,0.1,0,0.1-0.1c2.3-4.7,10.6-10.1,13.6-10.7c0.1,0,0.1-0.1,0.1-0.2
			c0-0.1-0.1-0.1-0.2-0.1c-3,0.6-11.6,6.1-13.8,10.9C126.4,76.1,126.4,76.2,126.6,76.2C126.5,76.2,126.6,76.2,126.6,76.2z"/>
	</g>
	<g id="XMLID_10440_">
		<path id="XMLID_16_" class="st5" d="M17.7,92c-0.1,0-0.1-0.3-0.1-0.4V40.6L79.6,4.7l0,50.4c0,0.6-0.5,1.5-1,1.8L18,91.9
			C17.8,92,17.7,92,17.7,92z"/>
		<path id="XMLID_13_" class="st6" d="M79,5.7l0,49.4c0,0.4-0.4,1.1-0.7,1.3L18.1,91.2V40.9L79,5.7 M80.2,3.7L16.9,40.2v51.5
			c0,0.6,0.3,0.9,0.7,0.9c0.2,0,0.4-0.1,0.6-0.2l60.6-35c0.7-0.4,1.3-1.4,1.3-2.3L80.2,3.7L80.2,3.7z"/>
	</g>
	<polygon id="XMLID_10439_" class="st2" points="16.9,40.2 16.9,48.8 80.2,12.3 80.2,3.7 	"/>
	<path id="XMLID_10438_" class="st5" d="M21.9,40.7l0,1.2c0,0.3,0.2,0.4,0.4,0.2l19.4-11.2l0-2.1L22.3,40
		C22.1,40.1,21.9,40.4,21.9,40.7z"/>
	<path id="XMLID_10437_" class="st7" d="M43.8,27.6c0.2-0.1,0.4,0,0.4,0.2V29c0,0.3-0.2,0.6-0.4,0.7l-2.1,1.2l0-2.1L43.8,27.6z"/>
	<path id="XMLID_10436_" class="st7" d="M16.9,37.5c0-0.8,0.6-1.9,1.3-2.3l60.6-35c0.7-0.4,1.3-0.1,1.3,0.8v2.8L16.9,40.2V37.5z"/>
	<g id="XMLID_10432_">
		<path id="XMLID_10435_" class="st8" d="M73.2,4.9c-0.3,0.2-0.6,0.7-0.6,1.1s0.3,0.6,0.6,0.4c0.3-0.2,0.6-0.7,0.6-1.1
			C73.8,4.9,73.5,4.7,73.2,4.9z"/>
		<path id="XMLID_10434_" class="st8" d="M75.1,3.8c-0.3,0.2-0.6,0.7-0.6,1.1s0.3,0.6,0.6,0.4c0.3-0.2,0.6-0.7,0.6-1.1
			C75.7,3.7,75.5,3.6,75.1,3.8z"/>
		<path id="XMLID_10433_" class="st8" d="M77.1,2.6c-0.3,0.2-0.6,0.7-0.6,1.1c0,0.4,0.3,0.6,0.6,0.4c0.3-0.2,0.6-0.7,0.6-1.1
			C77.7,2.6,77.4,2.4,77.1,2.6z"/>
	</g>
	<g id="XMLID_10427_" class="st9">
		<path id="XMLID_10431_" d="M60.3,17.9c-0.7,0.4-1.4,1.5-1.4,2.3c0,0.9,0.6,1.2,1.4,0.8c0.7-0.4,1.4-1.5,1.4-2.3
			S61.1,17.5,60.3,17.9z"/>
		<path id="XMLID_10430_" d="M54.1,21.5c-0.7,0.4-1.4,1.5-1.4,2.3c0,0.9,0.6,1.2,1.4,0.8c0.7-0.4,1.4-1.5,1.4-2.3
			C55.5,21.4,54.9,21,54.1,21.5z"/>
		<path id="XMLID_10429_" d="M66.6,14.3c-0.7,0.4-1.4,1.5-1.4,2.3c0,0.9,0.6,1.2,1.4,0.8c0.7-0.4,1.4-1.5,1.4-2.3
			S67.3,13.9,66.6,14.3z"/>
		<path id="XMLID_10428_" d="M72.8,10.7c-0.7,0.4-1.4,1.5-1.4,2.3c0,0.9,0.6,1.2,1.4,0.8c0.7-0.4,1.4-1.5,1.4-2.3
			S73.5,10.3,72.8,10.7z"/>
	</g>
	<path id="XMLID_10425_" class="st6" d="M23.2,49.5L37.9,41c0.7-0.4,1.3-0.1,1.3,0.8v14.1c0,0.8-0.6,1.9-1.3,2.3l-14.7,8.5
		c-0.7,0.4-1.3,0.1-1.3-0.8l0-14.1C21.9,50.9,22.5,49.9,23.2,49.5z"/>
	<path id="XMLID_10424_" class="st6" d="M44.3,37.3l30.8-17.8c0.7-0.4,1.3-0.1,1.3,0.8v14.1c0,0.8-0.6,1.9-1.3,2.3L44.3,54.5
		c-0.7,0.4-1.3,0.1-1.3-0.8l0-14.1C43,38.8,43.6,37.7,44.3,37.3z"/>
	<g id="XMLID_10420_">
		<path id="XMLID_10423_" class="st6" d="M23.2,71l23.4-13.5c0.7-0.4,1.3-0.1,1.3,0.7s-0.6,1.8-1.3,2.2L23.2,73.8
			c-0.7,0.4-1.3,0.1-1.3-0.7C21.9,72.4,22.5,71.4,23.2,71z"/>
		<path id="XMLID_10422_" class="st6" d="M23.2,76l23.4-13.5c0.7-0.4,1.3-0.1,1.3,0.7c0,0.8-0.6,1.8-1.3,2.2L23.2,78.8
			c-0.7,0.4-1.3,0.1-1.3-0.7C21.9,77.4,22.5,76.4,23.2,76z"/>
		<path id="XMLID_10421_" class="st6" d="M23.2,81l23.4-13.5c0.7-0.4,1.3-0.1,1.3,0.7c0,0.8-0.6,1.8-1.3,2.2L23.2,83.9
			c-0.7,0.4-1.3,0.1-1.3-0.7C21.9,82.4,22.5,81.4,23.2,81z"/>
	</g>
	<g id="XMLID_10416_">
		<g id="XMLID_25_">
			<g id="XMLID_26_">
				<path id="XMLID_27_" class="st2" d="M34.3,64c0-0.5,0.4-1.1,0.8-1.4l40.6-23.4c0.4-0.3,1.1-0.3,1.6,0l0.9,0.5
					c0.4,0.3,0.8,0.9,0.8,1.4v31.1c0,0.5-0.4,1.1-0.8,1.4L37.6,97c-0.4,0.3-1.2,0.3-1.6,0l-0.9-0.5c-0.4-0.3-0.8-0.9-0.8-1.4
					L34.3,64z"/>
			</g>
		</g>
	</g>
	<path id="XMLID_10415_" class="st10" d="M34.5,63.2l2.3,1.3l41.9-24.2c-0.1-0.2-0.3-0.5-0.6-0.6l-0.9-0.5c-0.4-0.3-1.1-0.3-1.6,0
		L35.1,62.6C34.9,62.8,34.7,63,34.5,63.2z"/>
	<path id="XMLID_10414_" class="st9" d="M34.3,64v31.1c0,0.5,0.4,1.1,0.8,1.4L36,97c0.1,0,0.1,0.1,0.2,0.1c0.1,0,0.2,0.1,0.3,0.1
		c0.2,0,0.4,0,0.6,0c0.1,0,0.1,0,0.2,0c0,0,0.1,0,0.1,0c-0.1,0.1-0.3,0-0.4,0c-0.2-0.1-0.2-0.3-0.2-0.5V65.4c0-0.3,0.2-0.6,0.4-0.7
		l-0.4-0.2l-2.3-1.3C34.4,63.5,34.3,63.7,34.3,64z"/>
	<path id="XMLID_10413_" class="st11" d="M36.8,64.5l18.8,7c1.3,0.5,2.8,0,3.6-1.2l3-4.6l16.6-25.5l-16,25.7L79,72.2
		c0,0.3-0.1,0.5-0.2,0.8l-15.9-7l-3.5,5.6c-0.8,1.3-2.4,1.8-3.8,1.2L53,71.7L37,97.1c-0.2-0.1-0.2-0.3-0.2-0.5V96l16.1-24.4
		L36.8,64.5z"/>
	<path id="XMLID_10411_" class="st12" d="M70.3,28.8v71.4c0,0.8,0.6,1.2,1.3,0.8l32.1-18.5c0.7-0.4,1.3-1.4,1.3-2.3V8.8
		c0-0.8-0.6-1.2-1.3-0.8L71.6,26.5C70.9,26.9,70.3,28,70.3,28.8z"/>
	<path id="XMLID_10410_" class="st7" d="M72.1,30.1c0-0.2,0.2-0.4,0.3-0.6l3.7-2.1c0.2-0.1,0.3,0,0.3,0.2c0,0.2-0.2,0.4-0.3,0.6
		l-3.7,2.1C72.3,30.4,72.1,30.3,72.1,30.1z"/>
	<path id="XMLID_10409_" class="st7" d="M72.1,31.6c0-0.2,0.2-0.4,0.3-0.6l3.7-2.1c0.2-0.1,0.3,0,0.3,0.2s-0.2,0.4-0.3,0.6l-3.7,2.1
		C72.3,31.8,72.1,31.8,72.1,31.6z"/>
	<path id="XMLID_10408_" class="st7" d="M72.1,33c0-0.2,0.2-0.4,0.3-0.6l3.7-2.1c0.2-0.1,0.3,0,0.3,0.2c0,0.2-0.2,0.4-0.3,0.6
		l-3.7,2.1C72.3,33.3,72.1,33.2,72.1,33z"/>
	<path id="XMLID_10405_" class="st13" d="M102.5,14.7v-0.6c0,0,0-0.1-0.1,0l-0.4,0.2c0,0-0.1,0-0.1,0c0-0.1-0.1-0.2-0.1-0.2
		c0,0,0-0.1,0-0.1l0.3-0.6c0,0,0-0.1,0-0.1l-0.3-0.2c0,0-0.1,0-0.1,0l-0.4,0.5c0,0-0.1,0-0.1,0c-0.1,0-0.2,0-0.2,0c0,0-0.1,0-0.1,0
		l0-0.5c0,0,0,0-0.1,0l-0.5,0.3c0,0-0.1,0.1-0.1,0.1l0,0.5c0,0,0,0.1-0.1,0.1c-0.1,0.1-0.2,0.2-0.3,0.3c0,0-0.1,0-0.1,0l-0.3-0.1
		c0,0-0.1,0-0.1,0L99,15c0,0,0,0.1,0,0.1l0.3,0.2c0,0,0,0.1,0,0.1c0,0.1-0.1,0.3-0.1,0.4c0,0,0,0.1-0.1,0.1l-0.5,0.3
		c0,0-0.1,0.1-0.1,0.1v0.6c0,0,0,0.1,0.1,0l0.4-0.2c0,0,0.1,0,0.1,0c0,0.1,0.1,0.2,0.1,0.2c0,0,0,0.1,0,0.1L99,17.7c0,0,0,0.1,0,0.1
		l0.3,0.2c0,0,0.1,0,0.1,0l0.4-0.5c0,0,0.1,0,0.1,0c0.1,0,0.2,0,0.2,0c0,0,0.1,0,0.1,0l0,0.5c0,0,0,0,0.1,0l0.5-0.3
		c0,0,0.1-0.1,0.1-0.1l0-0.5c0,0,0-0.1,0.1-0.1c0.1-0.1,0.2-0.2,0.3-0.3c0,0,0.1,0,0.1,0l0.3,0.1c0,0,0.1,0,0.1,0l0.4-0.6
		c0,0,0-0.1,0-0.1l-0.3-0.2c0,0,0-0.1,0-0.1c0-0.1,0.1-0.3,0.1-0.4c0,0,0-0.1,0.1-0.1L102.5,14.7C102.5,14.7,102.5,14.7,102.5,14.7z
		 M100.6,16.5c-0.5,0.3-0.8,0.1-0.8-0.5c0-0.5,0.4-1.2,0.8-1.4c0.5-0.3,0.8-0.1,0.8,0.5C101.4,15.6,101,16.2,100.6,16.5z"/>
	<path id="XMLID_10404_" class="st7" d="M87.6,28.7c3.7-2.2,6.8-0.4,6.8,3.9s-3,9.6-6.8,11.8c-3.7,2.2-6.8,0.4-6.8-3.9
		C80.8,36.2,83.9,30.9,87.6,28.7z"/>
	<path id="XMLID_10403_" class="st14" d="M87.6,32.2c1.2-0.7,2.2-0.1,2.2,1.3c0,1.4-1,3.1-2.2,3.8c-1.2,0.7-2.2,0.1-2.2-1.3
		C85.4,34.6,86.4,32.9,87.6,32.2z"/>
	<path id="XMLID_10402_" class="st14" d="M91.9,39.6c0-2.3-1.6-3.2-3.6-2.1l-1.2,0.7c-2,1.2-3.6,4-3.6,6.3v0.6
		c0.4,0.1,0.8,0.2,1.2,0.2c0.9,0,1.9-0.3,3-0.9c1.6-0.9,3.1-2.5,4.3-4.2V39.6z"/>
	<path id="XMLID_10400_" class="st14" d="M81.5,50.9l12.3-7.1c0.4-0.2,0.7-0.1,0.7,0.3c0,0.4-0.3,0.9-0.7,1.1l-12.3,7.1
		c-0.4,0.2-0.7,0.1-0.7-0.3C80.8,51.6,81.1,51.1,81.5,50.9z"/>
	<path id="XMLID_10399_" class="st2" d="M80.2,55.9l14.9-8.6c0.4-0.2,0.7-0.1,0.7,0.3c0,0.4-0.3,0.9-0.7,1.1l-14.9,8.6
		c-0.4,0.2-0.7,0.1-0.7-0.3C79.5,56.6,79.8,56.1,80.2,55.9z"/>
	<path id="XMLID_10398_" class="st13" d="M95.5,54.3l4.2-2.4c0.2-0.1,0.4-0.1,0.4,0.1c0,0.2-0.2,0.5-0.4,0.6L95.5,55
		c-0.2,0.1-0.4,0.1-0.4-0.1S95.3,54.4,95.5,54.3z"/>
	<path id="XMLID_10397_" class="st14" d="M74.7,64.8l6.1-3.5c0.4-0.2,0.7,0,0.7,0.4v4.2c0,0.4-0.3,0.9-0.7,1.1l-6.1,3.5
		c-0.4,0.2-0.7,0-0.7-0.4V66C74,65.6,74.3,65.1,74.7,64.8z"/>
	<path id="XMLID_10396_" class="st5" d="M75.6,65.4l4.2-2.4c0.2-0.1,0.4-0.1,0.4,0.1c0,0.2-0.2,0.5-0.4,0.6l-4.2,2.4
		c-0.2,0.1-0.4,0.1-0.4-0.1S75.4,65.6,75.6,65.4z"/>
	<path id="XMLID_10395_" class="st5" d="M75.2,67.5v1.2c0,0.3,0.2,0.4,0.4,0.2l4.2-2.4c0.2-0.1,0.4-0.4,0.4-0.7l0-1.2
		c0-0.3-0.2-0.4-0.4-0.2l-4.2,2.4C75.4,67,75.2,67.3,75.2,67.5z"/>
	<path id="XMLID_10393_" class="st14" d="M84.6,59.1l6.1-3.5c0.4-0.2,0.7,0,0.7,0.4l0,4.2c0,0.4-0.3,0.9-0.7,1.1l-6.1,3.5
		c-0.4,0.2-0.7,0-0.7-0.4l0-4.2C83.9,59.8,84.2,59.3,84.6,59.1z"/>
	<path id="XMLID_10392_" class="st5" d="M85.6,59.7l4.2-2.4c0.2-0.1,0.4-0.1,0.4,0.1c0,0.2-0.2,0.5-0.4,0.6l-4.2,2.4
		c-0.2,0.1-0.4,0.1-0.4-0.1S85.3,59.8,85.6,59.7z"/>
	<path id="XMLID_10391_" class="st5" d="M85.2,61.8v1.2c0,0.3,0.2,0.4,0.4,0.2l4.2-2.4c0.2-0.1,0.4-0.4,0.4-0.7l0-1.2
		c0-0.3-0.2-0.4-0.4-0.2l-4.2,2.4C85.3,61.3,85.2,61.6,85.2,61.8z"/>
	<path id="XMLID_10389_" class="st14" d="M94.5,53.4l6.1-3.5c0.4-0.2,0.7,0,0.7,0.4v4.2c0,0.4-0.3,0.9-0.7,1.1l-6.1,3.5
		c-0.4,0.2-0.7,0-0.7-0.4v-4.2C93.8,54.1,94.1,53.6,94.5,53.4z"/>
	<path id="XMLID_10388_" class="st5" d="M95.5,54l4.2-2.4c0.2-0.1,0.4-0.1,0.4,0.1c0,0.2-0.2,0.5-0.4,0.6l-4.2,2.4
		c-0.2,0.1-0.4,0.1-0.4-0.1C95.1,54.4,95.3,54.1,95.5,54z"/>
	<path id="XMLID_10387_" class="st5" d="M95.1,56.1v1.2c0,0.3,0.2,0.4,0.4,0.2l4.2-2.4c0.2-0.1,0.4-0.4,0.4-0.7l0-1.2
		c0-0.3-0.2-0.4-0.4-0.2l-4.2,2.4C95.3,55.5,95.1,55.8,95.1,56.1z"/>
	<path id="XMLID_10385_" class="st6" d="M75.3,74.5L100,60.3c0.7-0.4,1.3-0.1,1.3,0.7c0,0.8-0.6,1.8-1.3,2.2L75.3,77.3
		c-0.7,0.4-1.3,0.1-1.3-0.7C74,75.9,74.6,74.9,75.3,74.5z"/>
	<path id="XMLID_10384_" class="st6" d="M75.3,80.2L100,66c0.7-0.4,1.3-0.1,1.3,0.7s-0.6,1.8-1.3,2.2L75.3,83.1
		c-0.7,0.4-1.3,0.1-1.3-0.7S74.6,80.6,75.3,80.2z"/>
	<path id="XMLID_10383_" class="st14" d="M83.3,82.7l8.6-5c0.4-0.2,0.7,0,0.7,0.4l0,2.8c0,0.4-0.3,0.9-0.7,1.1l-8.6,5
		c-0.4,0.2-0.7,0-0.7-0.4l0-2.8C82.7,83.5,83,83,83.3,82.7z"/>
	<g id="XMLID_10095_">
		<path id="XMLID_10382_" class="st5" d="M75.9,74.9c-0.3,0.2-0.6,0.7-0.6,1.1c0,0.4,0.3,0.6,0.6,0.4c0.3-0.2,0.6-0.7,0.6-1.1
			C76.5,74.9,76.2,74.7,75.9,74.9z"/>
		<path id="XMLID_10381_" class="st5" d="M77.8,73.8c-0.3,0.2-0.6,0.7-0.6,1.1c0,0.4,0.3,0.6,0.6,0.4c0.3-0.2,0.6-0.7,0.6-1.1
			C78.4,73.7,78.2,73.6,77.8,73.8z"/>
		<path id="XMLID_10100_" class="st5" d="M79.8,72.6c-0.3,0.2-0.6,0.7-0.6,1.1c0,0.4,0.3,0.6,0.6,0.4c0.3-0.2,0.6-0.7,0.6-1.1
			S80.1,72.4,79.8,72.6z"/>
		<path id="XMLID_10099_" class="st5" d="M81.7,71.5c-0.3,0.2-0.6,0.7-0.6,1.1c0,0.4,0.3,0.6,0.6,0.4c0.3-0.2,0.6-0.7,0.6-1.1
			C82.4,71.5,82.1,71.3,81.7,71.5z"/>
		<path id="XMLID_10098_" class="st5" d="M83.7,70.4c-0.3,0.2-0.6,0.7-0.6,1.1s0.3,0.6,0.6,0.4c0.3-0.2,0.6-0.7,0.6-1.1
			C84.3,70.3,84.1,70.2,83.7,70.4z"/>
		<path id="XMLID_10097_" class="st5" d="M85.7,69.2c-0.3,0.2-0.6,0.7-0.6,1.1c0,0.4,0.3,0.6,0.6,0.4c0.3-0.2,0.6-0.7,0.6-1.1
			C86.3,69.2,86,69,85.7,69.2z"/>
		<path id="XMLID_10096_" class="st5" d="M87.6,68.1c-0.3,0.2-0.6,0.7-0.6,1.1c0,0.4,0.3,0.6,0.6,0.4c0.3-0.2,0.6-0.7,0.6-1.1
			C88.3,68.1,88,67.9,87.6,68.1z"/>
	</g>
	<g id="XMLID_10086_">
		<path id="XMLID_10094_" class="st5" d="M75.9,80.6c-0.3,0.2-0.6,0.7-0.6,1.1s0.3,0.6,0.6,0.4c0.3-0.2,0.6-0.7,0.6-1.1
			C76.5,80.6,76.2,80.4,75.9,80.6z"/>
		<path id="XMLID_10093_" class="st5" d="M77.8,79.5c-0.3,0.2-0.6,0.7-0.6,1.1c0,0.4,0.3,0.6,0.6,0.4c0.3-0.2,0.6-0.7,0.6-1.1
			C78.4,79.5,78.2,79.3,77.8,79.5z"/>
		<path id="XMLID_10092_" class="st5" d="M79.8,78.4c-0.3,0.2-0.6,0.7-0.6,1.1c0,0.4,0.3,0.6,0.6,0.4s0.6-0.7,0.6-1.1
			C80.4,78.3,80.1,78.2,79.8,78.4z"/>
		<path id="XMLID_10091_" class="st5" d="M81.7,77.2c-0.3,0.2-0.6,0.7-0.6,1.1c0,0.4,0.3,0.6,0.6,0.4c0.3-0.2,0.6-0.7,0.6-1.1
			S82.1,77,81.7,77.2z"/>
		<path id="XMLID_10090_" class="st5" d="M83.7,76.1c-0.3,0.2-0.6,0.7-0.6,1.1c0,0.4,0.3,0.6,0.6,0.4c0.3-0.2,0.6-0.7,0.6-1.1
			C84.3,76.1,84.1,75.9,83.7,76.1z"/>
		<path id="XMLID_10089_" class="st5" d="M85.7,75c-0.3,0.2-0.6,0.7-0.6,1.1s0.3,0.6,0.6,0.4c0.3-0.2,0.6-0.7,0.6-1.1
			C86.3,74.9,86,74.8,85.7,75z"/>
		<path id="XMLID_10088_" class="st5" d="M87.6,73.8C87.3,74,87,74.5,87,74.9c0,0.4,0.3,0.6,0.6,0.4c0.3-0.2,0.6-0.7,0.6-1.1
			C88.3,73.8,88,73.6,87.6,73.8z"/>
	</g>
	<g id="XMLID_5473_">
		<g id="XMLID_10078_">
			<g id="XMLID_10080_">
				<path id="XMLID_10081_" class="st7" d="M115.2,86.7c-1.1,0-2.1-0.3-3-0.8c-2.2-1.3-3.5-3.9-3.5-7.3c0-5.9,3.8-12.7,8.6-15.5
					c2.6-1.5,5.2-1.7,7.2-0.5c2.2,1.3,3.5,3.9,3.5,7.3c0,5.9-3.8,12.7-8.6,15.5C118,86.3,116.5,86.7,115.2,86.7z M121.5,66.2
					c-0.8,0-1.6,0.4-2.1,0.7c-3.5,2-6.4,7.4-6.4,11.8c0,1.8,0.5,3.1,1.3,3.6c0.9,0.5,2.3-0.1,3-0.5c3.5-2,6.4-7.4,6.4-11.8
					c0-1.8-0.5-3.1-1.3-3.6C122.1,66.2,121.8,66.2,121.5,66.2z"/>
			</g>
			<path id="XMLID_10079_" class="st13" d="M124.5,70.9c0-3.3-2.1-4.6-2.1-4.6l0,0c0.8,0.5,1.3,1.8,1.3,3.6c0,4.4-2.9,9.8-6.4,11.8
				c-0.7,0.4-2,1-3,0.5c0,0,1.8,1.1,4.2-0.2C122.1,80.1,124.5,75.3,124.5,70.9z"/>
		</g>
		<path id="XMLID_10077_" class="st13" d="M121.1,29.4c0-1.2-1-2.2-2.2-2.2c-1.2,0-2.2,1-2.2,2.2c0,0,0,0,0,0h0v35l0,0
			c0,0.3,0.2,0.7,0.6,0.9c0.9,0.5,2.3,0.5,3.1,0c0.4-0.2,0.6-0.6,0.6-0.9l0,0V29.4L121.1,29.4C121.1,29.4,121.1,29.4,121.1,29.4z"/>
		<path id="XMLID_10076_" class="st7" d="M119.4,37.2c0-0.8-0.6-1.8-1.3-2.2c-0.4-0.2-0.7-0.2-0.9-0.1l0,0l-5.4,3.1l-0.1,0.1
			c0,0,0,0-0.1,0c-0.1,0.1-0.2,0.1-0.3,0.2c-0.3,0.3-0.5,0.8-0.5,1.3c0,0.7,0.4,1.3,0.9,1.6c0.3,0.1,0.5,0.2,0.9,0.2
			c0.3,0,0.6-0.1,0.9-0.2c0,0,0.1,0,0.1-0.1L119,38l0,0C119.2,37.9,119.4,37.6,119.4,37.2z"/>
		<path id="XMLID_10075_" class="st7" d="M119.4,46c0-0.8-0.6-1.8-1.3-2.2c-0.4-0.2-0.7-0.2-0.9-0.1l0,0l-6.4,3.7l-0.1,0.1
			c0,0,0,0-0.1,0c-0.1,0.1-0.2,0.1-0.3,0.2c-0.3,0.3-0.5,0.8-0.5,1.3c0,0.7,0.4,1.3,0.9,1.6c0.3,0.1,0.5,0.2,0.9,0.2
			c0.3,0,0.6-0.1,0.9-0.2c0,0,0.1,0,0.1-0.1l6.4-3.7l0,0C119.2,46.7,119.4,46.4,119.4,46z"/>
	</g>
</g>
</svg>
