<?xml version="1.0" encoding="utf-8"?>
<!-- Generator: Adobe Illustrator 19.0.0, SVG Export Plug-In . SVG Version: 6.00 Build 0)  -->
<svg version="1.1" id="Layer_1" xmlns="http://www.w3.org/2000/svg" xmlns:xlink="http://www.w3.org/1999/xlink" x="0px" y="0px"
	 viewBox="0 0 141.7 141.7" style="enable-background:new 0 0 141.7 141.7;" xml:space="preserve">
<style type="text/css">
	.st0{fill:#C3262C;}
</style>
<g id="XMLID_11706_">
	<path id="XMLID_11708_" class="st0" d="M141.7,67.3C140.7,30,110,0,72.1,0C34.7,0,4.3,29.3,2.7,66c0,1-0.1,2-0.1,3
		c0,13,3.6,25.2,10,35.6L0,141.7l38.5-12.2c10,5.5,21.4,8.6,33.6,8.6c38.4,0,69.6-30.9,69.6-69C141.7,68.4,141.7,67.9,141.7,67.3z
		 M72.1,127.1c-11.9,0-22.9-3.5-32.2-9.6l-22.5,7.2l7.3-21.6c-7-9.6-11.1-21.3-11.1-34c0-1.9,0.1-3.8,0.3-5.6
		C16.8,34,41.8,11,72.1,11c30.7,0,56,23.6,58.3,53.5c0.1,1.5,0.2,3,0.2,4.5C130.6,101,104.4,127.1,72.1,127.1z"/>
	<path id="XMLID_11707_" class="st0" d="M102,83c-1.7-0.9-10.1-4.9-11.7-5.5c-1.6-0.6-2.7-0.8-3.8,0.9c-1.1,1.7-4.4,5.5-5.4,6.6
		c-1,1.1-2,1.3-3.7,0.4c-1.7-0.8-7.2-2.6-13.7-8.4c-5.1-4.5-8.5-10-9.5-11.7c-1-1.7-0.1-2.6,0.8-3.4c0.8-0.7,1.7-2,2.5-3
		c0.3-0.3,0.5-0.6,0.6-0.8c0.4-0.6,0.7-1.2,1.1-2c0.6-1.1,0.3-2.1-0.1-3c-0.4-0.8-3.9-9.2-5.3-12.6c-1.4-3.4-2.8-2.8-3.8-2.8
		c-1,0-2.1-0.1-3.3-0.1c-1.2,0-3,0.4-4.6,2.1c-1.6,1.7-6,5.8-6,14.1c0,2,0.4,3.9,0.9,5.8c1.7,6,5.4,10.9,6.1,11.8
		C44,72.4,55,90,72.3,96.8c17.3,6.8,17.3,4.5,20.5,4.2c3.1-0.3,10.1-4.1,11.5-8c1.4-4,1.4-7.3,1-8.1C104.8,84.2,103.7,83.8,102,83z"
		/>
</g>
</svg>
