<?xml version="1.0" encoding="utf-8"?>
<!-- Generator: Adobe Illustrator 19.0.0, SVG Export Plug-In . SVG Version: 6.00 Build 0)  -->
<svg version="1.1" id="Layer_1" xmlns="http://www.w3.org/2000/svg" xmlns:xlink="http://www.w3.org/1999/xlink" x="0px" y="0px"
	 viewBox="0 0 61.7 55" style="enable-background:new 0 0 61.7 55;" xml:space="preserve">
<style type="text/css">
	.st0{fill:#FFFFFF;}
</style>
<g id="XMLID_791_">
	<path id="XMLID_793_" class="st0" d="M58.4,26.2C58,12.6,46.9,1.7,33.1,1.7c-13.6,0-24.6,10.6-25.2,24c0,0.4,0,0.7,0,1.1
		c0,4.7,1.3,9.2,3.6,13L7,53.3l14-4.5c3.6,2,7.8,3.1,12.2,3.1c13.9,0,25.2-11.2,25.2-25.1C58.4,26.6,58.4,26.4,58.4,26.2z
		 M33.1,47.9c-4.3,0-8.3-1.3-11.7-3.5L13.3,47l2.7-7.8c-2.5-3.5-4-7.8-4-12.4c0-0.7,0-1.4,0.1-2c1-10.7,10.1-19,21.1-19
		c11.1,0,20.3,8.6,21.2,19.4c0,0.5,0.1,1.1,0.1,1.6C54.4,38.5,44.8,47.9,33.1,47.9z"/>
	<path id="XMLID_792_" class="st0" d="M44,31.9c-0.6-0.3-3.7-1.8-4.2-2c-0.6-0.2-1-0.3-1.4,0.3c-0.4,0.6-1.6,2-2,2.4
		C36,33,35.7,33.1,35,32.8c-0.6-0.3-2.6-1-5-3.1c-1.8-1.6-3.1-3.6-3.4-4.3c-0.4-0.6,0-0.9,0.3-1.3c0.3-0.3,0.6-0.7,0.9-1.1
		c0.1-0.1,0.2-0.2,0.2-0.3c0.1-0.2,0.2-0.4,0.4-0.7c0.2-0.4,0.1-0.8,0-1.1c-0.2-0.3-1.4-3.3-1.9-4.6c-0.5-1.2-1-1-1.4-1
		c-0.4,0-0.8-0.1-1.2-0.1c-0.4,0-1.1,0.2-1.7,0.8c-0.6,0.6-2.2,2.1-2.2,5.1c0,0.7,0.1,1.4,0.3,2.1c0.6,2.2,2,4,2.2,4.3
		c0.3,0.4,4.3,6.8,10.6,9.3c6.3,2.5,6.3,1.6,7.4,1.5c1.1-0.1,3.7-1.5,4.2-2.9c0.5-1.4,0.5-2.7,0.4-2.9C45,32.4,44.6,32.2,44,31.9z"
		/>
</g>
</svg>
