<?xml version="1.0" encoding="utf-8"?>
<!-- Generator: Adobe Illustrator 19.0.0, SVG Export Plug-In . SVG Version: 6.00 Build 0)  -->
<svg version="1.1" id="Layer_1" xmlns="http://www.w3.org/2000/svg" xmlns:xlink="http://www.w3.org/1999/xlink" x="0px" y="0px"
	 viewBox="0 0 141.7 124" style="enable-background:new 0 0 141.7 124;" xml:space="preserve">
<style type="text/css">
	.st0{fill:#414042;}
</style>
<g id="XMLID_14089_">
	<path id="XMLID_14100_" class="st0" d="M128.7,0H66.4c-7.2,0-13,5.9-13,13V53l-11.6-5.7c-0.4-0.2-0.8-0.4-1.2-0.6
		c3.4-3.5,5.5-8.3,5.5-13.6c0-10.9-8.8-19.7-19.7-19.7c-10.9,0-19.7,8.8-19.7,19.7c0,5.9,2.6,11.2,6.7,14.8C5.8,52.2,0,60.5,0,70.9
		v13.3C0,90,3.7,94.8,8.9,96.6v23.2c0,2.3,1.9,4.2,4.2,4.2h26.7c2.3,0,4.2-1.9,4.2-4.2V73.1l13.3,6.6c5.1,2.5,12,1,15.1-4.8h14.9
		l-15.8,43.4c-0.8,2.2,0.3,4.5,2.5,5.3c2.5,0.9,4.7-0.6,5.3-2.5L96,75h2.9l17,46.2c0.6,1.8,2.8,3.4,5.3,2.5c2.2-0.8,3.3-3.2,2.5-5.3
		L107.8,75h20.9c7.1,0,13-5.7,13-13V13C141.7,5.7,135.7,0,128.7,0L128.7,0z M15,33.1c0-6.3,5.1-11.4,11.4-11.4
		c6.3,0,11.4,5.1,11.4,11.4c0,6.3-5.1,11.4-11.4,11.4C20.1,44.5,15,39.4,15,33.1L15,33.1z M65.2,70.6C65.2,70.6,65.2,70.6,65.2,70.6
		c-0.3,0.9-1,1.5-1.7,1.9c-0.8,0.3-1.8,0.3-2.6-0.1c-7.9-4-19.3-9.6-19.3-9.6c-2.8-1.4-6,0.6-6,3.7v49.2H17.2V93.1
		c0-2.3-1.9-4.2-4.2-4.2c-2.6,0-4.7-2.1-4.7-4.7V70.9c0-10.1,8.3-18.1,18.1-18.1h3.7c2.8,0,5.6,0.7,8,1.9c0,0,20.6,10.2,25.8,12.9
		C65.1,68.1,65.6,69.4,65.2,70.6L65.2,70.6z M133.4,62c0,1.3-0.5,2.5-1.4,3.4c-0.9,0.9-2.1,1.4-3.4,1.4H73.2c0,0,0,0,0-0.1L83.5,46
		c1-2.1,0.2-4.5-1.9-5.6c-2.1-1-4.5-0.2-5.6,1.9l-8.8,17.6c-1.6-0.8-3.5-1.8-5.6-2.8V13c0-2.6,2.1-4.7,4.7-4.7h62.3
		c1.3,0,2.5,0.5,3.4,1.4c0.9,0.9,1.4,2.1,1.4,3.4V62z M133.4,62"/>
	<path id="XMLID_14097_" class="st0" d="M119.8,17.8H75.3c-2.3,0-4.2,1.9-4.2,4.2c0,2.3,1.9,4.2,4.2,4.2h44.5c2.3,0,4.2-1.9,4.2-4.2
		C123.9,19.6,122.1,17.8,119.8,17.8L119.8,17.8z M119.8,17.8"/>
	<path id="XMLID_14094_" class="st0" d="M119.8,33.4H97.5c-2.3,0-4.2,1.9-4.2,4.2c0,2.3,1.9,4.2,4.2,4.2h22.2c2.3,0,4.2-1.9,4.2-4.2
		C123.9,35.2,122.1,33.4,119.8,33.4L119.8,33.4z M119.8,33.4"/>
	<path id="XMLID_14091_" class="st0" d="M119.8,48.9H97.5c-2.3,0-4.2,1.9-4.2,4.2c0,2.3,1.9,4.2,4.2,4.2h22.2c2.3,0,4.2-1.9,4.2-4.2
		C123.9,50.8,122.1,48.9,119.8,48.9L119.8,48.9z M119.8,48.9"/>
	<path id="XMLID_14090_" class="st0" d="M36.8,48.9"/>
</g>
</svg>
