<?xml version="1.0" encoding="utf-8"?>
<!-- Generator: Adobe Illustrator 19.0.0, SVG Export Plug-In . SVG Version: 6.00 Build 0)  -->
<svg version="1.1" id="Layer_1" xmlns="http://www.w3.org/2000/svg" xmlns:xlink="http://www.w3.org/1999/xlink" x="0px" y="0px"
	 viewBox="0 0 53.3 55" style="enable-background:new 0 0 53.3 55;" xml:space="preserve">
<style type="text/css">
	.st0{fill:#FFFFFF;}
</style>
<g id="XMLID_14089_">
	<path id="XMLID_14100_" class="st0" d="M47.7,5.9H25c-2.6,0-4.7,2.1-4.7,4.7v14.5l-4.2-2.1c-0.1-0.1-0.3-0.1-0.4-0.2
		c1.2-1.3,2-3,2-5c0-4-3.2-7.2-7.2-7.2c-4,0-7.2,3.2-7.2,7.2c0,2.1,1,4.1,2.5,5.4C3,24.9,0.8,28,0.8,31.7v4.9c0,2.1,1.4,3.9,3.2,4.5
		v8.4c0,0.8,0.7,1.5,1.5,1.5h9.7c0.8,0,1.5-0.7,1.5-1.5v-17l4.8,2.4c1.9,0.9,4.4,0.4,5.5-1.7h5.4L26.8,49c-0.3,0.8,0.1,1.7,0.9,1.9
		c0.9,0.3,1.7-0.2,1.9-0.9l6.1-16.8h1.1L43,50c0.2,0.6,1,1.2,1.9,0.9c0.8-0.3,1.2-1.2,0.9-1.9l-5.8-15.8h7.6c2.6,0,4.7-2.1,4.7-4.7
		V10.7C52.4,8,50.2,5.9,47.7,5.9L47.7,5.9z M6.3,18c0-2.3,1.9-4.2,4.2-4.2c2.3,0,4.2,1.9,4.2,4.2c0,2.3-1.9,4.2-4.2,4.2
		C8.2,22.1,6.3,20.3,6.3,18L6.3,18z M24.6,31.6C24.6,31.6,24.6,31.6,24.6,31.6c-0.1,0.3-0.3,0.6-0.6,0.7c-0.3,0.1-0.6,0.1-0.9,0
		c-2.9-1.4-7-3.5-7-3.5c-1-0.5-2.2,0.2-2.2,1.4V48H7.1v-8.2c0-0.8-0.7-1.5-1.5-1.5c-1,0-1.7-0.8-1.7-1.7v-4.9c0-3.7,3-6.6,6.6-6.6
		h1.3c1,0,2,0.2,2.9,0.7c0,0,7.5,3.7,9.4,4.7C24.5,30.7,24.7,31.2,24.6,31.6L24.6,31.6z M49.4,28.5c0,0.5-0.2,0.9-0.5,1.2
		c-0.3,0.3-0.8,0.5-1.2,0.5H27.5c0,0,0,0,0,0l3.7-7.5c0.4-0.7,0.1-1.7-0.7-2c-0.7-0.4-1.7-0.1-2,0.7l-3.2,6.4c-0.6-0.3-1.3-0.6-2-1
		v-16c0-1,0.8-1.7,1.7-1.7h22.7c0.5,0,0.9,0.2,1.2,0.5c0.3,0.3,0.5,0.8,0.5,1.2V28.5z M49.4,28.5"/>
	<path id="XMLID_14097_" class="st0" d="M44.4,12.4H28.2c-0.8,0-1.5,0.7-1.5,1.5c0,0.8,0.7,1.5,1.5,1.5h16.2c0.8,0,1.5-0.7,1.5-1.5
		C45.9,13.1,45.3,12.4,44.4,12.4L44.4,12.4z M44.4,12.4"/>
	<path id="XMLID_14094_" class="st0" d="M44.4,18.1h-8.1c-0.8,0-1.5,0.7-1.5,1.5s0.7,1.5,1.5,1.5h8.1c0.8,0,1.5-0.7,1.5-1.5
		S45.3,18.1,44.4,18.1L44.4,18.1z M44.4,18.1"/>
	<path id="XMLID_14091_" class="st0" d="M44.4,23.7h-8.1c-0.8,0-1.5,0.7-1.5,1.5c0,0.8,0.7,1.5,1.5,1.5h8.1c0.8,0,1.5-0.7,1.5-1.5
		C45.9,24.4,45.3,23.7,44.4,23.7L44.4,23.7z M44.4,23.7"/>
	<path id="XMLID_14090_" class="st0" d="M14.2,23.7"/>
</g>
</svg>
