<?xml version="1.0" encoding="utf-8"?>
<!-- Generator: Adobe Illustrator 19.0.0, SVG Export Plug-In . SVG Version: 6.00 Build 0)  -->
<svg version="1.1" id="Layer_1" xmlns="http://www.w3.org/2000/svg" xmlns:xlink="http://www.w3.org/1999/xlink" x="0px" y="0px"
	 viewBox="0 0 141.7 124.3" style="enable-background:new 0 0 141.7 124.3;" xml:space="preserve">
<style type="text/css">
	.st0{fill:#30B14A;}
</style>
<g id="XMLID_13985_">
	<path id="XMLID_14002_" class="st0" d="M129,0H66.6c-7.2,0-13.1,5.9-13.1,13.1v40l-11.6-5.8c-0.4-0.2-0.8-0.4-1.2-0.6
		c3.4-3.6,5.5-8.4,5.5-13.7c0-10.9-8.9-19.8-19.8-19.8c-10.9,0-19.8,8.9-19.8,19.8c0,5.9,2.6,11.2,6.8,14.9C5.8,52.3,0,60.7,0,71
		v13.4c0,5.8,3.7,10.7,8.9,12.4v23.3c0,2.3,1.9,4.2,4.2,4.2h26.7c2.3,0,4.2-1.9,4.2-4.2V73.3L57.3,80c5.1,2.5,12,1,15.1-4.8h14.9
		l-15.8,43.5c-0.8,2.2,0.3,4.5,2.5,5.3c2.5,0.9,4.7-0.7,5.3-2.5l16.8-46.3h2.9l17,46.3c0.6,1.8,2.8,3.4,5.3,2.5
		c2.2-0.8,3.3-3.2,2.5-5.3l-16-43.4h21c7.1,0,13.1-5.7,13.1-13.1v-49C142.1,5.7,136.1,0,129,0L129,0z M15,33.1
		c0-6.3,5.1-11.4,11.4-11.4c6.3,0,11.4,5.1,11.4,11.4c0,6.3-5.1,11.4-11.4,11.4C20.1,44.6,15,39.4,15,33.1L15,33.1z M65.3,70.7
		C65.3,70.8,65.3,70.8,65.3,70.7c-0.3,0.9-1,1.6-1.7,1.9c-0.8,0.3-1.8,0.3-2.6-0.1c-7.9-4-19.4-9.7-19.4-9.7c-2.8-1.4-6,0.6-6,3.7
		v49.3H17.2V93.3c0-2.3-1.9-4.2-4.2-4.2c-2.6,0-4.8-2.1-4.8-4.8V71c0-10.2,8.3-18.1,18.1-18.1h3.7c2.8,0,5.6,0.7,8.1,1.9
		c0,0,20.6,10.3,25.9,12.9C65.2,68.3,65.8,69.6,65.3,70.7L65.3,70.7z M133.7,62.1c0,1.3-0.5,2.5-1.4,3.4c-0.9,0.9-2.1,1.4-3.4,1.4
		H73.4c0,0,0,0,0-0.1l10.3-20.7c1-2.1,0.2-4.6-1.9-5.6c-2.1-1-4.6-0.2-5.6,1.9L67.4,60c-1.6-0.8-3.6-1.8-5.6-2.8V13.1
		c0-2.6,2.1-4.8,4.8-4.8H129c1.3,0,2.5,0.5,3.4,1.4c0.9,0.9,1.4,2.1,1.4,3.4V62.1z M133.7,62.1"/>
	<path id="XMLID_13993_" class="st0" d="M120.1,17.8H75.5c-2.3,0-4.2,1.9-4.2,4.2c0,2.3,1.9,4.2,4.2,4.2h44.6c2.3,0,4.2-1.9,4.2-4.2
		C124.2,19.7,122.4,17.8,120.1,17.8L120.1,17.8z M120.1,17.8"/>
	<path id="XMLID_13990_" class="st0" d="M120.1,33.4H97.8c-2.3,0-4.2,1.9-4.2,4.2c0,2.3,1.9,4.2,4.2,4.2h22.3c2.3,0,4.2-1.9,4.2-4.2
		C124.2,35.3,122.4,33.4,120.1,33.4L120.1,33.4z M120.1,33.4"/>
	<path id="XMLID_13987_" class="st0" d="M120.1,49H97.8c-2.3,0-4.2,1.9-4.2,4.2c0,2.3,1.9,4.2,4.2,4.2h22.3c2.3,0,4.2-1.9,4.2-4.2
		C124.2,50.9,122.4,49,120.1,49L120.1,49z M120.1,49"/>
	<path id="XMLID_13986_" class="st0" d="M36.9,49"/>
</g>
</svg>
